<svg width="24" height="24" viewBox="0 0 24 24" fill="none" xmlns="http://www.w3.org/2000/svg">
<path d="M16 7V18H3V7" fill="#F9F9FB"/>
<path d="M16 4H3V7H16H20V4H16Z" fill="#E9292F"/>
<path d="M18.5 6L18.2475 5.5L18 5H19L18.7525 5.5L18.5 6Z" fill="#363545"/>
<path fill-rule="evenodd" clip-rule="evenodd" d="M6 9.5C6 9.22386 6.22386 9 6.5 9H13.5C13.7761 9 14 9.22386 14 9.5C14 9.77614 13.7761 10 13.5 10H6.5C6.22386 10 6 9.77614 6 9.5Z" fill="#363545"/>
<path fill-rule="evenodd" clip-rule="evenodd" d="M6 15.5C6 15.2239 6.22386 15 6.5 15H13.5C13.7761 15 14 15.2239 14 15.5C14 15.7761 13.7761 16 13.5 16H6.5C6.22386 16 6 15.7761 6 15.5Z" fill="#363545"/>
<path fill-rule="evenodd" clip-rule="evenodd" d="M6 12.5C6 12.2239 6.22386 12 6.5 12H13.5C13.7761 12 14 12.2239 14 12.5C14 12.7761 13.7761 13 13.5 13H6.5C6.22386 13 6 12.7761 6 12.5Z" fill="#363545"/>
<path fill-rule="evenodd" clip-rule="evenodd" d="M20 4H16.5V3H20.5C20.7761 3 21 3.22386 21 3.5V7.5C21 7.77614 20.7761 8 20.5 8H16.5V7H20V4Z" fill="#363545"/>
<path fill-rule="evenodd" clip-rule="evenodd" d="M3 7.5C3 7.22386 3.22386 7 3.5 7H16.5C16.7761 7 17 7.22386 17 7.5C17 7.77614 16.7761 8 16.5 8H3.5C3.22386 8 3 7.77614 3 7.5Z" fill="#363545"/>
<path fill-rule="evenodd" clip-rule="evenodd" d="M3 3.5C3 3.22386 3.22386 3 3.5 3H16.5C16.7761 3 17 3.22386 17 3.5V18.5C17 18.7761 16.7761 19 16.5 19H3.5C3.22386 19 3 18.7761 3 18.5V3.5ZM4 4V18H16V4H4Z" fill="#363545"/>
</svg>
