<svg xmlns="http://www.w3.org/2000/svg" width="32" height="32" viewBox="0 0 32 32">
  <g fill="none" fill-rule="evenodd" stroke="#363545" stroke-width="1.5" transform="translate(7 6)">
    <path d="M14.7 12.0666667C14.7 12.0666667 12.9 11.5222222 11.25 11.0944444 10.95 11.9888889 9.9375 12.5333333 9 12.5333333 8.0625 12.5333333 7.05 11.9888889 6.75 11.0944444 5.1 11.5222222 3.3 12.0666667 3.3 12.0666667 1.35 12.6111111 0 14.4388889 0 16.5388889L0 19.0666667C0 19.5722222.4125 20 .9 20L17.1 20C17.5875 20 18 19.5722222 18 19.0666667L18 16.5388889C18 14.4388889 16.65 12.6111111 14.7 12.0666667L14.7 12.0666667zM9.075 9.33333333C9.4875 9.33333333 9.7125 9.29444444 10.2 8.90555556 10.725 8.47777778 11.175 8.05 11.55 7.46666667 11.9625 6.84444444 12.15 6.3 12.15 5.6L12.15 3.26666667C12.15 1.43888889 10.7625 0 9 0 7.2375 0 5.85 1.43888889 5.85 3.26666667L5.85 5.6C5.85 6.3 6.0375 6.84444444 6.45 7.46666667 6.825 8.08888889 7.275 8.47777778 7.8 8.90555556 8.2875 9.29444444 8.5125 9.33333333 8.925 9.33333333L9.075 9.33333333z"/>
  </g>
</svg>
