<svg xmlns="http://www.w3.org/2000/svg" width="32" height="32" viewBox="0 0 32 32">
  <g fill="#363545" fill-rule="evenodd" transform="translate(6 6)">
    <path d="M10.0260029,4.14162661 C9.22131609,4.05214883 8.26990709,4.14162661 8.26990709,4.14162661 L10.9742346,1.3994621 C10.9742346,1.3994621 12.2370626,-1.39617256e-10 13.9836725,0 C15.7302823,1.39617148e-10 17.2332602,0.924877832 17.8367568,1.49784557 C18.4402534,2.07081331 19.4946313,3.49468818 19.3124776,5.43684618 C19.130324,7.37900419 17.9289743,8.48331589 17.9289743,8.48331589 L14.0701264,12.3737351 C14.0701264,12.3737351 13.2422098,13.3286406 11.6401701,13.5208912 C10.0381305,13.7131418 8.88565131,13.3425559 8.03864278,12.6527731 C7.19163425,11.9629902 6.66666667,11.0820554 6.66666667,11.0820554 L8.50669484,9.19763357 C8.50669484,9.19763357 9.03238287,10.1233658 9.89704242,10.8575799 C10.761702,11.591794 11.6334459,10.9615783 12.1902334,10.6433579 C12.7470208,10.3251374 16.0925484,6.80310692 16.3850509,6.42068086 C16.6775534,6.0382548 16.8380936,5.61933165 16.8380936,4.8251842 C16.8380936,4.03103676 16.5501539,3.55254645 16.0241057,3.13350123 C15.4980574,2.71445602 14.8914389,2.36047084 14.0372259,2.49571759 C13.1830129,2.63096434 12.4181356,3.43097085 12.4181356,3.43097085 L11.4138289,4.4912175 C11.4138289,4.4912175 10.8306897,4.2311044 10.0260029,4.14162661 Z"/>
    <path d="M3.86607798,9.3602653 C3.06139118,9.27078752 2.10998218,9.3602653 2.10998218,9.3602653 L4.81430968,6.61810079 C4.81430968,6.61810079 6.07713768,5.21863869 7.82374756,5.21863869 C9.57035744,5.21863869 11.0733353,6.14351652 11.6768319,6.71648426 C12.2803285,7.289452 13.3347064,8.71332687 13.1525527,10.6554849 C12.9703991,12.5976429 11.7690494,13.7019546 11.7690494,13.7019546 L7.91020151,17.5923738 C7.91020151,17.5923738 7.08228489,18.5472793 5.48024522,18.7395299 C3.87820555,18.9317805 2.7257264,18.5611946 1.87871787,17.8714117 C1.03170934,17.1816289 0.506741761,16.3006941 0.506741761,16.3006941 L2.34676994,14.4162723 C2.34676994,14.4162723 2.87245796,15.3420045 3.73711751,16.0762186 C4.60177706,16.8104327 5.47352102,16.180217 6.03030846,15.8619966 C6.58709589,15.5437761 9.93262349,12.0217456 10.225126,11.6393195 C10.5176285,11.2568935 10.6781687,10.8379703 10.6781687,10.0438229 C10.6781687,9.24967545 10.390229,8.77118514 9.86418079,8.35213992 C9.33813253,7.93309471 8.731514,7.57910953 7.87730098,7.71435628 C7.02308795,7.84960303 6.25821067,8.64960954 6.25821067,8.64960954 L5.25390398,9.70985619 C5.25390398,9.70985619 4.67076478,9.44974309 3.86607798,9.3602653 Z" transform="rotate(180 6.84 12.004)"/>
  </g>
</svg>
