<svg xmlns="http://www.w3.org/2000/svg" width="32" height="32" viewBox="0 0 32 32" xmlns:xlink="http://www.w3.org/1999/xlink">
  <defs>
    <polygon id="a" points="0 20 20 20 20 0 0 0"/>
  </defs>
  <g fill="none" fill-rule="evenodd" transform="translate(6 6)">
    <mask id="b" fill="white">
      <use xlink:href="#a"/>
    </mask>
    <path fill="#363545" d="M13.75,9.16667969 L16.25,9.16667969 L16.25,6.66667969 L13.75,6.66667969 L13.75,9.16667969 Z M13.75,12.5 L16.25,12.5 L16.25,10 L13.75,10 L13.75,12.5 Z M13.75,15.8333594 L16.25,15.8333594 L16.25,13.3333594 L13.75,13.3333594 L13.75,15.8333594 Z M10.4166406,9.16667969 L12.9166406,9.16667969 L12.9166406,6.66667969 L10.4166406,6.66667969 L10.4166406,9.16667969 Z M10.4166406,12.5 L12.9166406,12.5 L12.9166406,10 L10.4166406,10 L10.4166406,12.5 Z M10.4166406,15.8333594 L12.9166406,15.8333594 L12.9166406,13.3333594 L10.4166406,13.3333594 L10.4166406,15.8333594 Z M7.08332031,9.16667969 L9.58332031,9.16667969 L9.58332031,6.66667969 L7.08332031,6.66667969 L7.08332031,9.16667969 Z M7.08332031,12.5 L9.58332031,12.5 L9.58332031,10 L7.08332031,10 L7.08332031,12.5 Z M7.08332031,15.8333594 L9.58332031,15.8333594 L9.58332031,13.3333594 L7.08332031,13.3333594 L7.08332031,15.8333594 Z M3.75,9.16667969 L6.25,9.16667969 L6.25,6.66667969 L3.75,6.66667969 L3.75,9.16667969 Z M3.75,12.5 L6.25,12.5 L6.25,10 L3.75,10 L3.75,12.5 Z M3.75,15.8333594 L6.25,15.8333594 L6.25,13.3333594 L3.75,13.3333594 L3.75,15.8333594 Z M17.0833203,3.33335938 L15.4166406,3.33335938 L15.4166406,2.5 C15.4166406,2.04167969 15.0416406,1.66667969 14.5833203,1.66667969 C14.125,1.66667969 13.75,2.04167969 13.75,2.5 L13.75,3.33335938 L6.25,3.33335938 L6.25,2.5 C6.25,2.04167969 5.87496094,1.66667969 5.41664062,1.66667969 C4.95832031,1.66667969 4.58332031,2.04167969 4.58332031,2.5 L4.58332031,3.33335938 L2.91664062,3.33335938 C2.45832031,3.33335938 2.08332031,3.70835938 2.08332031,4.16667969 L2.08332031,16.6666797 C2.08332031,17.125 2.45832031,17.5 2.91664062,17.5 L17.0833203,17.5 C17.5416406,17.5 17.9166406,17.125 17.9166406,16.6666797 L17.9166406,4.16667969 C17.9166406,3.70835938 17.5416406,3.33335938 17.0833203,3.33335938 L17.0833203,3.33335938 Z" mask="url(#b)"/>
  </g>
</svg>
