<svg xmlns="http://www.w3.org/2000/svg" width="32" height="32" viewBox="0 0 32 32">
  <g fill="none" fill-rule="evenodd" transform="translate(7 5)">
    <g stroke="#363545" stroke-width="1.44">
      <path d="M10.6391886 19.5L.825 19.5C.378125 19.5 0 19.0829167 0 18.59L0 16.1254167C0 14.0779167 1.2375 12.2958333 3.025 11.765 3.025 11.765 4.675 11.2341667 6.1875 10.8170833 6.4625 11.6891667 7.390625 12.22 8.25 12.22 9.109375 12.22 10.0375 11.6891667 10.3125 10.8170833 11.825 11.2341667 13.475 11.765 13.475 11.765 14.3821874 12.0344072 15.1477091 12.6261037 15.6816929 13.4112183 12.849783 13.5343456 10.6071429 15.9307262 10.6071429 18.890625 10.6071429 19.0966731 10.6180107 19.2999903 10.6391886 19.5zM8.31875 9.1C8.696875 9.1 8.903125 9.06208333 9.35 8.68291667 9.83125 8.26583333 10.24375 7.84875 10.5875 7.28 10.965625 6.67333333 11.1375 6.1425 11.1375 5.46L11.1375 3.185C11.1375 1.40291667 9.865625 0 8.25 0 6.634375 0 5.3625 1.40291667 5.3625 3.185L5.3625 5.46C5.3625 6.1425 5.534375 6.67333333 5.9125 7.28 6.25625 7.88666667 6.66875 8.26583333 7.15 8.68291667 7.596875 9.06208333 7.803125 9.1 8.18125 9.1L8.31875 9.1z"/>
    </g>
    <path fill="#363545" d="M0.735294118,4.97368421 C0.735294118,7.19035088 2.51862745,8.97368421 4.73529412,8.97368421 C6.95196078,8.97368421 8.73529412,7.19035088 8.73529412,4.97368421 C8.73529412,2.75701754 6.95196078,0.973684211 4.73529412,0.973684211 C2.51862745,0.973684211 0.735294118,2.75701754 0.735294118,4.97368421 Z M7.23529412,5.47368421 L5.23529412,5.47368421 L5.23529412,7.47368421 L4.23529412,7.47368421 L4.23529412,5.47368421 L2.23529412,5.47368421 L2.23529412,4.47368421 L4.23529412,4.47368421 L4.23529412,2.47368421 L5.23529412,2.47368421 L5.23529412,4.47368421 L7.23529412,4.47368421 L7.23529412,5.47368421 Z" transform="translate(11.765 14.526)"/>
  </g>
</svg>
