<svg xmlns="http://www.w3.org/2000/svg" width="32" height="32" viewBox="0 0 32 32" xmlns:xlink="http://www.w3.org/1999/xlink">
  <defs>
    <polygon id="a" points="0 .031 0 14.031 14.1 14.031 14.1 .031 0 .031"/>
    <polygon id="c" points="14.9 0 0 0 0 12.35 14.9 12.35 14.9 0"/>
  </defs>
  <g fill="none" fill-rule="evenodd" transform="translate(6 6)">
    <path fill="#363545" d="M17.9999922,9.79999609 L17.9999922,4.75003516 L13.5499922,9.20003516 C14.0499922,9.05003516 14.4999531,9.00003516 14.9999922,9.00003516 C16.0999531,9.00003516 17.0999922,9.29999609 17.9999922,9.79999609"/>
    <g transform="translate(0 2.969)">
      <mask id="b" fill="white">
        <use xlink:href="#a"/>
      </mask>
      <path fill="#363545" d="M9.19998047,10.5812461 L8.99998047,10.7812461 L8.29998047,10.0812461 L6.89998047,8.68124609 L4.30001953,6.08128516 L3.60001953,5.38128516 L4.30001953,4.68124609 L5.69998047,3.28124609 L6.39998047,2.58124609 L7.09998047,3.28124609 L8.99998047,5.18128516 L14.0999805,0.0312460937 L-1.953125e-05,0.0312460937 L-1.953125e-05,14.0312461 L9.34998047,14.0312461 C9.15001953,13.3812852 8.99998047,12.7312461 8.99998047,12.0312461 C8.99998047,11.5312461 9.04998047,11.0812852 9.19998047,10.5812461" mask="url(#b)"/>
    </g>
    <g transform="translate(5)">
      <mask id="d" fill="white">
        <use xlink:href="#c"/>
      </mask>
      <polygon fill="#363545" points="1.4 6.9 0 8.35 2.6 10.9 4 12.35 5.4 10.9 14.9 1.4 13.5 0 4 9.5" mask="url(#d)"/>
    </g>
    <path fill="#363545" d="M17.9999922,15.4999922 L15.4999922,15.4999922 L15.4999922,18.0000312 L14.4999531,18.0000312 L14.4999531,15.4999922 L11.9999531,15.4999922 L11.9999531,14.4999922 L14.4999531,14.4999922 L14.4999531,11.9999922 L15.4999922,11.9999922 L15.4999922,14.4999922 L17.9999922,14.4999922 L17.9999922,15.4999922 Z M14.9999922,9.99999219 C12.2499922,9.99999219 9.99999219,12.2500312 9.99999219,14.9999922 C9.99999219,17.7500312 12.2499922,19.9999922 14.9999922,19.9999922 C17.7499922,19.9999922 19.9999922,17.7500312 19.9999922,14.9999922 C19.9999922,12.2500312 17.7499922,9.99999219 14.9999922,9.99999219 L14.9999922,9.99999219 Z"/>
  </g>
</svg>
