<svg xmlns="http://www.w3.org/2000/svg" width="32" height="32" viewBox="0 0 32 32">
  <g fill="#363545" fill-rule="evenodd" transform="translate(5 7)">
    <path d="M15.1070433,1.01130697 C10.733467,-1.2171782 5.388,0.526877371 3.15264692,4.8870163 L0.0424874715,3.23983756 L1.791918,10.7974117 L8.88686105,7.89065242 L5.77674715,6.24347368 C7.23460592,3.3367144 10.8306879,2.1740561 13.7463599,3.72426717 C16.6620774,5.17764681 17.8283645,8.7626802 16.2733303,11.6694395 C14.8154715,14.4792765 11.3166105,15.6420256 8.40089294,14.2855228 C7.42900228,13.8010932 6.65146241,13.1228191 6.06836446,12.2507913 L3.63856948,13.8979247 C4.51328474,15.2544729 5.6795262,16.2233775 7.04025513,16.9016062 C11.4138314,19.1301368 16.7592984,17.3860812 18.9946515,13.0259423 C21.2300501,8.66575795 19.4806196,3.23983756 15.1070433,1.01130697"/>
    <polygon points="10.539 4.015 10.539 9.828 15.496 9.828 15.496 8.666 11.705 8.666 11.705 4.015"/>
  </g>
</svg>
