<svg xmlns="http://www.w3.org/2000/svg" width="32" height="32" viewBox="0 0 32 32">
  <g fill="none" fill-rule="evenodd" stroke="#363545" stroke-width="1.5" transform="translate(3 6)">
    <g transform="translate(6.577)">
      <path d="M8.44615385 8.81538462C9.04615385 9.23076923 9.27692308 9.23076923 9.73846154 9.23076923 10.2 9.23076923 10.4307692 9.23076923 11.0307692 8.81538462 11.6307692 8.4 12.0461538 7.98461538 12.4615385 7.33846154 12.8769231 6.73846154 13.0615385 6.13846154 13.0615385 5.44615385L13.0615385 3.36923077C13.0615385 1.52307692 11.5846154.0461538462 9.73846154.0461538462 7.89230769.0461538462 6.41538462 1.52307692 6.41538462 3.36923077L6.41538462 5.44615385C6.41538462 6.13846154 6.6 6.73846154 7.01538462 7.33846154 7.43076923 7.93846154 7.89230769 8.35384615 8.44615385 8.81538462L8.44615385 8.81538462zM15.6 12.1538462L12.4153846 11.2307692C11.8153846 12.0615385 10.8461538 12.6153846 9.73846154 12.6153846 8.58461538 12.6153846 7.66153846 12.0615385 7.06153846 11.2307692L3.83076923 12.1076923C1.84615385 12.6615385.415384615 14.5076923.415384615 16.5846154L.415384615 19.1230769C.415384615 19.5846154.784615385 19.9538462 1.24615385 19.9538462L18.0461538 19.9538462C18.5076923 19.9538462 18.8769231 19.5846154 18.8769231 19.1230769L18.8769231 16.5846154C18.9692308 14.5076923 17.6307692 12.6615385 15.6 12.1538462L15.6 12.1538462z"/>
    </g>
    <g transform="translate(0 3.846)">
      <path d="M6.93454214 6.18461538C7.34992676 6.46153846 7.53454214 6.46153846 7.85761907 6.46153846 8.22684983 6.46153846 8.36531137 6.46153846 8.78069599 6.18461538 9.1960806 5.90769231 9.47300368 5.58461538 9.74992676 5.12307692 10.0268498 4.70769231 10.1653114 4.29230769 10.1653114 3.78461538L10.1653114 2.4C10.1653114 1.10769231 9.10377291.0923076923 7.85761907.0923076923 6.61146522.0923076923 5.54992676 1.15384615 5.54992676 2.4L5.54992676 3.83076923C5.54992676 4.33846154 5.6883883 4.75384615 5.96531137 5.16923077 6.24223445 5.53846154 6.61146522 5.81538462 6.93454214 6.18461538L6.93454214 6.18461538zM4.71923077 12.4153846C4.71923077 10.8 5.41153846 9.27692308 6.56538462 8.26153846 6.05769231 8.12307692 5.59615385 7.8 5.27307692 7.38461538L3.05769231 7.93846154C1.71923077 8.30769231.75 9.55384615.75 10.9846154L.75 12.7846154C.75 13.1538462.980769231 13.3846154 1.35 13.3846154L4.76538462 13.3846154 4.71923077 12.4153846 4.71923077 12.4153846z"/>
    </g>
  </g>
</svg>
