<svg id="Layer_1" data-name="Layer 1" xmlns="http://www.w3.org/2000/svg" width="32" height="32" viewBox="0 0 32 32"><title>Open TC Collaboration Manager-Padding</title><path d="M23.5,8.5H8.5v15h15Zm-2.146,5.1-6.667,6.667a.5.5,0,0,1-.707,0l-3.334-3.333a.5.5,0,0,1,.708-.708l2.979,2.98L20.646,12.9a.5.5,0,0,1,.708.708Z" style="fill:#eaeaef"/><path d="M24,7.5H8a.5.5,0,0,0-.5.5V24a.5.5,0,0,0,.5.5H24a.5.5,0,0,0,.5-.5V8A.5.5,0,0,0,24,7.5Zm-.5,16H8.5V8.5h15Z" style="fill:#363545"/><path d="M13.98,20.271a.5.5,0,0,0,.707,0L21.354,13.6a.5.5,0,0,0-.708-.708L14.333,19.21l-2.979-2.98a.5.5,0,0,0-.708.708Z" style="fill:#363545"/><rect width="32" height="32" style="fill:none"/></svg>