<svg xmlns="http://www.w3.org/2000/svg" width="32" height="32" viewBox="0 0 32 32">
  <g fill="none" fill-rule="evenodd" stroke="#363545" stroke-width="1.5" transform="translate(7 7)">
    <path d="M1.63257808,19.2829689 L3.94765634,17.6795316 L11.7600001,17.6795316 C11.7600001,17.6795316 12.1517964,17.6146871 12.2903906,17.4802341 C12.4289847,17.345781 12.5117361,17.1015142 12.5399993,16.88 C12.6908053,15.4426177 12.54,11.4191324 12.54,11.4191324 C12.54,11.4191324 12.5339392,10.939916 12.3792967,10.8042969 C12.2246542,10.6686778 11.76,10.64 11.76,10.64 L0.84,10.64 C0.84,10.64 0.436488196,10.6184868 0.225000006,10.8042969 C0.0135118156,10.990107 0.06,11.42 0.06,11.42 L0.0679502863,16.8799999 C0.0679502863,16.8799999 0.062578123,17.3074995 0.225000002,17.4802341 C0.38742188,17.6529687 0.79640625,17.6795316 0.79640625,17.6795316 L1.63257808,17.6795316 L1.63257808,19.2829689 Z"/>
    <path d="M6.31257808,8.7029689 L8.62765634,7.09953159 L16.4400001,7.09953159 C16.4400001,7.09953159 16.8317964,7.03468709 16.9703906,6.90023406 C17.1089847,6.76578103 17.1917361,6.52151422 17.2199993,6.3 C17.3708053,4.86261766 17.22,0.839132351 17.22,0.839132351 C17.22,0.839132351 17.2139392,0.359915971 17.0592967,0.224296872 C16.9046542,0.088677774 16.44,0.06 16.44,0.06 L5.52,0.06 C5.52,0.06 5.1164882,0.0384867758 4.90500001,0.22429687 C4.69351182,0.410106965 4.74,0.84 4.74,0.84 L4.74795029,6.2999999 C4.74795029,6.2999999 4.74257812,6.72749946 4.905,6.90023406 C5.06742188,7.07296866 5.47640625,7.09953159 5.47640625,7.09953159 L6.31257808,7.09953159 L6.31257808,8.7029689 Z" transform="matrix(-1 0 0 1 22.023 0)"/>
  </g>
</svg>
