<svg id="Layer_1" data-name="Layer 1" xmlns="http://www.w3.org/2000/svg" width="32" height="32" viewBox="0 0 32 32"><title>Import model-Padding</title><path d="M13.22,15.26v9.38l3.916-1.3-1.792-2.7a1.5,1.5,0,0,1,1.25-2.329h.556V16.25a1.5,1.5,0,0,1,1.5-1.5h3.111a1.5,1.5,0,0,1,1.5,1.489V11.911Z" style="fill:#eaeaef"/><polygon points="17.395 5.822 7.4 9.156 13.037 14.794 23.032 11.46 17.395 5.822" style="fill:#eaeaef"/><polygon points="7.24 18.813 12.72 24.292 12.72 15.184 7.24 9.703 7.24 18.813" style="fill:#eaeaef"/><path d="M13.22,24.64V15.26l10.04-3.349v6.47h1v-6.9a.5.5,0,0,0-.147-.353L17.883,4.9a.508.508,0,0,0-.511-.121l-10.79,3.6a.5.5,0,0,0-.342.475V19.02a.5.5,0,0,0,.146.353l6.23,6.231a.5.5,0,0,0,.354.146.531.531,0,0,0,.157-.025L17.709,24.2l-.573-.863Zm-.5-.348-5.48-5.48V9.7l5.48,5.481Zm.317-9.5L7.4,9.156,17.4,5.822l5.637,5.638Z" style="fill:#363545"/><path d="M21.261,19.805V16.75H19.15v3.055a.5.5,0,0,1-.5.5H17.525l2.68,4.04,2.671-4.04H21.761A.5.5,0,0,1,21.261,19.805Z" style="fill:#005f9e"/><path d="M24.247,19.568a.5.5,0,0,0-.441-.263H22.261V16.25a.5.5,0,0,0-.5-.5H18.65a.5.5,0,0,0-.5.5v3.055H16.594a.5.5,0,0,0-.417.776l3.612,5.445a.5.5,0,0,0,.416.224h0a.5.5,0,0,0,.416-.225l3.6-5.445A.5.5,0,0,0,24.247,19.568Zm-6.722.737H18.65a.5.5,0,0,0,.5-.5V16.75h2.111v3.055a.5.5,0,0,0,.5.5h1.115L20.2,24.345Z" style="fill:#363545"/><rect width="32" height="32" style="fill:none"/></svg>