<svg xmlns="http://www.w3.org/2000/svg" width="32" height="32" viewBox="0 0 32 32">
  <g fill="none" fill-rule="evenodd" transform="translate(2 2)">
    <g stroke="#4A4A4A" transform="translate(0 5)">
      <path d="M10.5,4.5 L21.5266213,0.308631928"/>
      <polygon points=".846 .107 11 4.5 11 16.5 .75 10.784"/>
    </g>
    <g fill="#4A4A4A" transform="translate(13.982 12.84)">
      <path d="M7.01777778,14.1596429 C10.883771,14.1596429 14.0177778,11.0256361 14.0177778,7.15964286 C14.0177778,3.29364961 10.883771,0.159642857 7.01777778,0.159642857 C3.15178453,0.159642857 0.0177777778,3.29364961 0.0177777778,7.15964286 C0.0177777778,11.0256361 3.15178453,14.1596429 7.01777778,14.1596429 L7.01777778,14.1596429 Z M1.51777778,7.15964286 C1.51777778,4.12207673 3.98021165,1.65964286 7.01777778,1.65964286 C10.0553439,1.65964286 12.5177778,4.12207673 12.5177778,7.15964286 C12.5177778,10.197209 10.0553439,12.6596429 7.01777778,12.6596429 C3.98021165,12.6596429 1.51777778,10.197209 1.51777778,7.15964286 Z"/>
      <polygon points="6.018 3.16 8.018 3.16 8.018 11.16 6.018 11.16"/>
      <polygon points="6.018 3.16 8.018 3.16 8.018 11.16 6.018 11.16" transform="rotate(90 7.018 7.16)"/>
    </g>
    <path fill="#4A4A4A" d="M1.75,15.5975342 L1.76460384,5.50193318 L11.0108583,1.81211806 L20.25,5.52197266 L20.25,12.2059326 C20.25,12.2059326 20.6149902,12.1124878 20.9882202,12.1124878 C21.3614502,12.1124878 21.75,12.2059326 21.75,12.2059326 L21.75,4.49222528 L11,0.192225279 L0.25,4.49222528 L0.25,16.4246428 L11,22.8746428 L13.3966064,21.3568803 C13.3966064,21.3568803 13.2887573,21.1482159 13.2887573,20.7008134 L13.2887573,19.8405229 L10.9887003,21.1445199 L1.75,15.5975342 Z"/>
  </g>
</svg>
