<svg xmlns="http://www.w3.org/2000/svg" width="31" height="31" viewBox="0 0 31 31">
  <g fill="#4A4A4A" fill-rule="evenodd">
    <path d="M1.74594358,1.74786659 L7.58605468,1.73116374 L9.59861218,4.75 L20.25,4.76123047 L20.25,10 C20.25,10 20.6347443,10.04082 21,10.1295776 C21.3652557,10.2183353 21.75,10.364502 21.75,10.364502 L21.75,3.25 L10.4023017,3.25137081 L8.40138782,0.25 L0.25,0.25 L0.25,20.75 L11.336853,20.75 C11.336853,20.75 11.2212171,20.3593301 11.1014404,20 C10.9816637,19.6406699 11,19.25 11,19.25 L1.73352051,19.25 L1.74594358,1.74786659 Z" transform="translate(4 4)"/>
    <g transform="translate(15.982 14.84)">
      <path d="M7.01777778,14.1596429 C10.883771,14.1596429 14.0177778,11.0256361 14.0177778,7.15964286 C14.0177778,3.29364961 10.883771,0.159642857 7.01777778,0.159642857 C3.15178453,0.159642857 0.0177777778,3.29364961 0.0177777778,7.15964286 C0.0177777778,11.0256361 3.15178453,14.1596429 7.01777778,14.1596429 L7.01777778,14.1596429 Z M1.51777778,7.15964286 C1.51777778,4.12207673 3.98021165,1.65964286 7.01777778,1.65964286 C10.0553439,1.65964286 12.5177778,4.12207673 12.5177778,7.15964286 C12.5177778,10.197209 10.0553439,12.6596429 7.01777778,12.6596429 C3.98021165,12.6596429 1.51777778,10.197209 1.51777778,7.15964286 Z"/>
      <polygon points="6.018 3.16 8.018 3.16 8.018 11.16 6.018 11.16"/>
      <polygon points="6.018 3.16 8.018 3.16 8.018 11.16 6.018 11.16" transform="rotate(90 7.018 7.16)"/>
    </g>
  </g>
</svg>
