<svg xmlns="http://www.w3.org/2000/svg" width="32" height="32" viewBox="0 0 32 32">
  <g fill="#363545" fill-rule="evenodd" transform="translate(7 9)">
    <path d="M17.6640625,1.2 C17.69375,1.2 17.8125,1.26 17.8125,1.44 L17.8125,10.56 C17.8125,10.71 17.7234375,10.8 17.575,10.8 L6.0859375,10.8 L5.6703125,10.8 L5.34375,11.07 L3.5625,12.51 L3.5625,12 L3.5625,10.8 L2.375,10.8 L1.425,10.8 C1.2765625,10.8 1.1875,10.71 1.1875,10.56 L1.1875,1.44 C1.1875,1.29 1.2765625,1.2 1.425,1.2 L17.6640625,1.2 L17.6640625,1.2 Z M17.6640625,0 L1.425,0 C0.6234375,0 0,0.63 0,1.44 L0,10.56 C0,11.37 0.6234375,12 1.425,12 L2.375,12 L2.375,15 L6.0859375,12 L17.575,12 C18.3765625,12 19,11.37 19,10.56 L19,1.44 C19,0.63 18.3765625,0 17.6640625,0 L17.6640625,0 L17.6640625,0 Z"/>
    <polygon points="13.063 6.6 10.094 6.6 10.094 9.6 8.906 9.6 8.906 6.6 5.938 6.6 5.938 5.4 8.906 5.4 8.906 2.4 10.094 2.4 10.094 5.4 13.063 5.4"/>
  </g>
</svg>
