<?xml version="1.0" encoding="UTF-8" standalone="no"?>
<svg width="24px" height="24px" viewBox="0 0 24 24" version="1.1" xmlns="http://www.w3.org/2000/svg" xmlns:xlink="http://www.w3.org/1999/xlink" xmlns:sketch="http://www.bohemiancoding.com/sketch/ns">
    <!-- Generator: Sketch 3.3.3 (12072) - http://www.bohemiancoding.com/sketch -->
    <title>tb_ConnectIcon</title>
    <desc>Created with Sketch.</desc>
    <defs></defs>
    <g id="Page-2---Icons" stroke="none" stroke-width="1" fill="none" fill-rule="evenodd" sketch:type="MSPage">
        <g id="tb_ConnectIcon" sketch:type="MSArtboardGroup">
            <g id="Connect_Color" sketch:type="MSLayerGroup" transform="translate(5.226667, 4.704000)">
                <g id="Page-1" transform="translate(0.000000, 0.000000)" sketch:type="MSShapeGroup">
                    <g id="Connect_Color">
                        <g id="Group" transform="translate(0.000000, 0.000000)">
                            <path d="M4.49695324,12.9005748 L3.97176161,12.9005748 L0.328244767,8.48810667 C0.328244767,8.48810667 0.0656489533,8.25232593 0.0328244767,7.64603259 C-1.69829428e-14,7.03973926 0.361069243,6.6355437 0.361069243,6.6355437 L5.9084058,0.033682963 L7.71375201,0 L9.32215137,1.88624593 L9.09237997,2.15570963 L9.51909816,2.15570963 L13.1297907,6.46712889 C13.1297907,6.46712889 13.5893333,6.93869037 13.5893333,7.57866667 C13.5893333,8.21864296 13.1626151,8.62283852 13.1626151,8.62283852 L7.68092754,15.1573333 L5.84275678,15.1573333 L4.2671819,13.2037215 L4.49695324,12.9005748 L4.49695324,12.9005748 Z" id="Path-25-Copy-2" stroke="#979797" stroke-width="0.5"></path>
                            <path d="M6.72901771,4.98507852 L8.66566184,7.24183704 C8.66566184,7.24183704 8.79695974,7.37656889 8.79695974,7.5449837 C8.79695974,7.71339852 8.69848631,7.88181333 8.69848631,7.88181333 L6.76184219,10.1722548 L4.89084702,7.88181333 C4.89084702,7.88181333 4.79237359,7.71339852 4.79237359,7.5449837 C4.79237359,7.37656889 4.98932045,7.17447111 4.98932045,7.17447111 L6.72901771,4.98507852 L6.72901771,4.98507852 Z" id="Path-26-Copy-2" stroke="#979797" stroke-width="0.5"></path>
                            <path d="M4.78469266,7.86096358 C4.69921773,7.75351493 4.67624059,7.67971556 4.6852345,7.5449837 L2.88464783,7.5449837 C2.87581805,7.67971556 2.91353337,7.78766945 2.97363499,7.86096358 L5.58029233,10.9806459 L7.37562708,10.9806459 L4.78469266,7.86096358" id="Fill-1" fill="#FFD100"></path>
                            <path d="M7.47508524,1.88624593 L2.98932509,7.27494739 C2.92958454,7.34514268 2.89341197,7.44393481 2.88464783,7.5449837 L4.6852345,7.5449837 C4.69235741,7.44393481 4.73145136,7.34116809 4.78991176,7.27494739 L9.27563909,1.88624593 L7.47508524,1.88624593" id="Fill-2" fill="#FFA900"></path>
                            <path d="M5.58029233,10.9893361 L7.37562708,10.9893361 L5.80011785,12.8853501 L3.99956401,12.8853501 L5.58029233,10.9893361" id="Fill-3" fill="#FFA900"></path>
                            <path d="M5.8943241,0 L7.69491076,0 L9.27563909,1.89601399 L7.47508524,1.89601399 L5.8943241,0" id="Fill-4" fill="#FFD100"></path>
                            <path d="M5.8943241,0 L7.47508524,1.89601399 L2.98932509,7.27787781 C2.84988671,7.4451474 2.84949282,7.71168069 2.98932509,7.87945553 L5.58029233,10.9893361 L3.99956401,12.8853501 L0.335597449,8.48638884 C-0.0830459259,7.98410849 -0.0834398196,7.1736964 0.335597449,6.6709445 L5.8943241,0" id="Fill-5" fill="#FFBE00"></path>
                            <path d="M7.78911701,2.27198322 L11.4530836,6.66558891 C11.8719895,7.16830713 11.8719895,7.98410849 11.4530836,8.48638884 L5.8943241,15.1573333 L4.31359577,13.2613193 L8.7993231,7.87945553 C8.93869583,7.71168069 8.93869583,7.4451474 8.7993231,7.27787781 L6.20838869,4.1679972 L7.78911701,2.27198322" id="Fill-6" fill="#FFFFFF"></path>
                            <path d="M11.7672466,7.57866667 C11.7667543,7.90744607 11.6619785,8.23595601 11.4530836,8.48638884 L5.8943241,15.1573333 L7.69491076,15.1573333 L13.2536374,8.48638884 C13.462598,8.23595601 13.5673409,7.90744607 13.5678661,7.57866667 L11.7672466,7.57866667" id="Fill-7" fill="#CCCCCC"></path>
                            <path d="M13.2536374,6.65794287 L9.58967085,2.25675852 L7.78911701,2.25675852 L11.4530836,6.65794287 C11.6630617,6.90999249 11.7677718,7.2482368 11.7672466,7.57866667 L13.5678661,7.57866667 C13.5684241,7.2482368 13.4637141,6.90999249 13.2536374,6.65794287" id="Fill-8" fill="#DBDBDB"></path>
                        </g>
                    </g>
                </g>
            </g>
        </g>
    </g>
</svg>