<svg xmlns="http://www.w3.org/2000/svg" width="32" height="32" viewBox="0 0 32 32">
  <path fill="#363545" fill-rule="evenodd" d="M18.1385463,14.8813429 L17.9370265,15.083141 L17.9370265,15.36832 L17.9370265,23.6007371 C17.9055635,23.6216216 15.0699263,20.7727357 15.0699263,20.7727357 C15.0574777,20.7602699 15.0609337,15.36832 15.0609337,15.36832 L15.0609337,15.083141 L14.8594139,14.8813429 L9.39717129,9.41155634 C9.40289747,9.35883086 23.5899238,9.37837838 23.5899238,9.37837838 C23.6242149,9.42757298 18.1385463,14.8813429 18.1385463,14.8813429 Z M23.5899238,8 L9.40803635,8 C8.82224566,8 8.35692133,8.30801208 8.12237346,8.84683562 C7.88379578,9.42273206 7.99666001,9.98783259 8.43823365,10.4014881 L13.8839801,15.8552972 L13.6824603,15.36832 L13.6824603,20.7604423 C13.6824603,21.1370433 13.8262565,21.4780835 14.0944924,21.74669 L16.9308699,24.5869848 C17.1821648,24.8529729 17.5299066,25 17.9171688,25 C18.0939722,25 18.2695991,24.9648261 18.4418928,24.8984677 C19.0081836,24.6520078 19.3154999,24.1864514 19.3154999,23.6007371 L19.3154999,15.36832 L19.1139801,15.8552972 L24.5762227,10.3855106 C25.0013002,9.98783259 25.1141644,9.42273206 24.8804324,8.85824681 C24.6410389,8.30801208 24.1757145,8 23.5899238,8 Z"/>
</svg>
