<svg id="Layer_1" data-name="Layer 1" xmlns="http://www.w3.org/2000/svg" width="32" height="32" viewBox="0 0 32 32"><title>Open TC Model-Padding</title><path d="M8.391,22.775H23.609L24.358,19H21.833a1.5,1.5,0,0,1-1.5-1.5V15.445h-.546a1.482,1.482,0,0,1-1.482-1.66H6.609Z" style="fill:#eaeaef"/><path d="M16.282,11.194,15.136,9.21l-7.161.015L8,12.785H18.757l.894-1.352-2.936.011A.5.5,0,0,1,16.282,11.194Z" style="fill:#eaeaef"/><path d="M24.358,19l-.749,3.775H8.391l-1.782-8.99h11.7a1.5,1.5,0,0,1,.232-.667l.22-.333H8l-.025-3.56,7.161-.015,1.146,1.984a.5.5,0,0,0,.433.25l2.936-.011.654-.989H17L16,8.709a.976.976,0,0,0-.841-.484H7.975A.971.971,0,0,0,7,9.2v3.59H6a.5.5,0,0,0-.49.6l1.9,9.588a1,1,0,0,0,.981.8H23.609a1,1,0,0,0,.981-.8l.8-4.047a1.477,1.477,0,0,1-.448.076Z" style="fill:#363545"/><path d="M21.833,13.445a.5.5,0,0,1,.5.5V17h2.111V13.945a.5.5,0,0,1,.5-.5h1.124L23.389,9.4l-2.672,4.04Z" style="fill:#005f9e"/><path d="M27.417,13.669,23.805,8.224A.5.5,0,0,0,23.388,8h0a.5.5,0,0,0-.417.225l-3.6,5.445a.5.5,0,0,0,.417.775h1.546V17.5a.5.5,0,0,0,.5.5h3.111a.5.5,0,0,0,.5-.5V14.445H27a.5.5,0,0,0,.417-.776Zm-2.973.276V17H22.333V13.945a.5.5,0,0,0-.5-.5H20.717L23.389,9.4l2.679,4.04H24.944A.5.5,0,0,0,24.444,13.945Z" style="fill:#363545"/><rect width="32" height="32" style="fill:none"/></svg>