<svg xmlns="http://www.w3.org/2000/svg" width="32" height="32" viewBox="0 0 32 32">
  <path fill="#4A4A4A" fill-rule="evenodd" d="M23.8973242,18.238125 C23.8973242,18.2704819 23.8940886,18.2931314 23.8876172,18.3060742 C23.4734484,20.0404058 22.6062957,21.4462934 21.2861328,22.5237793 C19.96597,23.6012652 18.4193318,24.14 16.6461719,24.14 C15.7013494,24.14 14.7872798,23.9620395 13.9039355,23.6061133 C13.0205913,23.250187 12.2327118,22.7421908 11.5402734,22.0821094 L10.2880664,23.3343164 C10.1651101,23.4572728 10.019506,23.51875 9.85125,23.51875 C9.68299395,23.51875 9.53738994,23.4572728 9.41443359,23.3343164 C9.29147725,23.2113601 9.23,23.065756 9.23,22.8975 L9.23,18.54875 C9.23,18.380494 9.29147725,18.2348899 9.41443359,18.1119336 C9.53738994,17.9889772 9.68299395,17.9275 9.85125,17.9275 L14.2,17.9275 C14.368256,17.9275 14.5138601,17.9889772 14.6368164,18.1119336 C14.7597728,18.2348899 14.82125,18.380494 14.82125,18.54875 C14.82125,18.717006 14.7597728,18.8626101 14.6368164,18.9855664 L13.3069531,20.3154297 C13.7664216,20.7425412 14.2873604,21.072577 14.8697852,21.3055469 C15.4522099,21.5385168 16.0572755,21.655 16.685,21.655 C17.5521658,21.655 18.361077,21.4446831 19.1117578,21.024043 C19.8624386,20.6034028 20.4642686,20.0242224 20.9172656,19.2864844 C20.9884509,19.1764708 21.15994,18.7979004 21.4317383,18.1507617 C21.4835094,18.0019198 21.5805787,17.9275 21.7229492,17.9275 L23.5866992,17.9275 C23.6708272,17.9275 23.7436292,17.9582386 23.8051074,18.0197168 C23.8665856,18.081195 23.8973242,18.153997 23.8973242,18.238125 L23.8973242,18.238125 Z M24.14,10.4725 L24.14,14.82125 C24.14,14.989506 24.0785228,15.1351101 23.9555664,15.2580664 C23.8326101,15.3810228 23.687006,15.4425 23.51875,15.4425 L19.17,15.4425 C19.001744,15.4425 18.8561399,15.3810228 18.7331836,15.2580664 C18.6102272,15.1351101 18.54875,14.989506 18.54875,14.82125 C18.54875,14.652994 18.6102272,14.5073899 18.7331836,14.3844336 L20.0727539,13.0448633 C19.1149887,12.1582833 17.9857487,11.715 16.685,11.715 C15.8178342,11.715 15.008923,11.9253169 14.2582422,12.345957 C13.5075614,12.7665972 12.9057314,13.3457776 12.4527344,14.0835156 C12.3815491,14.1935292 12.21006,14.5720996 11.9382617,15.2192383 C11.8864906,15.3680802 11.7894213,15.4425 11.6470508,15.4425 L9.71535156,15.4425 C9.63122354,15.4425 9.55842153,15.4117614 9.49694336,15.3502832 C9.43546519,15.288805 9.40472656,15.216003 9.40472656,15.131875 L9.40472656,15.0639258 C9.82536669,13.3295942 10.6989908,11.9237066 12.025625,10.8462207 C13.3522592,9.76873485 14.9053687,9.23 16.685,9.23 C17.6298224,9.23 18.5487455,9.40957828 19.4417969,9.76874023 C20.3348482,10.1279022 21.1275812,10.6342806 21.8200195,11.2878906 L23.0819336,10.0356836 C23.2048899,9.91272725 23.350494,9.85125 23.51875,9.85125 C23.687006,9.85125 23.8326101,9.91272725 23.9555664,10.0356836 C24.0785228,10.1586399 24.14,10.304244 24.14,10.4725 L24.14,10.4725 Z"/>
</svg>
