<svg xmlns="http://www.w3.org/2000/svg" width="32" height="32" viewBox="0 0 32 32">
  <g fill="#363545" fill-rule="evenodd" transform="translate(4 4)">
    <path d="M8.52210245 3.48768557C7.83811867 3.41233585 7.02942102 3.48768557 7.02942102 3.48768557L9.32809939 1.1784944C9.32809939 1.1784944 10.4015032-.17572426e-10 11.8861216 0 13.37074.17572336e-10 14.6482712.77884449 15.1612433 1.26134364 15.6742154 1.74384278 16.5704366 2.94289531 16.415606 4.57839679 16.2607754 6.21389826 15.2396282 7.14384496 15.2396282 7.14384496L11.9596075 10.4199874C11.9596075 10.4199874 11.2558783 11.2241184 9.89414461 11.3860136 8.53241089 11.5479089 7.55280361 11.2358366 6.83284636 10.6549668 6.11288911 10.074097 5.66666667 9.33225715 5.66666667 9.33225715L7.23069061 7.74537564C7.23069061 7.74537564 7.67752544 8.52493966 8.41248605 9.14322521 9.14744667 9.76151076 9.88842904 9.23080281 10.3616984 8.96282768 10.8349677 8.69485255 13.6786661 5.72893214 13.9272933 5.40688914 14.1759204 5.08484615 14.3123796 4.73206876 14.3123796 4.06331301 14.3123796 3.39455727 14.0676309 2.99161806 13.6204898 2.63873788 13.1733488 2.2858577 12.6577231 1.98776491 11.931642 2.10165692 11.2055609 2.21554892 10.5554152 2.88923861 10.5554152 2.88923861L9.70175455 3.78207789C9.70175455 3.78207789 9.20608623 3.56303529 8.52210245 3.48768557zM21.8372396 18.0416667C21.8372396 18.0633682 21.8350695 18.078559 21.8307292 18.0872396 21.55295 19.2504398 20.9713586 20.1933558 20.0859375 20.9160156 19.2005164 21.6386755 18.1632004 22 16.9739583 22 16.3402746 22 15.7272165 21.8806436 15.1347656 21.6419271 14.5423147 21.4032106 14.0138912 21.0625022 13.5494792 20.6197917L12.7096354 21.4596354C12.6271697 21.5421011 12.5295145 21.5833333 12.4166667 21.5833333 12.3038189 21.5833333 12.2061636 21.5421011 12.1236979 21.4596354 12.0412322 21.3771697 12 21.2795145 12 21.1666667L12 18.25C12 18.1371522 12.0412322 18.0394969 12.1236979 17.9570313 12.2061636 17.8745656 12.3038189 17.8333333 12.4166667 17.8333333L15.3333333 17.8333333C15.4461811 17.8333333 15.5438364 17.8745656 15.6263021 17.9570313 15.7087678 18.0394969 15.75 18.1371522 15.75 18.25 15.75 18.3628478 15.7087678 18.4605031 15.6263021 18.5429687L14.734375 19.4348958C15.0425363 19.7213556 15.3919251 19.9427076 15.7825521 20.0989583 16.173179 20.2552091 16.578991 20.3333333 17 20.3333333 17.5816001 20.3333333 18.1241294 20.1922757 18.6276042 19.9101562 19.1310789 19.6280368 19.5347207 19.2395858 19.8385417 18.7447917 19.886285 18.6710066 20.0013012 18.4171029 20.1835937 17.9830729 20.2183161 17.883246 20.2834197 17.8333333 20.3789063 17.8333333L21.6289063 17.8333333C21.6853301 17.8333333 21.7341578 17.8539494 21.7753906 17.8951823 21.8166235 17.9364151 21.8372396 17.9852428 21.8372396 18.0416667L21.8372396 18.0416667zM22 12.8333333L22 15.75C22 15.8628478 21.9587678 15.9605031 21.8763021 16.0429688 21.7938364 16.1254344 21.6961811 16.1666667 21.5833333 16.1666667L18.6666667 16.1666667C18.5538189 16.1666667 18.4561636 16.1254344 18.3736979 16.0429688 18.2912322 15.9605031 18.25 15.8628478 18.25 15.75 18.25 15.6371522 18.2912322 15.5394969 18.3736979 15.4570313L19.2721354 14.5585937C18.6297711 13.9639727 17.8724002 13.6666667 17 13.6666667 16.4183999 13.6666667 15.8758706 13.8077243 15.3723958 14.0898438 14.8689211 14.3719632 14.4652793 14.7604142 14.1614583 15.2552083 14.113715 15.3289934 13.9986988 15.5828971 13.8164063 16.0169271 13.7816839 16.116754 13.7165803 16.1666667 13.6210937 16.1666667L12.3255208 16.1666667C12.2690969 16.1666667 12.2202693 16.1460506 12.1790365 16.1048177 12.1378036 16.0635849 12.1171875 16.0147572 12.1171875 15.9583333L12.1171875 15.9127604C12.399307 14.7495602 12.9852386 13.8066442 13.875 13.0839844 14.7647614 12.3613245 15.8064176 12 17 12 17.6336837 12 18.249997 12.1204415 18.8489583 12.3613281 19.4479197 12.6022147 19.9795984 12.9418381 20.4440104 13.3802083L21.2903646 12.5403646C21.3728303 12.4578989 21.4704855 12.4166667 21.5833333 12.4166667 21.6961811 12.4166667 21.7938364 12.4578989 21.8763021 12.5403646 21.9587678 12.6228303 22 12.7204855 22 12.8333333L22 12.8333333z"/>
    <path d="M3.28616628,7.88232868 C2.6021825,7.80697896 1.79348485,7.88232868 1.79348485,7.88232868 L4.09216322,5.57313751 C4.09216322,5.57313751 5.16556703,4.39464311 6.65018543,4.39464311 C8.13480382,4.39464311 9.412335,5.1734876 9.9253071,5.65598675 C10.4382792,6.13848589 11.3345004,7.33753842 11.1796698,8.97303989 C11.0248392,10.6085414 10.003692,11.5384881 10.003692,11.5384881 L6.72367128,14.8146305 C6.72367128,14.8146305 6.01994215,15.6187615 4.65820844,15.7806567 C3.29647472,15.942552 2.31686744,15.6304797 1.59691019,15.0496099 C0.876952939,14.4687401 0.430730497,13.7269003 0.430730497,13.7269003 L1.99475444,12.1400187 C1.99475444,12.1400187 2.44158927,12.9195828 3.17654988,13.5378683 C3.9115105,14.1561539 4.65249287,13.6254459 5.12576219,13.3574708 C5.59903151,13.0894957 8.44272997,10.1235752 8.69135711,9.80153225 C8.93998426,9.47948925 9.07644341,9.12671186 9.07644341,8.45795612 C9.07644341,7.78920038 8.83169468,7.38626117 8.38455367,7.03338099 C7.93741265,6.68050081 7.4217869,6.38240802 6.69570583,6.49630002 C5.96962476,6.61019203 5.31947907,7.28388172 5.31947907,7.28388172 L4.46581838,8.176721 C4.46581838,8.176721 3.97015006,7.95767839 3.28616628,7.88232868 Z" transform="rotate(180 5.814 10.109)"/>
  </g>
</svg>
