<svg xmlns="http://www.w3.org/2000/svg" width="32" height="32" viewBox="0 0 32 32">
  <path fill="#363545" fill-rule="evenodd" d="M18.5820885,12.3946875 L20.0444571,12.3946875 L19.4495953,10.5808594 L19.3504517,10.1898047 C19.3394356,10.1010542 19.3339277,10.045586 19.3339277,10.0233984 L19.3008798,10.0233984 L19.2760939,10.1898047 C19.2760939,10.1953516 19.2664551,10.245273 19.247177,10.3395703 C19.227899,10.4338677 19.2072443,10.5142965 19.1852123,10.5808594 L18.5820885,12.3946875 Z M14.8228925,20.98125 C14.8228925,21.0478128 14.7953529,21.1143747 14.7402728,21.1809375 L12.1047046,23.8351172 C12.0496245,23.8850393 11.9862834,23.91 11.9146793,23.91 C11.8485832,23.91 11.7852421,23.8850393 11.724654,23.8351172 L9.08082381,21.1726172 C8.9982037,21.0838667 8.97892597,20.9867974 9.02299002,20.8814062 C9.06705408,20.7704682 9.14967295,20.715 9.2708491,20.715 L10.8571472,20.715 L10.8571472,9.26625 C10.8571472,9.18859336 10.8819329,9.12480494 10.9315049,9.07488281 C10.981077,9.02496069 11.0444181,9 11.1215302,9 L12.7078283,9 C12.7849404,9 12.8482816,9.02496069 12.8978536,9.07488281 C12.9474257,9.12480494 12.9722114,9.18859336 12.9722114,9.26625 L12.9722114,20.715 L14.5585095,20.715 C14.6356216,20.715 14.6989627,20.7399607 14.7485348,20.7898828 C14.7981068,20.8398049 14.8228925,20.9035934 14.8228925,20.98125 L14.8228925,20.98125 Z M21.7298988,21.9713672 L21.7298988,23.91 L16.9049087,23.91 L16.9049087,23.1611719 L19.9535754,18.7597266 C20.0196715,18.6598823 20.0775047,18.5850002 20.1270768,18.5350781 L20.2179584,18.4601953 L20.2179584,18.4352344 C20.2069424,18.4352344 20.1890417,18.4366211 20.1642556,18.4393945 C20.1394696,18.442168 20.1188149,18.4435547 20.1022909,18.4435547 C20.0361948,18.4601954 19.9535759,18.4685156 19.8544318,18.4685156 L17.9376549,18.4685156 L17.9376549,19.4253516 L16.9462186,19.4253516 L16.9462186,17.52 L21.6307552,17.52 L21.6307552,18.2605078 L18.5820885,22.6702734 C18.5490405,22.7146487 18.4912073,22.7867573 18.4085872,22.8866016 L18.3177055,22.978125 L18.3177055,22.9947656 L18.4333731,22.978125 C18.4829451,22.9670312 18.565564,22.9614844 18.6812321,22.9614844 L20.7302005,22.9614844 L20.7302005,21.9713672 L21.7298988,21.9713672 Z M22.4652141,14.5080469 L22.4652141,15.39 L20.0857669,15.39 L20.0857669,14.5080469 L20.7054146,14.5080469 L20.3171021,13.3099219 L18.3094435,13.3099219 L17.921131,14.5080469 L18.5407787,14.5080469 L18.5407787,15.39 L16.1695935,15.39 L16.1695935,14.5080469 L16.7479313,14.5080469 L18.6481843,9 L19.9866233,9 L21.8868762,14.5080469 L22.4652141,14.5080469 Z"/>
</svg>
