<svg xmlns="http://www.w3.org/2000/svg" width="31" height="31" viewBox="0 0 31 31">
  <g fill="none" fill-rule="evenodd" transform="translate(4 5)">
    <path fill="#4A4A4A" d="M17.0816895,6.69227105 L10.2201347,13.846296 L9.79447783,14.2278981 C9.73605404,14.2802752 9.66511194,14.3064633 9.58164939,14.3064633 C9.49818684,14.3064633 9.42724473,14.2802752 9.36882095,14.2278981 L8.94316406,13.846296 L5.75028172,10.9497994 C5.69185794,10.8974224 5.66264648,10.8338226 5.66264648,10.7589983 C5.66264648,10.684174 5.69185794,10.6205743 5.75028172,10.5681973 L6.98068007,9.12584874 C7.03910386,9.07347172 7.11004596,9.0472836 7.19350851,9.0472836 C7.27697107,9.0472836 7.34791317,9.07347172 7.40633696,9.12584874 L9.57217933,11.1077481 L15.393663,4.935708 C15.4520868,4.88333097 15.5230289,4.85714286 15.6064915,4.85714286 C15.689954,4.85714286 15.7608961,4.88333097 15.8193199,4.935708 L17.0816895,6.31066895 C17.1401132,6.36304597 17.1693247,6.42664568 17.1693247,6.50147 C17.1693247,6.57629431 17.1401132,6.63989403 17.0816895,6.69227105 Z"/>
    <path stroke="#4A4A4A" stroke-width="1.4" d="M18.05,16.3 C20.9494949,16.3 23.3,13.9494949 23.3,11.05 C23.3,8.50735073 21.4924538,6.38687648 19.0922327,5.90344848 C18.9651104,3.89204002 17.2934756,2.3 15.25,2.3 C14.3568336,2.3 13.5347039,2.60414439 12.8815296,3.11451458 C11.7908002,1.76384728 10.1212813,0.9 8.25,0.9 C4.96390574,0.9 2.3,3.56390574 2.3,6.85 C2.3,7.55645847 2.42312099,8.23416049 2.64907608,8.86281918 C1.21548877,9.42310586 0.2,10.8179629 0.2,12.45 C0.2,14.5762963 1.92370371,16.3 4.05,16.3 L18.05,16.3 Z"/>
  </g>
</svg>
