<?xml version="1.0" encoding="UTF-8" standalone="no"?>
<svg width="45px" height="45px" viewBox="0 0 45 45" version="1.1" xmlns="http://www.w3.org/2000/svg" xmlns:xlink="http://www.w3.org/1999/xlink">
    <!-- Generator: Sketch 3.7.2 (28276) - http://www.bohemiancoding.com/sketch -->
    <title>tb_syncingCloud</title>
    <desc>Created with Sketch.</desc>
    <defs></defs>
    <g id="Page-2---Icons" stroke="none" stroke-width="1" fill="none" fill-rule="evenodd">
        <g id="tb_syncingCloud">
            <path d="M14.9335938,29.109375 L11.5,29 C8.46243388,29 6,26.5375661 6,23.5 C6,21.1685184 7.45069824,19.1758655 9.49868011,18.375456 C9.17588713,17.4773721 9,16.5092264 9,15.5 C9,10.8055796 12.8055796,7 17.5,7 C20.173259,7 22.5582861,8.23406755 24.1164708,10.1635923 C25.049577,9.43449198 26.224048,9 27.5,9 C30.4192509,9 32.8073005,11.2743429 32.9889039,14.1477835 C36.4177912,14.838395 39,17.8676439 39,21.5 C39,21.5 39,23.5 37.8916016,24.3886719" id="Oval-38" stroke="#4A4A4A" stroke-width="2"></path>
            <path d="M35.2233073,30.7708333 C35.2233073,30.8077259 35.2196181,30.8335503 35.2122396,30.8483073 C34.740015,32.8257477 33.7513096,34.4287048 32.2460938,35.6572266 C30.7408779,36.8857483 28.9774407,37.5 26.9557292,37.5 C25.8784668,37.5 24.8362681,37.297094 23.8291016,36.891276 C22.8219351,36.485458 21.9236151,35.9062538 21.1341146,35.1536458 L19.7063802,36.5813802 C19.5661885,36.7215719 19.4001746,36.7916667 19.2083333,36.7916667 C19.0164921,36.7916667 18.8504781,36.7215719 18.7102865,36.5813802 C18.5700948,36.4411885 18.5,36.2751746 18.5,36.0833333 L18.5,31.125 C18.5,30.9331588 18.5700948,30.7671448 18.7102865,30.6269531 C18.8504781,30.4867615 19.0164921,30.4166667 19.2083333,30.4166667 L24.1666667,30.4166667 C24.3585079,30.4166667 24.5245219,30.4867615 24.6647135,30.6269531 C24.8049052,30.7671448 24.875,30.9331588 24.875,31.125 C24.875,31.3168412 24.8049052,31.4828552 24.6647135,31.6230469 L23.1484375,33.1393229 C23.6723116,33.6263045 24.2662727,34.0026028 24.9303385,34.2682292 C25.5944044,34.5338555 26.2842846,34.6666667 27,34.6666667 C27.9887202,34.6666667 28.91102,34.4268687 29.7669271,33.9472656 C30.6228341,33.4676625 31.3090252,32.8072959 31.8255208,31.9661458 C31.9066844,31.8407112 32.102212,31.4090749 32.4121094,30.671224 C32.4711374,30.5015182 32.5818134,30.4166667 32.7441406,30.4166667 L34.8691406,30.4166667 C34.9650612,30.4166667 35.0480682,30.4517141 35.1181641,30.5218099 C35.1882599,30.5919057 35.2233073,30.6749127 35.2233073,30.7708333 L35.2233073,30.7708333 Z M35.5,21.9166667 L35.5,26.875 C35.5,27.0668412 35.4299052,27.2328552 35.2897135,27.3730469 C35.1495219,27.5132385 34.9835079,27.5833333 34.7916667,27.5833333 L29.8333333,27.5833333 C29.6414921,27.5833333 29.4754781,27.5132385 29.3352865,27.3730469 C29.1950948,27.2328552 29.125,27.0668412 29.125,26.875 C29.125,26.6831588 29.1950948,26.5171448 29.3352865,26.3769531 L30.8626302,24.8496094 C29.7706109,23.8387536 28.4830803,23.3333333 27,23.3333333 C26.0112798,23.3333333 25.08898,23.5731313 24.2330729,24.0527344 C23.3771659,24.5323375 22.6909748,25.1927041 22.1744792,26.0338542 C22.0933156,26.1592888 21.897788,26.5909251 21.5878906,27.328776 C21.5288626,27.4984818 21.4181866,27.5833333 21.2558594,27.5833333 L19.0533854,27.5833333 C18.9574648,27.5833333 18.8744578,27.5482859 18.804362,27.4781901 C18.7342661,27.4080943 18.6992187,27.3250873 18.6992187,27.2291667 L18.6992187,27.1516927 C19.1788218,25.1742523 20.1749056,23.5712952 21.6875,22.3427734 C23.2000944,21.1142517 24.97091,20.5 27,20.5 C28.0772623,20.5 29.1249949,20.7047506 30.1432292,21.1142578 C31.1614634,21.5237651 32.0653172,22.1011247 32.8548177,22.8463542 L34.2936198,21.4186198 C34.4338115,21.2784281 34.5998254,21.2083333 34.7916667,21.2083333 C34.9835079,21.2083333 35.1495219,21.2784281 35.2897135,21.4186198 C35.4299052,21.5588115 35.5,21.7248254 35.5,21.9166667 L35.5,21.9166667 Z" id="rotate" fill="#4A4A4A"></path>
        </g>
    </g>
</svg>