<svg xmlns="http://www.w3.org/2000/svg" width="31" height="31" viewBox="0 0 31 31">
  <g fill="none" fill-rule="evenodd" transform="translate(4 4)">
    <path stroke="#4A4A4A" stroke-width="1.4" d="M6.45351562,16.3765625 L4.05,16.3 C1.92370371,16.3 0.2,14.5762963 0.2,12.45 C0.2,10.8179629 1.21548877,9.42310586 2.64907608,8.86281918 C2.42312099,8.23416049 2.3,7.55645847 2.3,6.85 C2.3,3.56390574 4.96390574,0.9 8.25,0.9 C10.1212813,0.9 11.7908002,1.76384728 12.8815296,3.11451458 C13.5347039,2.60414439 14.3568336,2.3 15.25,2.3 C17.2934756,2.3 18.9651104,3.89204002 19.0922327,5.90344848 C21.4924538,6.38687648 23.3,8.50735073 23.3,11.05 C23.3,11.05 23.3,12.45 22.5241211,13.0720703"/>
    <path fill="#4A4A4A" d="M20.6563151,17.5395833 C20.6563151,17.5654081 20.6537327,17.5834852 20.6485677,17.5938151 C20.3180105,18.9780234 19.6259167,20.1000934 18.5722656,20.9600586 C17.5186145,21.8200238 16.2842085,22.25 14.8690104,22.25 C14.1149268,22.25 13.3853876,22.1079658 12.6803711,21.8238932 C11.9753545,21.5398206 11.3465305,21.1343776 10.7938802,20.6075521 L9.79446615,21.6069661 C9.69633197,21.7051003 9.5801222,21.7541667 9.44583333,21.7541667 C9.31154447,21.7541667 9.19533469,21.7051003 9.09720052,21.6069661 C8.99906635,21.508832 8.95,21.3926222 8.95,21.2583333 L8.95,17.7875 C8.95,17.6532111 8.99906635,17.5370014 9.09720052,17.4388672 C9.19533469,17.340733 9.31154447,17.2916667 9.44583333,17.2916667 L12.9166667,17.2916667 C13.0509555,17.2916667 13.1671653,17.340733 13.2652995,17.4388672 C13.3634337,17.5370014 13.4125,17.6532111 13.4125,17.7875 C13.4125,17.9217889 13.3634337,18.0379986 13.2652995,18.1361328 L12.2039062,19.197526 C12.5706182,19.5384132 12.9863909,19.801822 13.451237,19.9877604 C13.9160831,20.1736988 14.3989992,20.2666667 14.9,20.2666667 C15.5921042,20.2666667 16.237714,20.0988081 16.836849,19.7630859 C17.4359839,19.4273638 17.9163176,18.9651071 18.2778646,18.3763021 C18.3346791,18.2884978 18.4715484,17.9863524 18.6884766,17.4698568 C18.7297962,17.3510628 18.8072694,17.2916667 18.9208984,17.2916667 L20.4083984,17.2916667 C20.4755429,17.2916667 20.5336478,17.3161998 20.5827148,17.3652669 C20.6317819,17.414334 20.6563151,17.4724389 20.6563151,17.5395833 L20.6563151,17.5395833 Z M20.85,11.3416667 L20.85,14.8125 C20.85,14.9467889 20.8009337,15.0629986 20.7027995,15.1611328 C20.6046653,15.259267 20.4884555,15.3083333 20.3541667,15.3083333 L16.8833333,15.3083333 C16.7490445,15.3083333 16.6328347,15.259267 16.5347005,15.1611328 C16.4365663,15.0629986 16.3875,14.9467889 16.3875,14.8125 C16.3875,14.6782111 16.4365663,14.5620014 16.5347005,14.4638672 L17.6038411,13.3947266 C16.8394276,12.6871275 15.9381562,12.3333333 14.9,12.3333333 C14.2078958,12.3333333 13.562286,12.5011919 12.963151,12.8369141 C12.3640161,13.1726362 11.8836824,13.6348929 11.5221354,14.2236979 C11.4653209,14.3115022 11.3284516,14.6136476 11.1115234,15.1301432 C11.0702038,15.2489372 10.9927306,15.3083333 10.8791016,15.3083333 L9.33736979,15.3083333 C9.27022536,15.3083333 9.21212047,15.2838002 9.16305339,15.2347331 C9.1139863,15.185666 9.08945312,15.1275611 9.08945312,15.0604167 L9.08945312,15.0061849 C9.42517529,13.6219766 10.1224339,12.4999066 11.18125,11.6399414 C12.2400661,10.7799762 13.479637,10.35 14.9,10.35 C15.6540836,10.35 16.3874964,10.4933254 17.1002604,10.7799805 C17.8130244,11.0666355 18.4457221,11.4707873 18.9983724,11.9924479 L20.0055339,10.9930339 C20.103668,10.8948997 20.2198778,10.8458333 20.3541667,10.8458333 C20.4884555,10.8458333 20.6046653,10.8948997 20.7027995,10.9930339 C20.8009337,11.091168 20.85,11.2073778 20.85,11.3416667 L20.85,11.3416667 Z"/>
  </g>
</svg>
