<svg xmlns="http://www.w3.org/2000/svg" width="31" height="31" viewBox="0 0 31 31">
  <g fill="none" fill-rule="evenodd" stroke="#4A4A4A" stroke-width="1.4">
    <path d="M22.05,20.3 C24.9494949,20.3 27.3,17.9494949 27.3,15.05 C27.3,12.5073507 25.4924538,10.3868765 23.0922327,9.90344848 C22.9651104,7.89204002 21.2934756,6.3 19.25,6.3 C18.3568336,6.3 17.5347039,6.60414439 16.8815296,7.11451458 C15.7908002,5.76384728 14.1212813,4.9 12.25,4.9 C8.96390574,4.9 6.3,7.56390574 6.3,10.85 C6.3,11.5564585 6.42312099,12.2341605 6.64907608,12.8628192 C5.21548877,13.4231059 4.2,14.8179629 4.2,16.45 C4.2,18.5762963 5.92370371,20.3 8.05,20.3"/>
    <polygon fill="#4A4A4A" points="9.8 21 12.6 25.2 15.4 21 13.325 21.024 13.32 13.305 11.939 13.321 11.929 21.036" transform="matrix(1 0 0 -1 0 38.505)"/>
    <polygon fill="#4A4A4A" points="16.1 23.1 18.9 27.3 21.7 23.1 19.625 23.124 19.62 15.405 18.239 15.421 18.229 23.136"/>
  </g>
</svg>
