<svg xmlns="http://www.w3.org/2000/svg" width="32" height="32" viewBox="0 0 32 32">
  <g fill="none" fill-rule="evenodd">
    <path fill="#363545" d="M5.82289248,11.98125 C5.82289248,12.0478128 5.79535286,12.1143747 5.74027279,12.1809375 L3.10470458,14.8351172 C3.04962451,14.8850393 2.98628337,14.91 2.91467928,14.91 C2.8485832,14.91 2.78524207,14.8850393 2.72465399,14.8351172 L0.0808238084,12.1726172 C-0.00179629782,12.0838667 -0.0210740334,11.9867974 0.0229900232,11.8814062 C0.0670540799,11.7704682 0.149672947,11.715 0.270849103,11.715 L1.85714721,11.715 L1.85714721,0.26625 C1.85714721,0.188593362 1.88193287,0.124804937 1.93150493,0.0748828125 C1.981077,0.0249606879 2.04441813,0 2.12153023,0 L3.70782834,0 C3.78494044,0 3.84828157,0.0249606879 3.89785363,0.0748828125 C3.94742569,0.124804937 3.97221135,0.188593362 3.97221135,0.26625 L3.97221135,11.715 L5.55850946,11.715 C5.63562156,11.715 5.69896269,11.7399607 5.74853476,11.7898828 C5.79810682,11.8398049 5.82289248,11.9035934 5.82289248,11.98125 L5.82289248,11.98125 Z" transform="matrix(1 0 0 -1 6 23.91)"/>
    <g stroke="#363545" stroke-width="1.05" transform="translate(14 9)">
      <path d="M10.6166667 8.44666667C10.6166667 8.44666667 9.31666667 8.06555556 8.125 7.76611111 7.90833333 8.39222222 7.17708333 8.77333333 6.5 8.77333333 5.82291667 8.77333333 5.09166667 8.39222222 4.875 7.76611111 3.68333333 8.06555556 2.38333333 8.44666667 2.38333333 8.44666667.975 8.82777778 0 10.1072222 0 11.5772222L0 13.3466667C0 13.7005556.297916667 14 .65 14L12.35 14C12.7020833 14 13 13.7005556 13 13.3466667L13 11.5772222C13 10.1072222 12.025 8.82777778 10.6166667 8.44666667L10.6166667 8.44666667zM6.55416667 6.53333333C6.85208333 6.53333333 7.01458333 6.50611111 7.36666667 6.23388889 7.74583333 5.93444444 8.07083333 5.635 8.34166667 5.22666667 8.63958333 4.79111111 8.775 4.41 8.775 3.92L8.775 2.28666667C8.775 1.00722222 7.77291667 0 6.5 0 5.22708333 0 4.225 1.00722222 4.225 2.28666667L4.225 3.92C4.225 4.41 4.36041667 4.79111111 4.65833333 5.22666667 4.92916667 5.66222222 5.25416667 5.93444444 5.63333333 6.23388889 5.98541667 6.50611111 6.14791667 6.53333333 6.44583333 6.53333333L6.55416667 6.53333333z"/>
    </g>
  </g>
</svg>
