<svg xmlns="http://www.w3.org/2000/svg" width="32" height="32" viewBox="0 0 32 32">
  <g fill="#363545" fill-rule="evenodd" transform="translate(6 9)">
    <text font-family="FontAwesome" font-size="14">
      <tspan x="8" y="12"></tspan>
    </text>
    <path d="M5.82289248,11.98125 C5.82289248,12.0478128 5.79535286,12.1143747 5.74027279,12.1809375 L3.10470458,14.8351172 C3.04962451,14.8850393 2.98628337,14.91 2.91467928,14.91 C2.8485832,14.91 2.78524207,14.8850393 2.72465399,14.8351172 L0.0808238084,12.1726172 C-0.00179629782,12.0838667 -0.0210740334,11.9867974 0.0229900232,11.8814062 C0.0670540799,11.7704682 0.149672947,11.715 0.270849103,11.715 L1.85714721,11.715 L1.85714721,0.26625 C1.85714721,0.188593362 1.88193287,0.124804937 1.93150493,0.0748828125 C1.981077,0.0249606879 2.04441813,0 2.12153023,0 L3.70782834,0 C3.78494044,0 3.84828157,0.0249606879 3.89785363,0.0748828125 C3.94742569,0.124804937 3.97221135,0.188593362 3.97221135,0.26625 L3.97221135,11.715 L5.55850946,11.715 C5.63562156,11.715 5.69896269,11.7399607 5.74853476,11.7898828 C5.79810682,11.8398049 5.82289248,11.9035934 5.82289248,11.98125 L5.82289248,11.98125 Z"/>
  </g>
</svg>
