<svg xmlns="http://www.w3.org/2000/svg" width="32" height="32" viewBox="0 0 32 32">
  <path fill="#363545" fill-rule="evenodd" d="M14.8228925,11.92875 C14.8228925,11.8621872 14.7953529,11.7956253 14.7402728,11.7290625 L12.1047046,9.07488281 C12.0496245,9.02496069 11.9862834,9 11.9146793,9 C11.8485832,9 11.7852421,9.02496069 11.724654,9.07488281 L9.08082381,11.7373828 C8.9982037,11.8261333 8.97892597,11.9232026 9.02299002,12.0285938 C9.06705408,12.1395318 9.14967295,12.195 9.2708491,12.195 L10.8571472,12.195 L10.8571472,23.64375 C10.8571472,23.7214066 10.8819329,23.7851951 10.9315049,23.8351172 C10.981077,23.8850393 11.0444181,23.91 11.1215302,23.91 L12.7078283,23.91 C12.7849404,23.91 12.8482816,23.8850393 12.8978536,23.8351172 C12.9474257,23.7851951 12.9722114,23.7214066 12.9722114,23.64375 L12.9722114,12.195 L14.5585095,12.195 C14.6356216,12.195 14.6989627,12.1700393 14.7485348,12.1201172 C14.7981068,12.0701951 14.8228925,12.0064066 14.8228925,11.92875 L14.8228925,11.92875 Z M21.7298988,21.9713672 L21.7298988,23.91 L16.9049087,23.91 L16.9049087,23.1611719 L19.9535754,18.7597266 C20.0196715,18.6598823 20.0775047,18.5850002 20.1270768,18.5350781 L20.2179584,18.4601953 L20.2179584,18.4352344 C20.2069424,18.4352344 20.1890417,18.4366211 20.1642556,18.4393945 C20.1394696,18.442168 20.1188149,18.4435547 20.1022909,18.4435547 C20.0361948,18.4601954 19.9535759,18.4685156 19.8544318,18.4685156 L17.9376549,18.4685156 L17.9376549,19.4253516 L16.9462186,19.4253516 L16.9462186,17.52 L21.6307552,17.52 L21.6307552,18.2605078 L18.5820885,22.6702734 C18.5490405,22.7146487 18.4912073,22.7867573 18.4085872,22.8866016 L18.3177055,22.978125 L18.3177055,22.9947656 L18.4333731,22.978125 C18.4829451,22.9670312 18.565564,22.9614844 18.6812321,22.9614844 L20.7302005,22.9614844 L20.7302005,21.9713672 L21.7298988,21.9713672 Z M18.5820885,13.3946875 L20.0444571,13.3946875 L19.4495953,11.5808594 L19.3504517,11.1898047 C19.3394356,11.1010542 19.3339277,11.045586 19.3339277,11.0233984 L19.3008798,11.0233984 L19.2760939,11.1898047 C19.2760939,11.1953516 19.2664551,11.245273 19.247177,11.3395703 C19.227899,11.4338677 19.2072443,11.5142965 19.1852123,11.5808594 L18.5820885,13.3946875 Z M22.4652141,15.5080469 L22.4652141,16.39 L20.0857669,16.39 L20.0857669,15.5080469 L20.7054146,15.5080469 L20.3171021,14.3099219 L18.3094435,14.3099219 L17.921131,15.5080469 L18.5407787,15.5080469 L18.5407787,16.39 L16.1695935,16.39 L16.1695935,15.5080469 L16.7479313,15.5080469 L18.6481843,10 L19.9866233,10 L21.8868762,15.5080469 L22.4652141,15.5080469 Z"/>
</svg>
