<svg id="Layer_1" data-name="Layer 1" xmlns="http://www.w3.org/2000/svg" width="32" height="32" viewBox="0 0 32 32"><title>tb_UploadCloud1_ai</title><path d="M24.3,13.2a1.952,1.952,0,0,0-.7.1A7.405,7.405,0,0,0,9.5,11.1H8.8a5.35,5.35,0,0,0,0,10.7H11a1.7,1.7,0,0,1,0-1H8.8a4.354,4.354,0,0,1-4.3-4.4,4.4,4.4,0,0,1,4.3-4.3L9,12h.3c.2,0,.3,0,.4.1a.713.713,0,0,0,.6-.3,6.513,6.513,0,0,1,8.3-3.7,6.391,6.391,0,0,1,4.1,5.7.472.472,0,0,0,.5.5h.1a3.083,3.083,0,0,1,1-.1,3.3,3.3,0,1,1,0,6.6H21a1.7,1.7,0,0,1,0,1h3.3a4.268,4.268,0,0,0,4.3-4.3A4.332,4.332,0,0,0,24.3,13.2Z" style="fill:#363545"/><path d="M14.7,15a1.48,1.48,0,0,1,2.1-.4c.2.1.3.3.4.4l3.6,5.4c.1.1.1.2.2.3h3.2a3.3,3.3,0,1,0,0-6.6,3.751,3.751,0,0,0-1,.1.486.486,0,0,1-.6-.3v-.1a6.329,6.329,0,0,0-6.7-6.1,6.282,6.282,0,0,0-5.7,4.1.486.486,0,0,1-.6.3c-.1,0-.3-.1-.4-.1H8.7a4.354,4.354,0,0,0-4.3,4.4,4.4,4.4,0,0,0,4.3,4.3H11c0-.1.1-.2.2-.3Z" style="fill:#eaeaef"/><path d="M14.4,20.7a.472.472,0,0,1,.5.5v3.1H17V21.2a.472.472,0,0,1,.5-.5h1.1l-2.7-4-2.7,4Z" style="fill:#005f9e"/><path d="M20,20.9l-3.6-5.4a.52.52,0,0,0-.4-.2h0a.52.52,0,0,0-.4.2L12,20.9a.494.494,0,0,0,.1.7.367.367,0,0,0,.3.1h1.5v3.1a.472.472,0,0,0,.5.5h3.1a.472.472,0,0,0,.5-.5V21.7h1.6a.472.472,0,0,0,.5-.5A.367.367,0,0,0,20,20.9Zm-2.9.3v3.1H15V21.2a.472.472,0,0,0-.5-.5H13.4l2.7-4,2.7,4H17.7C17.3,20.7,17,20.9,17.1,21.2Z" style="fill:#363545"/><rect width="32" height="32" style="fill:none"/></svg>