<?xml version="1.0" encoding="UTF-8" standalone="no"?>
<svg width="24px" height="24px" viewBox="0 0 24 24" version="1.1" xmlns="http://www.w3.org/2000/svg" xmlns:xlink="http://www.w3.org/1999/xlink" xmlns:sketch="http://www.bohemiancoding.com/sketch/ns">
    <!-- Generator: Sketch 3.3.3 (12072) - http://www.bohemiancoding.com/sketch -->
    <title>contours</title>
    <desc>Created with Sketch.</desc>
    <defs>
        <linearGradient x1="82.8008877%" y1="36.7968891%" x2="8.32562337%" y2="67.8703136%" id="linearGradient-1">
            <stop stop-color="#4A4A48" offset="0%"></stop>
            <stop stop-color="#EBECE5" offset="61.6435531%"></stop>
            <stop stop-color="#61615D" offset="76.022%"></stop>
            <stop stop-color="#C3C3BC" offset="100%"></stop>
        </linearGradient>
    </defs>
    <g id="Page-1-Icons-24x24" stroke="none" stroke-width="1" fill="none" fill-rule="evenodd" sketch:type="MSPage">
        <g id="contours" sketch:type="MSArtboardGroup">
            <g id="Group" sketch:type="MSLayerGroup" transform="translate(3.000000, 3.000000)">
                <path d="M0.355270386,4.83098555 L3.38080215,16.1084269 C3.38080215,16.1084269 4.79227066,15.5017435 5.90031052,15.3449626 C7.00835037,15.1881816 9.1656189,15.1535258 10.1534615,14.9424785 C11.141304,14.7314311 12.6122017,13.809318 13.4901466,13.2130107 C14.3680916,12.6167033 15.8455811,11.7161723 16.33564,11.4578105 C16.8256989,11.1994486 17.9647408,10.8337992 17.9647408,10.8337992 C17.9647408,10.8337992 17.177433,9.7002238 16.7023087,9.33353678 C16.2271843,8.96684977 15.2746696,8.68877363 14.5315475,7.78865767 C13.7884254,6.8885417 13.3584137,5.28223674 13.1499481,4.70221965 C12.9414825,4.12220256 12.2030983,2.07066447 12.2030983,2.07066447 C12.2030983,2.07066447 11.0255356,1.8898112 10.6006737,1.77214762 C10.1758118,1.65448405 8.48027802,0.586588545 7.00835037,0.798777262 C5.53642273,1.01096598 4.87518311,1.74413252 3.60430527,2.9041667 C2.33342743,4.06420088 1.86293793,4.45402632 0.355270386,4.83098555 Z" id="surface" fill="url(#linearGradient-1)" sketch:type="MSShapeGroup"></path>
                <g id="whiteline" transform="translate(0.667969, 1.257292)" stroke="#FFFFFF" stroke-width="1.43" sketch:type="MSShapeGroup">
                    <path d="M8.82971191,0.0096496582 C8.82971191,0.0096496582 8.54657468,2.02055547 6.84959793,2.45744629 C5.66389847,2.76270752 4.75469398,2.4601181 4.22472382,2.18860474 C3.69475365,1.91709137 3.43870354,1.30013357 3.43870354,1.30013357" id="Path-16861"></path>
                    <path d="M11.3617859,0.756097412 C11.3617859,0.756097412 9.5215416,3.75838623 8.60373688,4.3116333 C7.68593216,4.86488037 6.06342316,5.11224365 5.37159348,5.90859985 C4.67976379,6.70495605 3.72601318,11.0440857 3.72601318,11.0440857 L2.8914299,14.665094" id="Path-16862"></path>
                    <path d="M12.790094,4.76355896 C12.790094,4.76355896 12.2895813,4.64273071 11.8236237,4.89372559 C11.357666,5.14472046 10.0429115,6.12255241 9.35015488,6.41878662 C8.65739822,6.71502083 7.25756836,7.12269279 6.6557579,7.78032227 C6.05394745,8.43795174 5.37571335,9.94277946 5.49982452,10.9781982 C5.6239357,12.013617 6.4343661,13.1872956 6.85917661,13.4817658 C7.28398712,13.776236 7.33579453,13.9367524 7.33579453,13.9367524" id="Path-16863"></path>
                    <path d="M9.44697189,12.7784302 C8.79922485,13.0028625 7.97813416,12.818689 7.64493942,12.529303 C7.31174469,12.239917 6.89450455,11.4334961 7.1035881,10.9315063 C7.31267166,10.4295166 7.51413353,9.64976196 8.33007431,9.3781189 C9.14601509,9.10647583 10.1311799,8.84956665 10.5611916,9.30341187 C10.9912032,9.75725708 11.1290131,10.6562316 10.7566795,11.2438232 C10.3843459,11.8314148 10.0947189,12.5539978 9.44697189,12.7784302 Z" id="Path-16864"></path>
                    <path d="M13.8755264,6.51455688 C13.8755264,6.51455688 13.531517,6.92119141 13.4132767,7.12497559 C13.2950363,7.32875977 12.656868,9.92026367 12.4272881,10.6585144 C12.1977081,11.3967651 11.6186085,12.4792389 11.6186085,12.4792389 L11.7540493,12.7036194" id="Path-16865"></path>
                    <path d="M15.5384102,7.70748291 C15.5384102,7.70748291 14.7693329,8.69122925 14.5269814,9.30351562 C14.2846298,9.915802 14.2972469,10.7051025 14.2972469,10.7051025 L14.4233665,10.9718689" id="Path-16866"></path>
                    <path d="M0.0496444702,4.94747314 C0.0496444702,4.94747314 1.21291637,4.72368926 1.87343502,5.03237456 C2.53395367,5.34105986 2.94568348,5.93889765 2.6626997,6.73276362 C2.37971592,7.52662958 2.08560848,8.09001917 1.94581604,8.2699646 C1.8060236,8.44991003 1.15428543,8.84282227 1.15428543,8.84282227" id="Path-16867"></path>
                </g>
                <g id="redline" transform="translate(0.667969, 1.257292)" stroke="#DD3808" stroke-width="0.77" sketch:type="MSShapeGroup">
                    <path d="M8.82971191,0.0096496582 C8.82971191,0.0096496582 8.54657468,2.02055547 6.84959793,2.45744629 C5.66389847,2.76270752 4.75469398,2.4601181 4.22472382,2.18860474 C3.69475365,1.91709137 3.43870354,1.30013357 3.43870354,1.30013357" id="Path-16861"></path>
                    <path d="M11.3617859,0.756097412 C11.3617859,0.756097412 9.5215416,3.75838623 8.60373688,4.3116333 C7.68593216,4.86488037 6.06342316,5.11224365 5.37159348,5.90859985 C4.67976379,6.70495605 3.72601318,11.0440857 3.72601318,11.0440857 L2.8914299,14.665094" id="Path-16862"></path>
                    <path d="M12.8266064,4.74532318 C12.8266064,4.74532318 12.2895813,4.64273071 11.8236237,4.89372559 C11.357666,5.14472046 10.0429115,6.12255241 9.35015488,6.41878662 C8.65739822,6.71502083 7.25756836,7.12269279 6.6557579,7.78032227 C6.05394745,8.43795174 5.37571335,9.94277946 5.49982452,10.9781982 C5.6239357,12.013617 6.38034439,13.0094513 6.73542592,13.3441281 C7.09050746,13.6788048 7.1579704,13.8698269 7.1579704,13.8698269" id="Path-16863"></path>
                    <path d="M9.44697189,12.7784302 C8.79922485,13.0028625 7.97813416,12.818689 7.64493942,12.529303 C7.31174469,12.239917 6.89450455,11.4334961 7.1035881,10.9315063 C7.31267166,10.4295166 7.51413353,9.64976196 8.33007431,9.3781189 C9.14601509,9.10647583 10.1311799,8.84956665 10.5611916,9.30341187 C10.9912032,9.75725708 11.1290131,10.6562316 10.7566795,11.2438232 C10.3843459,11.8314148 10.0947189,12.5539978 9.44697189,12.7784302 Z" id="Path-16864"></path>
                    <path d="M13.8755264,6.51455688 C13.8755264,6.51455688 13.531517,6.92119141 13.4132767,7.12497559 C13.2950363,7.32875977 12.656868,9.92026367 12.4272881,10.6585144 C12.1977081,11.3967651 11.3976803,12.8412567 11.3976803,12.8412567" id="Path-16865"></path>
                    <path d="M15.5384102,7.70748291 C15.5384102,7.70748291 14.7693329,8.69122925 14.5269814,9.30351562 C14.2846298,9.915802 14.2582626,11.0529053 14.2582626,11.0529053" id="Path-16866"></path>
                    <path d="M0.0496444702,4.94747314 C0.0496444702,4.94747314 1.21291637,4.72368926 1.87343502,5.03237456 C2.53395367,5.34105986 2.94568348,5.93889765 2.6626997,6.73276362 C2.37971592,7.52662958 2.08560848,8.09001917 1.94581604,8.2699646 C1.8060236,8.44991003 1.15428543,8.84282227 1.15428543,8.84282227" id="Path-16867"></path>
                </g>
                <path d="M0.355270386,4.83098555 L3.38080215,16.1084269 C3.38080215,16.1084269 4.79227066,15.5017435 5.90031052,15.3449626 C7.00835037,15.1881816 9.1656189,15.1535258 10.1534615,14.9424785 C11.141304,14.7314311 12.6122017,13.809318 13.4901466,13.2130107 C14.3680916,12.6167033 15.8455811,11.7161723 16.33564,11.4578105 C16.8256989,11.1994486 17.9647408,10.8337992 17.9647408,10.8337992 C17.9647408,10.8337992 17.177433,9.7002238 16.7023087,9.33353678 C16.2271843,8.96684977 15.2746696,8.68877363 14.5315475,7.78865767 C13.7884254,6.8885417 13.3584137,5.28223674 13.1499481,4.70221965 C12.9414825,4.12220256 12.2030983,2.07066447 12.2030983,2.07066447 C12.2030983,2.07066447 11.0255356,1.8898112 10.6006737,1.77214762 C10.1758118,1.65448405 8.48027802,0.586588545 7.00835037,0.798777262 C5.53642273,1.01096598 4.87518311,1.74413252 3.60430527,2.9041667 C2.33342743,4.06420088 1.86293793,4.45402632 0.355270386,4.83098555 Z" id="Path-18951" stroke="#000000" stroke-width="0.5671875" sketch:type="MSShapeGroup"></path>
            </g>
        </g>
    </g>
</svg>