<?xml version="1.0" encoding="UTF-8" standalone="no"?>
<svg width="25px" height="24px" viewBox="0 0 25 24" version="1.1" xmlns="http://www.w3.org/2000/svg" xmlns:xlink="http://www.w3.org/1999/xlink" xmlns:sketch="http://www.bohemiancoding.com/sketch/ns">
    <!-- Generator: Sketch 3.3.3 (12072) - http://www.bohemiancoding.com/sketch -->
    <title>drape</title>
    <desc>Created with Sketch.</desc>
    <defs>
        <linearGradient x1="19.6652677%" y1="0%" x2="50%" y2="100%" id="linearGradient-1">
            <stop stop-color="#8C8C89" offset="0%"></stop>
            <stop stop-color="#ECEDE1" offset="56.0077756%"></stop>
            <stop stop-color="#686963" offset="100%"></stop>
        </linearGradient>
    </defs>
    <g id="Page-1-Icons-24x24" stroke="none" stroke-width="1" fill="none" fill-rule="evenodd" sketch:type="MSPage">
        <g id="drape" sketch:type="MSArtboardGroup" transform="translate(0.000000, 0.000000)">
            <g id="Group" sketch:type="MSLayerGroup" transform="translate(3.000000, 2.000000)">
                <path d="M0.355270386,8.38192753 L3.38080215,19.9910583 C3.38080215,19.9910583 4.79227066,19.3665313 5.90031052,19.2051392 C7.00835037,19.043747 9.1656189,19.0080719 10.1534615,18.7908173 C11.141304,18.5735627 12.6122017,17.6243286 13.4901466,17.0104828 C14.3680916,16.396637 15.8455811,15.4696198 16.33564,15.2036591 C16.8256989,14.9376984 17.9647408,14.5612946 17.9647408,14.5612946 C17.9647408,14.5612946 17.177433,13.3943787 16.7023087,13.0169067 C16.2271843,12.6394348 15.2746696,12.35318 14.5315475,11.42659 C13.7884254,10.5 13.3584137,8.84645081 13.1499481,8.24937439 C12.9414825,7.65229797 12.2030983,5.54042053 12.2030983,5.54042053 C12.2030983,5.54042053 11.0255356,5.35424805 10.6006737,5.23312378 C10.1758118,5.11199951 8.48027802,4.01269532 7.00835037,4.23112488 C5.53642273,4.44955444 4.87518311,5.2042847 3.60430527,6.39843754 C2.33342743,7.59259037 1.86293793,7.99388126 0.355270386,8.38192753 Z" id="surface" fill="url(#linearGradient-1)" sketch:type="MSShapeGroup"></path>
                <path d="M7.2636795,6.45568848 C7.72737122,6.45568848 9.2888031,7.04934692 9.96528625,8.12846375 C10.6417694,9.20758057 11.5459785,10.7140503 11.7954369,11.4239197 C12.0448952,12.1337891 12.2554207,12.7805328 12.1364594,13.3682098 C12.017498,13.9558868 11.5126076,15.5417175 11.0010223,16.0734253 C10.4894371,16.6051331 9.84405899,17.2247467 8.9155426,17.2247467 C7.98702621,17.2247467 7.05428696,16.2740173 6.34329987,15.5356293 C5.63231277,14.7972412 4.55558395,12.7058716 4.31601334,12.0065765 C4.07644272,11.3072815 3.72594452,9.95440674 4.66249466,8.78257751 C5.5990448,7.61074829 6.79998779,6.45568848 7.2636795,6.45568848 Z" id="whitepath" stroke="#FFFFFF" stroke-width="1.23984375" sketch:type="MSShapeGroup"></path>
                <path d="M7.2636795,6.45568848 C7.72737122,6.45568848 9.2888031,7.04934692 9.96528625,8.12846375 C10.6417694,9.20758057 11.5459785,10.7140503 11.7954369,11.4239197 C12.0448952,12.1337891 12.2554207,12.7805328 12.1364594,13.3682098 C12.017498,13.9558868 11.5126076,15.5417175 11.0010223,16.0734253 C10.4894371,16.6051331 9.84405899,17.2247467 8.9155426,17.2247467 C7.98702621,17.2247467 7.05428696,16.2740173 6.34329987,15.5356293 C5.63231277,14.7972412 4.55558395,12.7058716 4.31601334,12.0065765 C4.07644272,11.3072815 3.72594452,9.95440674 4.66249466,8.78257751 C5.5990448,7.61074829 6.79998779,6.45568848 7.2636795,6.45568848 Z" id="blackpath" stroke="#000000" stroke-width="0.575" sketch:type="MSShapeGroup"></path>
                <path d="M0.355270386,8.38192753 L3.38080215,19.9910583 C3.38080215,19.9910583 4.79227066,19.3665313 5.90031052,19.2051392 C7.00835037,19.043747 9.1656189,19.0080719 10.1534615,18.7908173 C11.141304,18.5735627 12.6122017,17.6243286 13.4901466,17.0104828 C14.3680916,16.396637 15.8455811,15.4696198 16.33564,15.2036591 C16.8256989,14.9376984 17.9647408,14.5612946 17.9647408,14.5612946 C17.9647408,14.5612946 17.177433,13.3943787 16.7023087,13.0169067 C16.2271843,12.6394348 15.2746696,12.35318 14.5315475,11.42659 C13.7884254,10.5 13.3584137,8.84645081 13.1499481,8.24937439 C12.9414825,7.65229797 12.2030983,5.54042053 12.2030983,5.54042053 C12.2030983,5.54042053 11.0255356,5.35424805 10.6006737,5.23312378 C10.1758118,5.11199951 8.48027802,4.01269532 7.00835037,4.23112488 C5.53642273,4.44955444 4.87518311,5.2042847 3.60430527,6.39843754 C2.33342743,7.59259037 1.86293793,7.99388126 0.355270386,8.38192753 Z" id="Path-18951" stroke="#000000" stroke-width="0.575" sketch:type="MSShapeGroup"></path>
                <path d="M3.09375,4.42974586 C3.09375,2.46834276 5.32738815,0.875 8.07721872,0.875 C10.8269087,0.875 13.0605469,2.46834276 13.0605469,4.42974586 C13.0605469,6.39113436 10.8269087,7.984375 8.07721872,7.984375 C5.32738815,7.984375 3.09375,6.39113436 3.09375,4.42974586 L3.09375,4.42974586 Z" id="Stroke-23098" stroke="#FFFFFF" stroke-width="1.7249991" stroke-linecap="round" stroke-linejoin="round" sketch:type="MSShapeGroup"></path>
                <path d="M3.09375,4.42974586 C3.09375,2.46834276 5.32738815,0.875 8.07721872,0.875 C10.8269087,0.875 13.0605469,2.46834276 13.0605469,4.42974586 C13.0605469,6.39113436 10.8269087,7.984375 8.07721872,7.984375 C5.32738815,7.984375 3.09375,6.39113436 3.09375,4.42974586 L3.09375,4.42974586 Z" id="Stroke-24470" stroke="#000000" stroke-width="0.575" stroke-linecap="round" stroke-linejoin="round" sketch:type="MSShapeGroup"></path>
            </g>
        </g>
    </g>
</svg>