<?xml version="1.0" encoding="UTF-8" standalone="no"?>
<svg width="24px" height="24px" viewBox="0 0 24 24" version="1.1" xmlns="http://www.w3.org/2000/svg" xmlns:xlink="http://www.w3.org/1999/xlink" xmlns:sketch="http://www.bohemiancoding.com/sketch/ns">
    <!-- Generator: Sketch 3.3.3 (12072) - http://www.bohemiancoding.com/sketch -->
    <title>flatterrain</title>
    <desc>Created with Sketch.</desc>
    <defs></defs>
    <g id="Page-1-Icons-24x24" stroke="none" stroke-width="1" fill="none" fill-rule="evenodd" sketch:type="MSPage">
        <g id="flatterrain" sketch:type="MSArtboardGroup">
            <g id="Group" sketch:type="MSLayerGroup" transform="translate(2.000000, 3.000000)">
                <path d="M1.8157959,4.91782379 L4.609375,16.0789719 L18.9145915,11.4758377 L13.3374023,1.9449234 L1.8157959,4.91782379 Z" id="Path-8917" stroke="#000000" stroke-width="0.671835907" fill="#A7A590" sketch:type="MSShapeGroup"></path>
                <path d="M5.70007324,3.91051483 L9.76155599,14.583252" id="Path-8918" stroke="#000000" stroke-width="0.3" sketch:type="MSShapeGroup"></path>
                <path d="M9.73734538,2.89043427 L14.4748942,13.0059586" id="Path-8919" stroke="#000000" stroke-width="0.3" sketch:type="MSShapeGroup"></path>
                <path d="M2.65075684,8.01370239 L14.950765,4.63787842" id="Path-8920" stroke="#000000" stroke-width="0.3" sketch:type="MSShapeGroup"></path>
                <path d="M3.5530599,11.8140793 L16.7502848,7.87733459" id="Path-8921" stroke="#000000" stroke-width="0.3" sketch:type="MSShapeGroup"></path>
                <path d="M2.02733398,4.36343365 C2.24088867,4.57964425 2.24088867,4.93012137 2.02733398,5.14633198 C1.8137793,5.36268101 1.4674707,5.36268101 1.25391602,5.14633198 C1.04036133,4.93012137 1.04036133,4.57964425 1.25391602,4.36343365 C1.4674707,4.14708462 1.8137793,4.14708462 2.02733398,4.36343365" id="Fill-18971" fill="#000000" sketch:type="MSShapeGroup"></path>
                <path d="M2.02733398,4.36335136 C2.24088867,4.57959068 2.24088867,4.93017495 2.02733398,5.14641426 C1.8137793,5.36265358 1.4674707,5.36265358 1.25391602,5.14641426 C1.04036133,4.93017495 1.04036133,4.57959068 1.25391602,4.36335136 C1.4674707,4.14711205 1.8137793,4.14711205 2.02733398,4.36335136" id="Stroke-18972" stroke="#000000" stroke-width="0.551249975" sketch:type="MSShapeGroup"></path>
                <path d="M19.2668248,11.11334 C19.4805028,11.3295641 19.4805028,11.6802015 19.2668248,11.8964257 C19.0532835,12.1126498 18.7071332,12.1126498 18.4935919,11.8964257 C18.2799138,11.6802015 18.2799138,11.3295641 18.4935919,11.11334 C18.7071332,10.8971158 19.0532835,10.8971158 19.2668248,11.11334" id="Fill-18975" fill="#000000" sketch:type="MSShapeGroup"></path>
                <path d="M19.2668248,11.11334 C19.4805028,11.3295641 19.4805028,11.6802015 19.2668248,11.8964257 C19.0532835,12.1126498 18.7071332,12.1126498 18.4935919,11.8964257 C18.2799138,11.6802015 18.2799138,11.3295641 18.4935919,11.11334 C18.7071332,10.8971158 19.0532835,10.8971158 19.2668248,11.11334" id="Stroke-18976" stroke="#000000" stroke-width="0.551249975" sketch:type="MSShapeGroup"></path>
                <path d="M4.27083333,14.90625 L1.92708333,5.88867188" id="Stroke-28823" stroke="#FB0011" stroke-width="0.826874962" stroke-linecap="round" stroke-linejoin="round" sketch:type="MSShapeGroup"></path>
                <path d="M5.4901362,15.2537371 C5.94773238,15.7171928 5.94773238,16.468354 5.4901362,16.9318098 C5.03254002,17.3951259 4.29051452,17.3951259 3.83278047,16.9318098 C3.37518429,16.468354 3.37518429,15.7171928 3.83278047,15.2537371 C4.29051452,14.790421 5.03254002,14.790421 5.4901362,15.2537371" id="Fill-28824" fill="#FB0011" sketch:type="MSShapeGroup"></path>
                <path d="M5.4901362,15.2537371 C5.94773238,15.7171928 5.94773238,16.468354 5.4901362,16.9318098 C5.03254002,17.3951259 4.29051452,17.3951259 3.83278047,16.9318098 C3.37518429,16.468354 3.37518429,15.7171928 3.83278047,15.2537371 C4.29051452,14.790421 5.03254002,14.790421 5.4901362,15.2537371" id="Stroke-28825" stroke="#FB0011" stroke-width="0.826874962" sketch:type="MSShapeGroup"></path>
                <path d="M2.48450453,4.00590315 C2.92183182,4.44866985 2.92183182,5.16656453 2.48450453,5.60933123 C2.04717723,6.05209792 1.33810191,6.05209792 0.900912138,5.60933123 C0.463584843,5.16656453 0.463584843,4.44866985 0.900912138,4.00590315 C1.33810191,3.56313645 2.04717723,3.56313645 2.48450453,4.00590315" id="Fill-28826" fill="#FB0011" sketch:type="MSShapeGroup"></path>
                <path d="M2.48450453,4.00590876 C2.92183182,4.44868293 2.92183182,5.16656189 2.48450453,5.60933606 C2.04717723,6.05209631 1.33810191,6.05209631 0.900912138,5.60933606 C0.463584843,5.16656189 0.463584843,4.44868293 0.900912138,4.00590876 C1.33810191,3.56313458 2.04717723,3.56313458 2.48450453,4.00590876" id="Stroke-28827" stroke="#FB0011" stroke-width="0.826874962" sketch:type="MSShapeGroup"></path>
                <path d="M12.1354167,2.25 L2.76041667,4.5703125" id="Stroke-30520" stroke="#FB0011" stroke-width="0.826874962" stroke-linecap="round" stroke-linejoin="round" sketch:type="MSShapeGroup"></path>
                <path d="M14.2400479,1.06827959 C14.6977618,1.53157528 14.6977618,2.28284295 14.2400479,2.74627823 C13.7824719,3.20957392 13.0404792,3.20957392 12.5827653,2.74627823 C12.1251893,2.28284295 12.1251893,1.53157528 12.5827653,1.06827959 C13.0404792,0.604844305 13.7824719,0.604844305 14.2400479,1.06827959" id="Fill-30521" fill="#FB0011" sketch:type="MSShapeGroup"></path>
                <path d="M14.2400479,1.06823286 C14.6977618,1.53159188 14.6977618,2.28285775 14.2400479,2.74623073 C13.7824719,3.20958976 13.0404792,3.20958976 12.5827653,2.74623073 C12.1251893,2.28285775 12.1251893,1.53159188 12.5827653,1.06823286 C13.0404792,0.60485988 13.7824719,0.60485988 14.2400479,1.06823286" id="Stroke-30522" stroke="#FB0011" stroke-width="0.826874962" sketch:type="MSShapeGroup"></path>
                <path d="M2.48452467,4.00590315 C2.92182511,4.44866985 2.92182511,5.16656453 2.48452467,5.60933123 C2.04722423,6.05209792 1.33819244,6.05209792 0.900891998,5.60933123 C0.463591556,5.16656453 0.463591556,4.44866985 0.900891998,4.00590315 C1.33819244,3.56313645 2.04722423,3.56313645 2.48452467,4.00590315" id="Fill-30523" fill="#FB0011" sketch:type="MSShapeGroup"></path>
                <path d="M2.48452467,4.00590876 C2.92182511,4.44868293 2.92182511,5.16656189 2.48452467,5.60933606 C2.04722423,6.05209631 1.33819244,6.05209631 0.900891998,5.60933606 C0.463591556,5.16656189 0.463591556,4.44868293 0.900891998,4.00590876 C1.33819244,3.56313458 2.04722423,3.56313458 2.48452467,4.00590876" id="Stroke-30524" stroke="#FB0011" stroke-width="0.826874962" sketch:type="MSShapeGroup"></path>
            </g>
        </g>
    </g>
</svg>