<?xml version="1.0" encoding="UTF-8" standalone="no"?>
<svg width="24px" height="24px" viewBox="0 0 24 24" version="1.1" xmlns="http://www.w3.org/2000/svg" xmlns:xlink="http://www.w3.org/1999/xlink" xmlns:sketch="http://www.bohemiancoding.com/sketch/ns">
    <!-- Generator: Sketch 3.3.3 (12072) - http://www.bohemiancoding.com/sketch -->
    <title>flipper</title>
    <desc>Created with Sketch.</desc>
    <defs></defs>
    <g id="Page-1-Icons-24x24" stroke="none" stroke-width="1" fill="none" fill-rule="evenodd" sketch:type="MSPage">
        <g id="flipper" sketch:type="MSArtboardGroup">
            <g id="Group" sketch:type="MSLayerGroup" transform="translate(1.000000, 2.000000)">
                <path d="M7.05810394,2.27509689 L16.9308441,17.8033104 L19.8152496,2.93880844 L7.05810394,2.27509689 Z" id="Path-18793" fill="#5F5E52" sketch:type="MSShapeGroup"></path>
                <path d="M2.55988007,13.9360886 L16.9945419,17.8191719 L7.05062866,2.29363632 L2.55988007,13.9360886 Z" id="Path-18791" fill="#A4A28E" sketch:type="MSShapeGroup"></path>
                <path d="M7.11064148,2.31413269 L19.9067429,2.90378952 L16.921579,17.7792091 L2.49386597,13.9266129 L7.11064148,2.31413269 Z" id="Path-18790" stroke="#000000" stroke-width="0.59296875" sketch:type="MSShapeGroup"></path>
                <path d="M7.1706543,2.42536926 L16.8175568,17.7286377" id="Path-18779" stroke="#000000" stroke-width="0.575" sketch:type="MSShapeGroup"></path>
                <path d="M18.9929687,3.375 L3.14453125,13.4472656" id="Stroke-23302" stroke="#FB0011" stroke-width="0.575" stroke-linecap="round" stroke-linejoin="round" sketch:type="MSShapeGroup"></path>
                <path d="M20.3496352,2.20603466 C20.6969966,2.5458517 20.6969966,3.09672643 20.3496352,3.43654347 C20.0022737,3.77636051 19.439024,3.77636051 19.0916625,3.43654347 C18.7444458,3.09672643 18.7444458,2.5458517 19.0916625,2.20603466 C19.439024,1.86621761 20.0022737,1.86621761 20.3496352,2.20603466" id="Fill-23303" fill="#FB0011" sketch:type="MSShapeGroup"></path>
                <path d="M20.3496352,2.20602999 C20.6969966,2.54582664 20.6969966,3.09676211 20.3496352,3.43655876 C20.0022737,3.77635541 19.439024,3.77635541 19.0916625,3.43655876 C18.7444458,3.09676211 18.7444458,2.54582664 19.0916625,2.20602999 C19.439024,1.86621917 20.0022737,1.86621917 20.3496352,2.20602999" id="Stroke-23304" stroke="#FB0011" stroke-width="0.575" sketch:type="MSShapeGroup"></path>
                <path d="M3.02998552,13.1901806 C3.39833816,13.5505256 3.39833816,14.1349148 3.02998552,14.4952598 C2.66163289,14.8557467 2.06425722,14.8557467 1.69590458,14.4952598 C1.32740681,14.1349148 1.32740681,13.5505256 1.69590458,13.1901806 C2.06425722,12.8298356 2.66163289,12.8298356 3.02998552,13.1901806" id="Fill-23305" fill="#FB0011" sketch:type="MSShapeGroup"></path>
                <path d="M3.02998552,13.1901806 C3.39833816,13.5505256 3.39833816,14.1349148 3.02998552,14.4952598 C2.66163289,14.8557467 2.06425722,14.8557467 1.69590458,14.4952598 C1.32740681,14.1349148 1.32740681,13.5505256 1.69590458,13.1901806 C2.06425722,12.8298356 2.66163289,12.8298356 3.02998552,13.1901806" id="Stroke-23306" stroke="#FB0011" stroke-width="0.575" sketch:type="MSShapeGroup"></path>
            </g>
        </g>
    </g>
</svg>