<?xml version="1.0" encoding="UTF-8" standalone="no"?>
<svg width="24px" height="24px" viewBox="0 0 24 24" version="1.1" xmlns="http://www.w3.org/2000/svg" xmlns:xlink="http://www.w3.org/1999/xlink" xmlns:sketch="http://www.bohemiancoding.com/sketch/ns">
    <!-- Generator: Sketch 3.3.3 (12072) - http://www.bohemiancoding.com/sketch -->
    <title>smoove</title>
    <desc>Created with Sketch.</desc>
    <defs>
        <linearGradient x1="50%" y1="0%" x2="50%" y2="100%" id="linearGradient-1">
            <stop stop-color="#EAE7CA" offset="0%"></stop>
            <stop stop-color="#8C8A7B" offset="75.9797696%"></stop>
            <stop stop-color="#E7E4C5" offset="100%"></stop>
        </linearGradient>
    </defs>
    <g id="Page-1-Icons-24x24" stroke="none" stroke-width="1" fill="none" fill-rule="evenodd" sketch:type="MSPage">
        <g id="smoove" sketch:type="MSArtboardGroup">
            <g id="Group" sketch:type="MSLayerGroup" transform="translate(2.000000, 3.000000)">
                <path d="M0.424092611,10.8418922 C2.09182739,11.6657639 3.30362956,12.6613313 3.87786865,13.0813523 C4.45210775,13.5013734 6.4402771,15.1288262 9.74304199,16.1233635 C11.3987672,16.6219398 13.4803263,17.9389915 13.4803263,17.9389915 C13.4803263,17.9389915 14.2459106,16.5064595 14.5876058,15.9163907 C14.9293009,15.3263218 15.6997681,14.3303433 15.9516398,13.8643857 C16.2035116,13.398428 18.2362874,9.21134949 18.4747314,8.7599144 C18.7131755,8.30847931 19.3637085,7.05655289 19.3637085,7.05655289 C19.3637085,7.05655289 17.6898193,5.95922479 17.350057,5.6219101 C16.6542942,4.93115967 14.7132365,2.76482962 12.8607178,2.26565552 C11.0081991,1.76648142 10.1966349,2.26565551 9.24972534,2.32158279 C8.30281576,2.37751006 7.0509847,2.45609665 7.0509847,2.45609665 C7.0509847,2.45609665 6.46728516,2.78393553 5.71217855,3.25164413 C5.35202026,3.73722276 4.53826904,5.01824578 3.55977376,6.94109344 C2.99041748,7.72211846 2.52100627,8.44628923 2.04869588,9.00000009 C1.5763855,9.55371094 0.924733473,10.3453961 0.424092611,10.8418922 Z" id="meshcolor" fill="url(#linearGradient-1)" sketch:type="MSShapeGroup"></path>
                <path d="M0.424092611,10.8418922 C2.09182739,11.6657639 3.30362956,12.6613313 3.87786865,13.0813523 C4.45210775,13.5013734 6.4402771,15.1288262 9.74304199,16.1233635 C11.3987672,16.6219398 13.4803263,17.9389915 13.4803263,17.9389915 C13.4803263,17.9389915 14.2459106,16.5064595 14.5876058,15.9163907 C14.9293009,15.3263218 15.6997681,14.3303433 15.9516398,13.8643857 C16.2035116,13.398428 18.2362874,9.21134949 18.4747314,8.7599144 C18.7131755,8.30847931 19.3637085,7.05655289 19.3637085,7.05655289 C19.3637085,7.05655289 17.6898193,5.95922479 17.350057,5.6219101 C16.6542942,4.93115967 14.7132365,2.76482962 12.8607178,2.26565552 C11.0081991,1.76648142 10.1966349,2.26565551 9.24972534,2.32158279 C8.30281576,2.37751006 7.0509847,2.45609665 7.0509847,2.45609665 C7.0509847,2.45609665 6.46728516,2.78393553 5.71217855,3.25164413 C5.35202026,3.73722276 4.53826904,5.01824578 3.55977376,6.94109344 C2.99041748,7.72211846 2.52100627,8.44628923 2.04869588,9.00000009 C1.5763855,9.55371094 0.924733473,10.3453961 0.424092611,10.8418922 Z" id="Meshoutline" stroke="#000000" stroke-width="0.55" sketch:type="MSShapeGroup"></path>
                <path d="M8.61633301,2.44517899 L7.51413981,3.36391068 L6.34724935,5.91184616 L5.27191162,8.902565 L3.90034993,10.6286888 L2.2458903,11.8474503" id="Path-18896" stroke="#000000" stroke-width="0.3" sketch:type="MSShapeGroup"></path>
                <path d="M11.5090942,2.11785507 L10.6856283,2.66425323 L9.49544271,5.10084915 L8.43271891,8.57534409 L7.32554118,11.4869614 L6.04370117,12.829834 L4.47316488,13.4425621" id="Path-18897" stroke="#000000" stroke-width="0.3" sketch:type="MSShapeGroup"></path>
                <path d="M13.7872314,2.55878448 L12.7109782,3.98673248 L11.4551799,7.25791168 L10.3412882,10.8750572 L9.29199219,13.3525429 L8.12784831,14.3748894 L6.53035482,14.8577385" id="Path-18898" stroke="#000000" stroke-width="0.3" sketch:type="MSShapeGroup"></path>
                <path d="M15.585734,3.87034607 L14.6254476,5.57865143 L13.3821615,8.59573746 L12.1456909,11.6383667 L11.0847982,13.7649422 L10.0355021,14.8645363 L8.58083089,15.783268" id="Path-18899" stroke="#000000" stroke-width="0.3" sketch:type="MSShapeGroup"></path>
                <path d="M17.4817912,5.61779022 L16.5098063,7.44062805 L15.3765869,9.70037842 L14.2752075,12.0147171 L13.2964071,13.8267403 L12.1892293,15.0658951 L11.0098267,16.5142365" id="Path-18900" stroke="#000000" stroke-width="0.3" sketch:type="MSShapeGroup"></path>
                <path d="M8.94897461,2.41386795 L10.6883748,2.70019913 L12.722168,4.00310898 L14.6537272,5.62551498 L16.5349325,7.50294113 L18.5234578,8.79400635" id="Path-18901" stroke="#000000" stroke-width="0.3" sketch:type="MSShapeGroup"></path>
                <path d="M5.90901693,3.22888184 L7.53072103,3.41849899 L9.45638021,5.08684158 L11.4457194,7.3093071 L13.3687337,8.65805054 L15.4160563,9.73498535 L17.4691772,10.7904968" id="Path-18902" stroke="#000000" stroke-width="0.3" sketch:type="MSShapeGroup"></path>
                <path d="M4.57773844,5.09363937 L6.40014648,5.92914963 L8.44573975,8.58080292 L10.3511556,10.9010124 L12.1340942,11.6837883 L14.2980957,12.0747643 L16.3917033,12.8897781" id="Path-18903" stroke="#000000" stroke-width="0.3" sketch:type="MSShapeGroup"></path>
                <path d="M3.35164388,7.33752823 L5.31677246,8.90215302 L7.33815511,11.5615311 L9.27541097,13.3948746 L11.0843913,13.8171616 L13.3373006,13.8290062 L15.5265299,14.4808731" id="Path-18904" stroke="#000000" stroke-width="0.3" sketch:type="MSShapeGroup"></path>
                <path d="M2.00469971,9.2012558 L3.94877116,10.7123222 L6.11104329,12.862587 L8.15073649,14.3727264 L9.98575846,14.9200516 L12.2117106,15.1163635 L14.5688883,15.8523788" id="Path-18905" stroke="#000000" stroke-width="0.3" sketch:type="MSShapeGroup"></path>
                <path d="M11.7448194,7.05507558 L11.7448194,4.66915445 L13.0208333,4.6693652 L10.4685976,0.140625 L7.91666667,4.66946354 L9.19258363,4.6693652 L9.19258363,7.05517393 L7.91666667,7.05517393 L10.4687084,11.5839844 L13.0208333,7.05507558 L11.7448194,7.05507558" id="Stroke-22482" stroke="#FFFFFF" stroke-width="1.64999914" stroke-linecap="round" stroke-linejoin="round" sketch:type="MSShapeGroup"></path>
                <path d="M11.7448194,7.05505597 L11.7448194,4.66913191 L13.0208333,4.66941291 L10.4685976,0.140625 L7.91666667,4.66941291 L9.19258363,4.66941291 L9.19258363,7.05519647 L7.91666667,7.05519647 L10.4687084,11.5839844 L13.0208333,7.05505597 L11.7448194,7.05505597" id="Fill-23295" fill="#FB0011" sketch:type="MSShapeGroup"></path>
                <path d="M11.7448194,7.05507558 L11.7448194,4.66915445 L13.0208333,4.6693652 L10.4685976,0.140625 L7.91666667,4.66946354 L9.19258363,4.6693652 L9.19258363,7.05517393 L7.91666667,7.05517393 L10.4687084,11.5839844 L13.0208333,7.05507558 L11.7448194,7.05507558" id="Stroke-23296" stroke="#000000" stroke-width="0.55" stroke-linecap="round" stroke-linejoin="round" sketch:type="MSShapeGroup"></path>
            </g>
        </g>
    </g>
</svg>