<?xml version="1.0" encoding="UTF-8" standalone="no"?>
<svg width="25px" height="24px" viewBox="0 0 25 24" version="1.1" xmlns="http://www.w3.org/2000/svg" xmlns:xlink="http://www.w3.org/1999/xlink" xmlns:sketch="http://www.bohemiancoding.com/sketch/ns">
    <!-- Generator: Sketch 3.3.2 (12043) - http://www.bohemiancoding.com/sketch -->
    <title>tb_actadd</title>
    <desc>Created with Sketch.</desc>
    <defs>
        <linearGradient x1="50%" y1="0%" x2="79.0953927%" y2="104.902302%" id="linearGradient-1">
            <stop stop-color="#939393" offset="0%"></stop>
            <stop stop-color="#C4C4C4" offset="10.1194864%"></stop>
            <stop stop-color="#191919" offset="47.769027%"></stop>
            <stop stop-color="#ACACAC" offset="100%"></stop>
        </linearGradient>
        <linearGradient x1="50%" y1="0%" x2="50%" y2="100%" id="linearGradient-2">
            <stop stop-color="#878787" offset="0%"></stop>
            <stop stop-color="#000000" offset="100%"></stop>
        </linearGradient>
        <linearGradient x1="88.4695984%" y1="-1.03220351%" x2="16.1762818%" y2="102.271722%" id="linearGradient-3">
            <stop stop-color="#1C1C1C" offset="0%"></stop>
            <stop stop-color="#696868" offset="14.0983737%"></stop>
            <stop stop-color="#B5B5B5" offset="57.3321907%"></stop>
            <stop stop-color="#818080" offset="79.9306441%"></stop>
            <stop stop-color="#000000" offset="100%"></stop>
        </linearGradient>
        <linearGradient x1="103.07241%" y1="-2.00664864%" x2="6.20320231%" y2="126.527378%" id="linearGradient-4">
            <stop stop-color="#2B2B2B" offset="0%"></stop>
            <stop stop-color="#969696" offset="49.574556%"></stop>
            <stop stop-color="#000000" offset="100%"></stop>
        </linearGradient>
        <linearGradient x1="60.2658055%" y1="-3.43113156%" x2="10.2378046%" y2="92.8508801%" id="linearGradient-5">
            <stop stop-color="#4E4E4E" offset="0%"></stop>
            <stop stop-color="#4F4F4F" offset="24.7287725%"></stop>
            <stop stop-color="#888888" offset="46.7019285%"></stop>
            <stop stop-color="#505050" offset="69.5761397%"></stop>
            <stop stop-color="#515151" offset="100%"></stop>
        </linearGradient>
        <linearGradient x1="50%" y1="18.3831228%" x2="61.1939071%" y2="73.9842529%" id="linearGradient-6">
            <stop stop-color="#BFBFBF" offset="0%"></stop>
            <stop stop-color="#EBEBEB" offset="43.7778594%"></stop>
            <stop stop-color="#717171" offset="100%"></stop>
        </linearGradient>
        <linearGradient x1="27.9128528%" y1="-6.50828955%" x2="69.6081176%" y2="102.711176%" id="linearGradient-7">
            <stop stop-color="#FFFFFF" offset="0%"></stop>
            <stop stop-color="#AAAAAA" offset="25.3388877%"></stop>
            <stop stop-color="#B8B8B8" offset="50.9713911%"></stop>
            <stop stop-color="#858383" offset="100%"></stop>
        </linearGradient>
        <linearGradient x1="20.6073901%" y1="0%" x2="85.2280947%" y2="104.50566%" id="linearGradient-8">
            <stop stop-color="#D4D4D4" offset="0%"></stop>
            <stop stop-color="#A4A4A4" offset="22.8100812%"></stop>
            <stop stop-color="#CACACA" offset="56.4423258%"></stop>
            <stop stop-color="#525252" offset="100%"></stop>
        </linearGradient>
        <linearGradient x1="50%" y1="0%" x2="50%" y2="100%" id="linearGradient-9">
            <stop stop-color="#A9A9A9" offset="0%"></stop>
            <stop stop-color="#000000" offset="100%"></stop>
        </linearGradient>
        <linearGradient x1="-6.32040523%" y1="0%" x2="100%" y2="106.447522%" id="linearGradient-10">
            <stop stop-color="#3A3A3A" offset="0%"></stop>
            <stop stop-color="#7B7B7B" offset="49.6259055%"></stop>
            <stop stop-color="#000000" offset="100%"></stop>
        </linearGradient>
        <linearGradient x1="-16.0481357%" y1="6.9833389%" x2="112.30232%" y2="115.945595%" id="linearGradient-11">
            <stop stop-color="#444444" offset="0%"></stop>
            <stop stop-color="#8E8E8E" offset="44.2305963%"></stop>
            <stop stop-color="#000000" offset="100%"></stop>
        </linearGradient>
        <linearGradient x1="50%" y1="0%" x2="62.6943517%" y2="100%" id="linearGradient-12">
            <stop stop-color="#000000" offset="0%"></stop>
            <stop stop-color="#424141" offset="49.0051122%"></stop>
            <stop stop-color="#000000" offset="100%"></stop>
        </linearGradient>
        <linearGradient x1="20.5867959%" y1="-6.7352835%" x2="80.3773308%" y2="100%" id="linearGradient-13">
            <stop stop-color="#595959" offset="0%"></stop>
            <stop stop-color="#000000" offset="100%"></stop>
        </linearGradient>
        <linearGradient x1="27.0280271%" y1="-3.7407497%" x2="70.2844518%" y2="98.6544135%" id="linearGradient-14">
            <stop stop-color="#515151" offset="0%"></stop>
            <stop stop-color="#505050" offset="50.1856383%"></stop>
            <stop stop-color="#232323" offset="100%"></stop>
        </linearGradient>
        <linearGradient x1="50%" y1="0%" x2="50%" y2="100%" id="linearGradient-15">
            <stop stop-color="#4C4C4C" offset="0%"></stop>
            <stop stop-color="#3D3C3C" offset="55.3307935%"></stop>
            <stop stop-color="#4C4C4C" offset="100%"></stop>
        </linearGradient>
        <linearGradient x1="50%" y1="0%" x2="50%" y2="100%" id="linearGradient-16">
            <stop stop-color="#818181" offset="0%"></stop>
            <stop stop-color="#AAAAAA" offset="51.9725905%"></stop>
            <stop stop-color="#373737" offset="100%"></stop>
        </linearGradient>
        <linearGradient x1="43.041345%" y1="0.486596563%" x2="56.958655%" y2="99.5134034%" id="linearGradient-17">
            <stop stop-color="#4C4C4C" offset="0%"></stop>
            <stop stop-color="#3D3C3C" offset="55.3307935%"></stop>
            <stop stop-color="#4C4C4C" offset="100%"></stop>
        </linearGradient>
        <linearGradient x1="43.041345%" y1="0.486596563%" x2="56.958655%" y2="99.5134034%" id="linearGradient-18">
            <stop stop-color="#818181" offset="0%"></stop>
            <stop stop-color="#AAAAAA" offset="51.9725905%"></stop>
            <stop stop-color="#373737" offset="100%"></stop>
        </linearGradient>
    </defs>
    <g id="Page-1" stroke="none" stroke-width="1" fill="none" fill-rule="evenodd" sketch:type="MSPage">
        <g id="tb_actadd" sketch:type="MSArtboardGroup" transform="translate(0.000000, 0.000000)">
            <g id="Group" sketch:type="MSLayerGroup" transform="translate(3.000000, 3.000000)">
                <g id="camera" transform="translate(0.468750, 0.562500)" sketch:type="MSShapeGroup">
                    <path d="M14.0093648,16.6875 L13.6795094,16.5415154 L13.431592,16.2217067 L13.2884134,15.7438784 L13.265625,15.1389632 L13.3688488,14.4519575 L13.5918743,13.7378262 L13.9169592,13.0552787 L14.3164319,12.4598061 L14.7567232,11.9968431 L15.2023486,11.6979484 L15.6199267,11.578125 L15.9812601,11.6373855 L16.2646122,11.8625928 L16.4556339,12.2314179 L16.546875,12.714769 L16.5364074,13.2801479 L16.427787,13.8929278 L16.2286392,14.5182435 L15.950333,15.1211675 L15.6078564,15.6677865 L15.2194774,16.1254898 L14.80677,16.4643089 L14.3944006,16.6581828 L14.0093648,16.6875 M16.4528417,12.8021443 L16.3661206,12.3495256 L16.1857169,12.0054091 L15.9189677,11.7967075 L15.579997,11.7439341 L15.1890011,11.8585603 L14.7727753,12.1399724 L14.7559219,12.1577305 L14.6072591,12.3146981 L14.3621338,12.5733929 L13.9899947,13.1295672 L13.6872474,13.7660788 L13.4790969,14.4317698 L13.3822714,15.0726771 L13.3828098,15.0888197 L13.3828975,15.0922511 L13.3986866,15.5357028 L13.4023677,15.6379434 L13.5346279,16.0857407 L13.7648781,16.3868645 L14.0723959,16.5260114 L14.4322769,16.5011902 L14.8185649,16.3216805 L15.2059672,16.0053909 L15.5710694,15.5764538 L15.8932745,15.0632345 L16.1550778,14.496503 L16.3422304,13.9086196 L16.4439141,13.3327084 L16.4528417,12.8021443" id="Fill-8855" fill="#2C2C2C"></path>
                    <path id="Fill-8867" fill="#ECECEC" d="M5.19336444,10.4356499 L5.21291542,10.4716129 L5.19336444,10.4845546 L4.875,10.59375 L4.88058275,10.4416507 L4.91677817,10.2830194 L4.97042084,10.2094631 L5.08701897,10.3043003 L5.18268585,10.4187756"></path>
                    <path id="Fill-8903" fill="#ECECEC" d="M5.2283895,11.4766892 L5.11895286,11.3406787 L5.109375,11.3234645 L5.4375,11.203125 L5.42914248,11.3842595 L5.38947509,11.5441224 L5.36976467,11.578125 L5.34474142,11.5690257 L5.2283895,11.4766892"></path>
                    <path d="M4.99423599,10.2247581 C4.99423599,10.2247581 4.88291931,10.1672745 4.84513092,10.1672745 C4.80734253,10.1672745 4.71936035,10.1677322 4.67768097,10.1909637 C4.63600159,10.2141953 4.595438,10.2752495 4.56753159,10.3446808 C4.53962517,10.4141121 4.53282166,10.4581604 4.53282166,10.5040741 C4.53282166,10.5499878 4.54705811,10.6104012 4.54705811,10.670208 C4.54705811,10.7300148 4.6027565,10.9948769 4.62892914,11.087059 C4.65510178,11.1792412 4.74989319,11.4258957 4.8042984,11.4819031 C4.85870361,11.5379105 4.95859909,11.6198845 5.02386475,11.6547432 C5.0891304,11.6896019 5.22454834,11.6931839 5.26667404,11.6619186 C5.30879974,11.6306534 5.37773895,11.5326118 5.37773895,11.5326118 C5.37773895,11.5326118 5.28065872,11.4761353 5.25156784,11.4499741 C5.22247696,11.4238129 5.11206436,11.2952042 5.07958603,11.222477 C5.0471077,11.1497498 4.89300156,10.6585464 4.89300156,10.5552979 C4.89300156,10.4520493 4.90538406,10.3903427 4.92709351,10.338707 C4.94880295,10.2870712 4.99423599,10.2247581 4.99423599,10.2247581 Z" id="Path-3639" fill="url(#linearGradient-1)"></path>
                    <path d="M4.27390573,10.2771066 C4.28899118,10.1522506 4.30127698,10.1165764 4.32874842,10.036055 C4.35621985,9.9555337 4.36415689,9.91987121 4.42759264,9.85178148 C4.55249978,9.71771049 4.58686302,9.75480149 4.66440037,9.74170344 C4.68949631,9.73746409 4.71078463,9.73600364 4.72471045,9.73762036 C4.78166197,9.74423218 5.01448057,9.79726422 5.11255788,9.88506692 C5.2106352,9.97286963 5.20960005,9.97183459 5.29860584,10.092518 C5.38761164,10.2132015 5.39004152,10.2172807 5.46353356,10.3609567 C5.53702561,10.5046327 5.54143894,10.5156206 5.59456399,10.6711125 C5.64768903,10.8266044 5.65225516,10.8445162 5.68189262,11.0000725 C5.71153008,11.1556288 5.71875,11.3229198 5.71875,11.3229198 L5.70302535,11.6157586 L5.63646724,11.857516 L5.52487094,12.0317321 L5.3772166,12.1276436 L5.20447027,12.140625 L5.01894688,12.0720124 L4.83307378,11.9281956 L4.65870377,11.7200009 L4.47050858,11.380806 L4.69250107,11.2927666 L4.7727231,11.4298088 C4.7727231,11.4298088 4.82769956,11.5068069 4.88333271,11.5603417 C4.93896585,11.6138764 4.94462565,11.6181182 5.00077423,11.6492583 C5.05692282,11.6803984 5.06397829,11.6828844 5.11724156,11.6900679 C5.17050482,11.6972514 5.18141324,11.6948417 5.2248661,11.6794811 C5.26831896,11.6641206 5.30823547,11.6225518 5.30823547,11.6225518 C5.30823547,11.6225518 5.35604644,11.5721409 5.38458558,11.5066766 C5.41312472,11.4412123 5.41352445,11.422411 5.42477774,11.3552222 C5.43603102,11.2880334 5.43457507,11.2919519 5.43349457,11.2146606 C5.43241406,11.1373694 5.43343749,11.1506851 5.4206561,11.0603921 C5.40787471,10.9700991 5.40567973,10.9637191 5.38655897,10.8830882 C5.36743821,10.8024573 5.38173281,10.828785 5.34146118,10.7264328 C5.30118955,10.6240806 5.28430747,10.600212 5.24924618,10.5341015 C5.21418489,10.467991 5.22786273,10.4822684 5.17370791,10.4101224 C5.11955309,10.3379764 5.11584257,10.3344775 5.05711555,10.2874775 C4.99838854,10.2404775 4.91912846,10.181296 4.85664368,10.1720409 C4.79415889,10.1627859 4.76153485,10.1601992 4.71561976,10.181296 C4.66970468,10.2023928 4.66532372,10.2056805 4.62839105,10.2508035 C4.59145837,10.2959264 4.59035337,10.297438 4.56509277,10.365204 C4.53983218,10.4329701 4.54416847,10.5185852 4.54416847,10.585865 C4.54416847,10.6531448 4.56509276,10.8155479 4.56509276,10.8155479 L4.47050858,10.8550987 L4.31403351,10.921875 C4.31403351,10.921875 4.27426738,10.6973663 4.265625,10.5585016 C4.25698262,10.4196368 4.25882029,10.4019627 4.27390573,10.2771066 Z" id="Fill-8863" fill="#ECECEC"></path>
                    <path d="M10.9016189,9.79349487 L10.8998996,9.82469356 L11.6344299,9.91593933 L12.5200081,9.85832089 L13.3125,9.5625 L13.0036469,14.1169281 L11.7820163,14.9008142 L10.218338,15.6734619 L10.3547058,9.97927965 L10.9016189,9.79349487 Z" id="Fill-8890" fill="#2C2C2C"></path>
                    <path d="M7.21641541,7.01261902 L8.23637714,7.3125 L8.36190567,7.35318705 L8.5820392,7.83892555 L9.17289307,8.6882662 L9.93731689,9.30857849 L10.4480438,9.58882141 L10.7151489,9.70701599 L10.9769897,9.78822327 L10.3922882,9.99975586 L4.265625,7.60272261" id="Fill-8889" fill="#3F3F3F"></path>
                    <path id="Fill-8914-Copy" fill="#B6B6B6" d="M4.56089281,11.3071338 L4.50783289,11.2289019 L4.46325161,11.1413173 L4.43023798,11.0499818 L4.41077087,10.961021 L4.40625,10.88039 L4.41714192,10.8133741 L4.44262613,10.7647349 L4.48120639,10.7377361 L4.53043725,10.734375 L4.58684358,10.7551021 L4.64661242,10.7987483 L4.70568945,10.8622203 L4.76002036,10.9414021 L4.80564739,11.0306552 L4.83936892,11.1239513 L4.85883602,11.2144222 L4.86277771,11.2959787 L4.85095265,11.3629702 L4.82419745,11.4106839 L4.78445882,11.4360143 L4.73476139,11.4375 L4.67824244,11.4151411 L4.61905279,11.3706911 L4.56089281,11.3071338 Z"></path>
                    <path id="Fill-8886" fill="#2C2C2C" d="M9.91209844,15.4343062 L9.890625,15.4428141 L9.89103281,15.421875 L9.91209844,15.4343062"></path>
                    <path id="Fill-9146" fill="#ECECEC" d="M4.734375,11.107302 L4.73304099,11.1404198 L4.7253775,11.1682734 L4.71189544,11.1887396 L4.6936166,11.2007002 L4.67164793,11.203125 L4.64762148,11.1959386 L4.62321185,11.1797817 L4.59990917,11.1557349 L4.57937386,11.1253057 L4.56302509,11.0906803 L4.55198399,11.0541452 L4.546875,11.0181377 L4.54809548,10.985133 L4.55556029,10.9573422 L4.56884366,10.9367001 L4.58703735,10.9245762 L4.60889248,10.921875 L4.63290475,10.9287473 L4.65754144,10.944766 L4.68094346,10.9688379 L4.70167745,10.9993928 L4.71812557,11.0342066 L4.72937954,11.0710433 L4.734375,11.107302"></path>
                    <path id="Fill-9168" fill="#898989" d="M9.796875,10.3125 L9.76707833,12.2326633 L9.65625,12.28125 L9.68355467,10.3552324 L9.796875,10.3125"></path>
                    <path d="M9.890625,10.3166968 L9.77201219,10.359375 L7.03125,9.22235758 L7.147529,9.1875 L9.890625,10.3166968" id="Fill-9169" fill="#C6C6C6"></path>
                    <path d="M7.06479914,11.1120976 L7.03125,9.328125 L9.796875,10.4774616 L9.76803584,12.421875 L7.06479914,11.1120976" id="Fill-9170" fill="#ECECEC"></path>
                    <path d="M16.133532,11.7343717 L14.7929992,11.2264709 C14.7929992,11.2264709 14.3206329,11.1170425 13.8042297,11.4710312 C13.2878265,11.8250198 12.9919281,12.232521 12.6976547,12.7596359 C12.4033813,13.2867508 12.2889175,13.7044603 12.2222443,14.1944046 C12.155571,14.6843489 12.1755753,14.9057926 12.2222443,15.2148057 C12.2689133,15.5238189 12.3697305,15.6321149 12.3697305,15.6321149 L12.8349328,16.0711101 L13.9009499,16.6492428 C13.9009499,16.6492428 13.5870614,16.364468 13.4522042,15.866032 C13.317347,15.367596 13.471499,14.4924436 13.6795983,13.9332166 C13.8876977,13.3739896 14.2400155,12.7332349 14.6197991,12.3679395 C14.9995828,12.0026441 15.3910851,11.7923475 15.6290767,11.7343717 C15.8670682,11.676396 16.133532,11.7343717 16.133532,11.7343717 Z" id="Path-3807" stroke="#5B5B5B" stroke-width="0.5" fill="url(#linearGradient-2)"></path>
                    <path d="M14.8145371,12.1372375 C15.1956941,11.850975 15.3473052,11.7932053 15.5216674,11.7389374 C15.6960296,11.6846695 15.9245452,11.6403351 16.1102142,11.7389374 C16.2958831,11.8375397 16.4656677,12.2060623 16.4991074,12.591774 C16.532547,12.9774857 16.4275361,13.829155 16.2872086,14.2482834 C16.1468812,14.6674118 15.8586961,15.2656401 15.5795288,15.652771 C15.3003616,16.0399019 14.9810258,16.3597868 14.6724243,16.534355 C14.3638228,16.7089232 14.1476211,16.8015063 14.0329742,16.7289735 C13.9183273,16.6564407 13.6616135,16.4571078 13.549942,16.2417756 C13.4382706,16.0264435 13.3363266,15.5963746 13.3652115,15.1606752 C13.3940964,14.7249757 13.4931106,14.3684005 13.6043243,14.0510787 C13.715538,13.733757 13.8874969,13.370018 14.0329742,13.1161423 C14.1784515,12.8622667 14.4333801,12.4235 14.8145371,12.1372375 Z" id="Path-3808" fill="url(#linearGradient-3)"></path>
                    <path d="M12.3036804,11.412117 L12.0517273,11.3613281 C12.0517273,11.3613281 11.8265533,11.412117 11.5904274,11.6446609 C11.3543015,11.8772049 11.2807617,11.9545898 11.169548,12.1472397 C11.0583344,12.3398895 10.8771744,12.9058914 10.8771744,13.0568161 L10.8771744,13.5105057 L11.169548,13.8080063 C11.169548,13.8080063 11.0957108,13.6069794 11.169548,13.2794724 C11.2433853,12.9519653 11.401886,12.52668 11.5308838,12.2975693 C11.6598816,12.0684586 11.8286819,11.8307648 11.9913254,11.6911469 C12.1539688,11.5515289 12.3036804,11.412117 12.3036804,11.412117 Z" id="Path-3811" fill="url(#linearGradient-4)"></path>
                    <path d="M14.7288437,11.1976547 L12.4258118,11.3135376 C12.4258118,11.3135376 11.9574051,11.5764084 11.7675934,11.8444061 C11.5777817,12.1124039 11.4049988,12.3422012 11.347023,12.5467758 C11.2890472,12.7513504 11.1284409,13.0844193 11.1284409,13.33564 C11.1284409,13.5868607 11.123497,13.6945724 11.1525879,13.8141632 C11.1816788,13.933754 11.2416687,14.1369324 11.2416687,14.1369324 L12.3305282,15.5524063 C12.3305282,15.5524063 12.1940689,15.0869522 12.2766037,14.4381866 C12.3591385,13.7894211 12.4548797,13.3269882 12.7837143,12.7453995 C13.1125489,12.1638107 13.3193206,11.9018784 13.5903625,11.6959991 C13.8614045,11.4901199 14.0636214,11.3571854 14.1682892,11.3135376 C14.2729569,11.2698898 14.7288437,11.1976547 14.7288437,11.1976547 Z" id="Path-3810" stroke-opacity="0.304517663" stroke="#000000" stroke-width="0.5" fill="url(#linearGradient-5)"></path>
                    <path d="M14.6003723,12.3356781 C14.6003723,12.3356781 14.7348404,12.3413315 14.8308105,12.4082108 C14.9267807,12.47509 14.9870682,12.6072006 15.0272827,12.9429016 C15.0674973,13.2786026 15.0272827,13.6173935 14.9713211,13.8411484 C14.9153595,14.0649033 14.8648453,14.3815155 14.5447083,14.7137604 C14.3226891,14.9441765 14.1494293,15.1156082 13.6927185,15.1412659 C13.595022,15.1467544 13.3767242,15.025383 13.3767242,15.025383 C13.3767242,15.025383 13.4528732,14.4244537 13.6092682,14.0255356 C13.7656631,13.6266174 13.8707199,13.3458023 14.120636,12.9429016 C14.3705521,12.5400009 14.6003723,12.3356781 14.6003723,12.3356781 Z" id="Path-3809" stroke="#939393" stroke-width="0.5" fill="#F2F2F2"></path>
                    <path d="M2.64960616,11.4960488 L4.54771024,10.8358719 C4.54771024,10.8358719 4.62530615,10.8993824 4.66726226,10.9526921 C4.70921837,11.0060018 4.74114733,11.1116579 4.74114733,11.159125 C4.74114733,11.2065921 4.72616188,11.3195594 4.72616188,11.3195594 L2.76993789,12.0225058 L2.64960616,11.4960488 Z" id="Path-3812-Copy" fill="url(#linearGradient-6)" transform="translate(3.695377, 11.429189) rotate(-1.000000) translate(-3.695377, -11.429189) "></path>
                    <path d="M0.121444702,12.3270721 L2.62390137,11.4344788 C2.62390137,11.4344788 2.7363739,11.526535 2.79718781,11.6038055 C2.85800171,11.681076 2.90428162,11.8342209 2.90428162,11.9030228 C2.90428162,11.9718246 2.88256073,12.1355667 2.88256073,12.1355667 L0.352729797,13.0304031 L0.121444702,12.3270721 Z" id="Path-3812" fill="url(#linearGradient-6)"></path>
                    <path id="Fill-8914" fill="#A3A9AF" d="M0.270294439,13.0088911 L0.221675007,12.9644411 L0.17390136,12.9008838 L0.130316993,12.8226519 L0.0936971384,12.7350673 L0.0665791514,12.6437318 L0.0505885255,12.554771 L0.046875,12.47414 L0.0558218213,12.4071241 L0.0767550042,12.3584849 L0.108445517,12.3314861 L0.148884621,12.328125 L0.19521779,12.3488521 L0.244312976,12.3924983 L0.2928399,12.4559703 L0.337468283,12.5351521 L0.374947138,12.6244052 L0.402646603,12.7177013 L0.418637229,12.8081722 L0.421875,12.8897287 L0.412161686,12.9567202 L0.390184487,13.0044339 L0.357542465,13.0297643 L0.316720116,13.03125 L0.270294439,13.0088911"></path>
                    <path d="M4.56383514,9.74848939 L5.13373947,9.31855774 C5.13373947,9.31855774 5.47906494,9.35795975 5.62261963,9.43179703 C5.76617432,9.50563431 6.14519119,9.94350813 6.26541138,10.2794037 C6.38563156,10.6152993 6.44214249,11.1357994 6.40607071,11.4011765 C6.36999893,11.6665536 6.34950256,11.7854004 6.24591064,11.9252701 C6.14231873,12.0651398 5.91435242,12.1585007 5.91435242,12.1585007 L5.30319214,12.0731277 C5.30319214,12.0731277 5.50901413,12.0015335 5.6061058,11.8825378 C5.70319748,11.7635421 5.72080994,11.5554771 5.70864487,11.2406501 C5.6964798,10.9258232 5.57646561,10.5955925 5.49847412,10.4347686 C5.42048264,10.2739448 5.22967529,9.98502732 5.10929489,9.894619 C4.98891449,9.80421067 4.86669159,9.7608719 4.77329636,9.74848939 C4.67990112,9.73610688 4.56383514,9.74848939 4.56383514,9.74848939 Z" id="Path-3814" fill="url(#linearGradient-7)"></path>
                    <path d="M4.48783493,10.7329502 L5.20436096,10.466423 C5.20436096,10.466423 5.24819183,10.5342064 5.29380798,10.6183548 C5.33942413,10.7025032 5.36579132,10.7886805 5.38826752,10.8690834 C5.41074371,10.9494863 5.42530632,11.0562115 5.43148327,11.1039934 C5.43766022,11.1517754 5.43766022,11.2081032 5.43766022,11.2081032 L4.7875042,11.4311485 C4.7875042,11.4311485 4.83599854,11.3714676 4.84864998,11.3087597 C4.86130142,11.2460518 4.83210754,11.1042194 4.80566597,11.0429764 C4.7792244,10.9817333 4.7033329,10.85919 4.65817451,10.8127041 C4.61301613,10.7662182 4.48783493,10.7329502 4.48783493,10.7329502 Z" id="Path-3815" fill="url(#linearGradient-8)"></path>
                    <path d="M4.81311035,7.30297852 C4.81311035,7.30297852 4.36431885,7.40725708 4.24232483,7.54362488 C4.12033081,7.67999268 3.94656372,8.00738525 3.94656372,8.22244263 C3.94656372,8.4375 3.90875244,8.64468384 3.99906921,8.76411438 C4.08938599,8.88354492 4.44035339,9.1993103 4.44035339,9.1993103 L3.96775818,8.98777771 C3.96775818,8.98777771 3.75924683,8.8074646 3.67803955,8.6224823 C3.59683227,8.4375 3.47781372,8.10690308 3.47781372,7.91496277 C3.47781372,7.72302246 3.57907104,7.21343994 3.71585083,7.11708069 C3.85263062,7.02072144 4.00840759,7.00900269 4.12536621,7.00900269 C4.24232483,7.00900269 4.40501404,7.04676819 4.40501404,7.04676819 L4.81311035,7.30297852 Z" id="Path-3816" fill="url(#linearGradient-9)"></path>
                    <path d="M4.43934631,9.17166138 C4.43934631,9.17166138 4.02534485,8.95788574 3.96716309,8.85585022 C3.90898132,8.7538147 3.78126526,8.26849365 3.83381653,8.1018219 C3.8863678,7.93515015 3.94267273,7.61791992 4.16029358,7.43165588 C4.37791444,7.24539185 4.72242737,7.25894165 4.72242737,7.25894165 L4.97740173,7.50865173 L4.34802246,7.58985901 L4.43934631,9.17166138 Z" id="Path-3817" stroke="#414141" stroke-width="0.5" fill="#3F3F3F"></path>
                    <path d="M5.68496704,13.6862183 L5.73509216,14.3102875 C5.73509216,14.3102875 5.94721985,14.8428497 6.46888733,15.0747986 C6.99055481,15.3067474 7.75982666,15.4622955 8.21109009,15.4622955 C8.66235352,15.4622955 9.1020813,15.3720245 9.29402161,15.3720245 C9.48596191,15.3720245 9.90032959,15.2182617 9.90032959,15.2182617 L9.19322205,14.8299408 C9.19322205,14.8299408 8.57675171,14.9636993 7.99388123,14.8733826 C7.41101074,14.7830658 6.80891418,14.6323242 6.46888733,14.4521027 C6.12886047,14.2718811 5.90336609,14.1147308 5.84216309,14.0126953 C5.78096008,13.9106598 5.68496704,13.6862183 5.68496704,13.6862183 Z" id="Path-3819" fill="url(#linearGradient-10)"></path>
                    <path d="M5.90652466,13.0803223 L6.68014526,13.5151062 C6.68014526,13.5151062 6.68582153,13.8070679 6.79046631,13.9264526 C6.89511108,14.0458374 7.35475159,14.2943115 7.67216492,14.3672791 C7.98957825,14.4402466 8.29403687,14.4402466 8.29403687,14.4402466 L9.22444153,14.9849396 C9.22444153,14.9849396 8.65827942,15.0083771 8.44212341,15.0083771 C8.22596741,15.0083771 7.57736206,14.958847 7.28988647,14.8776398 C7.00241089,14.7964325 6.56318665,14.6166687 6.33869934,14.4919739 C6.11421204,14.3672791 5.94648743,14.2739868 5.84751892,14.1002197 C5.74855042,13.9264526 5.64646912,13.6767426 5.69902039,13.496109 C5.75157166,13.3154755 5.90652466,13.0803223 5.90652466,13.0803223 Z" id="Path-3818" fill="#3A3A3A"></path>
                    <path d="M6.65579224,13.5071869 C6.65579224,13.5071869 6.67012024,13.8524323 6.87295532,14.0179138 C7.07579041,14.1833954 7.41947937,14.362793 7.72434998,14.4296722 C8.02922058,14.4965515 8.37149048,14.4870758 8.37149048,14.4870758 L6.65579224,13.5071869 Z" id="Path-3820" fill="url(#linearGradient-11)"></path>
                    <path d="M7.82121277,5.44702148 L9.45469666,5.3478241 C9.45469666,5.3478241 9.39981079,5.83081055 9.30203247,6.198349 C9.20425415,6.56588745 9.19326782,6.93347168 8.64179993,7.23902893 C8.09033203,7.54458618 5.75093079,7.75653076 5.75093079,7.75653076 C5.75093079,7.75653076 6.39408875,7.60491943 6.55389404,7.53305054 C6.71369934,7.46118164 7.16285706,7.02850342 7.26750183,6.86672974 C7.37214661,6.70495605 7.65884399,6.1138916 7.72270203,5.90762329 C7.78656006,5.70135498 7.82121277,5.44702148 7.82121277,5.44702148 Z" id="Path-3663" fill="url(#linearGradient-12)"></path>
                    <path d="M5.34420776,0.0443115234 L7.48800659,0.0443115234 C7.48800659,0.0443115234 8.09527588,0.264953613 8.45132446,0.538513184 C8.80737305,0.812072754 9.14515686,1.33666992 9.14515686,1.33666992 C9.14515686,1.33666992 8.76397705,1.94622803 8.53125,2.33010864 C8.29852295,2.71398926 7.88562012,4.10046387 7.88562012,4.10046387 C7.88562012,4.10046387 7.71524048,3.16983032 7.60162354,2.77386475 C7.48800659,2.37789917 7.00561523,1.4647522 6.82415771,1.20245361 C6.6427002,0.940155029 6.18649292,0.585662842 5.95980835,0.42855835 C5.73312378,0.271453857 5.34420776,0.0443115234 5.34420776,0.0443115234 Z" id="Path-3930" fill="url(#linearGradient-13)"></path>
                    <path d="M11.1930542,0.490814209 L13.3552551,0.363189697 C13.3552551,0.363189697 14.7397156,0.606445312 15.4750671,1.39434814 C16.2104187,2.18225098 16.6411743,3.02893066 16.8137512,4.25930786 C16.9863281,5.48968506 16.8137512,6.03881836 16.6226807,6.87854004 C16.4316101,7.71826172 16.1869812,7.81430054 15.89328,8.27536011 C15.5995789,8.73641968 15.1998596,8.89370728 15.1998596,8.89370728 L12.555542,9.82745361 C12.555542,9.82745361 13.4415706,9.34790039 13.6829224,9.05612183 C13.9242741,8.76434326 14.1956177,8.38330078 14.4873962,7.63092041 C14.7791748,6.87854004 14.8487549,5.88967896 14.710968,4.89367676 C14.5731812,3.89767456 14.4369507,2.88180542 13.2368774,1.62789917 C12.0368042,0.37399292 11.1930542,0.490814209 11.1930542,0.490814209 Z" id="Path-3929" fill="url(#linearGradient-14)"></path>
                    <ellipse id="Oval-1" stroke="#000000" stroke-width="0.5" fill="url(#linearGradient-15)" transform="translate(11.484375, 5.203125) rotate(-8.000000) translate(-11.484375, -5.203125) " cx="11.484375" cy="5.203125" rx="3.5625" ry="4.6875"></ellipse>
                    <ellipse id="Oval-1-Copy" stroke="#000000" stroke-width="0.5" fill="url(#linearGradient-16)" transform="translate(11.203125, 5.273438) rotate(-8.000000) translate(-11.203125, -5.273438) " cx="11.203125" cy="5.2734375" rx="1.6875" ry="2.2265625"></ellipse>
                    <ellipse id="Oval-1-Copy-2" stroke="#000000" stroke-width="0.5" fill="#ECECEC" transform="translate(11.460938, 5.273438) rotate(-8.000000) translate(-11.460938, -5.273438) " cx="11.4609375" cy="5.2734375" rx="1.2421875" ry="1.7578125"></ellipse>
                    <ellipse id="Oval-1-Copy-5" stroke="#000000" stroke-width="0.5" fill="url(#linearGradient-17)" cx="5.3881073" cy="3.84375" rx="2.4457589" ry="3.85925084"></ellipse>
                    <ellipse id="Oval-1-Copy-3" stroke="#000000" stroke-width="0.5" fill="url(#linearGradient-18)" cx="5.44021721" cy="4.02571106" rx="1.16334915" ry="1.85908804"></ellipse>
                    <ellipse id="Oval-1-Copy-4" stroke="#000000" stroke-width="0.5" fill="#ECECEC" cx="5.61795111" cy="4.02571106" rx="0.856354235" ry="1.46770109"></ellipse>
                    <path d="M11.0643311,0.53237915 L13.4221344,0.396011353 C13.4221344,0.396011353 14.2635956,0.4737854 15.1657104,1.08956909 C16.0678253,1.70535278 16.5723267,2.64788818 16.7690735,4.24662781 C16.9658203,5.84536743 16.7690735,6.48504639 16.4219971,7.34371948 C16.0749207,8.20239258 15.5305939,8.77111816 15.4754333,8.77111816 C15.4202728,8.77111816 12.8083191,9.65180969 12.8083191,9.65180969" id="Path-3662" stroke="#000000" stroke-width="0.5"></path>
                    <path d="M4.37864685,9.91688418 L4.34673551,9.16597681 L4.33888287,9.00761542 L4.33047828,8.84027606 L4.32162211,8.66491888 L4.31231435,8.47808985 L4.30211595,8.27446453 L4.2907384,8.04668599 L4.27755449,7.78369386 L4.265625,7.546875 L10.359375,9.91688412 L10.2265198,15.65625 L9.87997501,15.451889 L9.86118387,15.440866 L9.17377669,15.0354858 L8.23564949,14.4821936 L7.86769178,14.2652884 L7.41691755,13.9994532 L7.04941143,13.7827101 L6.79226879,13.6310697 L6.66094402,13.5536846 L5.88096098,13.0937507 L4.50280989,12.2810451 L4.46143927,11.4540994 L4.51228073,11.4346097 L4.63611663,11.6416267 L4.81124558,11.8476087 L4.99792771,11.989897 L5.18425859,12.0577805 L5.75632225,12.1271602 L5.97119109,12.1124588 L6.15643064,11.9987877 L6.29796634,11.7912221 L6.38429522,11.5021938 L6.40760226,11.1513797 L6.36506503,10.7642298 L6.25921745,10.3702092 L6.09817558,9.99929439 L5.87344551,9.69002724 L5.66239357,9.46290779 L5.47484779,9.38901329 L5.29056358,9.34883308 L5.13700104,9.33096313 L4.81124559,9.56421661 L4.43380737,9.84141541 L4.37864685,9.91688418 Z M9.76308857,12.2607698 L9.79443642,10.3344345 L7.03730632,9.2001679 L6.92043242,9.23518198 L6.95385005,11.0079567 L9.64649065,12.3095127 L9.76308857,12.2607698 Z" id="Fill-8873" fill="#4B4B4B"></path>
                    <path d="M4.93450928,0.00984191895 L7.49688721,0.00984191895 C7.49688721,0.00984191895 8.13450623,0.194412231 8.56590271,0.607086182 C8.99729919,1.01976013 9.15486145,1.32371521 9.15486145,1.32371521" id="Path-3661" stroke="#000000" stroke-width="0.5"></path>
                    <path d="M4.19741821,6.97810364 C4.19741821,6.97810364 4.0471344,6.96295166 3.90426636,7.02154541 C3.76139832,7.08013916 3.5933075,7.35067749 3.5933075,7.35067749 C3.5933075,7.35067749 3.50907898,7.75634767 3.50907898,7.93395996 C3.50907898,8.11157225 3.54606628,8.45562737 3.64201355,8.61584473 C3.73796082,8.77606209 3.87922668,8.94071953 3.9960022,9.01629639 C4.11277771,9.09187324 4.34207153,9.17875671 4.34207153,9.17875671 L4.37461853,9.89515686 C4.37461853,9.89515686 4.26578522,10.2458497 4.26578522,10.3592148 C4.26578522,10.4725799 4.28162384,10.6338044 4.28162384,10.7097702 C4.28162384,10.785736 4.31506348,10.8843384 4.31506348,10.8843384 L2.70027924,11.4850845 L2.61733246,11.4195328 L0.103248596,12.3226318 C0.103248596,12.3226318 0.0424346924,12.4629594 0.0424346924,12.5487213 C0.0424346924,12.6344832 0.107803345,12.7804872 0.152549744,12.8592682 C0.197296143,12.9380492 0.270950317,13.0277715 0.300247192,13.027771 C0.329544067,13.0277705 0.410751343,13.0147247 0.410751343,13.0147247 L2.89562988,12.1270752 L2.92321014,11.991806 L4.4715271,11.4034653 L4.49629211,12.2793961 L5.88954163,13.1003952 C5.88954163,13.1003952 5.73513794,13.3778913 5.70471954,13.501236 C5.67430115,13.6245806 5.68693542,13.7123566 5.68693542,13.7123566 L5.72753906,14.3042221 C5.72753906,14.3042221 5.84177399,14.5648496 6.04898071,14.7650757 C6.25618744,14.9653018 6.7889328,15.2272565 7.09625244,15.2997894 C7.40357208,15.3723223 8.06977844,15.4491803 8.47851562,15.4491806 C8.88725281,15.4491809 9.13270569,15.4018018 9.28990173,15.3770599 C9.44709778,15.3523181 9.62104797,15.2928085 9.62104797,15.2928085 L10.2454605,15.657692 L11.8256836,14.8956985 L12.3093796,15.5629349 L12.8293304,16.0868225 L14.0820694,16.7674942 C14.0820694,16.7674942 14.6741638,16.6844556 15.182579,16.1710739 C15.6909943,15.6576922 15.8404999,15.3294751 16.0876007,14.8340836 C16.3347015,14.338692 16.4925842,13.4952623 16.5303726,13.1337204 C16.568161,12.7721785 16.489769,12.3445588 16.4172363,12.1681824 C16.3447037,11.9918059 16.0940781,11.7227783 16.0940781,11.7227783 L14.7097092,11.1898041 L13.2108765,11.2636414 L13.3355255,9.55888367" id="Path-3619" stroke="#000000" stroke-width="0.5"></path>
                    <path d="M4.31121826,7.63769531 L10.4848022,10.1033936 L10.2850342,15.6425171" id="Path-3620" stroke="#000000" stroke-width="0.5"></path>
                    <path id="Path-3621" stroke="#000000" stroke-width="0.5" d="M4.3625,7.64172363 L4.3625,9.21917725"></path>
                    <path id="Path-3622" stroke="#000000" stroke-width="0.5" d="M10.4694214,10.0913086 L11.4488525,9.8237915"></path>
                    <path d="M15.9274292,11.67453 C15.9274292,11.67453 15.1628723,11.7424622 14.7677307,12.0455017 C14.3725891,12.3485413 13.9418335,13.0896606 13.7151489,13.7062683 C13.4884644,14.322876 13.3215637,15.0102539 13.3215637,15.4410095 C13.3215637,15.8717651 13.4249268,16.2923584 13.5700378,16.4443359" id="Path-3623" stroke="#000000" stroke-width="0.5"></path>
                    <path d="M13.2028198,11.3056641 L11.9804077,11.3464966 C11.9804077,11.3464966 11.592041,11.5966187 11.4001465,11.8459167 C11.208252,12.0952148 11.0692749,12.3966064 10.9649963,12.7215271 C10.8607178,13.0464478 10.8781128,13.3002319 10.8781128,13.4642944 C10.8781128,13.6283569 11.1134949,13.7671509 11.1134949,13.7671509 C11.1134949,13.7671509 11.1483307,14.09729 11.2742386,14.2338638 C11.4001465,14.3704376 11.8191376,14.8399887 11.8191376,14.8399887" id="Path-3624" stroke="#000000" stroke-width="0.5"></path>
                </g>
                <g id="plusbadge" transform="translate(0.890625, 11.109375)" sketch:type="MSShapeGroup">
                    <path d="M0,2.99995625 C0,1.3446041 1.34464431,0 2.99999875,0 C4.65534944,0 6,1.3446041 6,2.99995625 C6,4.6553084 4.65534944,6 2.99999875,6 C1.34464431,6 0,4.6553084 0,2.99995625 L0,2.99995625 Z" id="Fill-24774" fill="#FFFFFF"></path>
                    <path d="M0,2.999875 C0,1.344625 1.34464431,0 2.99999875,0 C4.65534944,0 6,1.344625 6,2.999875 C6,4.65525 4.65534944,6 2.99999875,6 C1.34464431,6 0,4.65525 0,2.999875 L0,2.999875 Z" id="Stroke-24775" stroke="#FFFFFF" stroke-width="1.5" fill="#FFFFFF"></path>
                    <path d="M0,2.999875 C0,1.344625 1.34464431,0 2.99999875,0 C4.65534944,0 6,1.344625 6,2.999875 C6,4.65525 4.65534944,6 2.99999875,6 C1.34464431,6 0,4.65525 0,2.999875 L0,2.999875 Z" id="Stroke-24777" stroke="#000000" stroke-width="0.5"></path>
                    <path d="M3,1.265625 L3,4.96875" id="Stroke-24779" stroke="#000000"></path>
                    <path d="M1.125,3 L4.828125,3.00014063" id="Stroke-24781" stroke="#000000"></path>
                </g>
            </g>
        </g>
    </g>
</svg>