<?xml version="1.0" encoding="UTF-8" standalone="no"?>
<svg width="25px" height="24px" viewBox="0 0 25 24" version="1.1" xmlns="http://www.w3.org/2000/svg" xmlns:xlink="http://www.w3.org/1999/xlink" xmlns:sketch="http://www.bohemiancoding.com/sketch/ns">
    <!-- Generator: Sketch 3.3.2 (12043) - http://www.bohemiancoding.com/sketch -->
    <title>tb_actlock</title>
    <desc>Created with Sketch.</desc>
    <defs>
        <linearGradient x1="50%" y1="0%" x2="79.0953927%" y2="104.902302%" id="linearGradient-1">
            <stop stop-color="#939393" offset="0%"></stop>
            <stop stop-color="#C4C4C4" offset="10.1194864%"></stop>
            <stop stop-color="#191919" offset="47.769027%"></stop>
            <stop stop-color="#ACACAC" offset="100%"></stop>
        </linearGradient>
        <linearGradient x1="50%" y1="0%" x2="50%" y2="100%" id="linearGradient-2">
            <stop stop-color="#878787" offset="0%"></stop>
            <stop stop-color="#000000" offset="100%"></stop>
        </linearGradient>
        <linearGradient x1="88.4695984%" y1="-1.03220351%" x2="16.1762818%" y2="102.271722%" id="linearGradient-3">
            <stop stop-color="#1C1C1C" offset="0%"></stop>
            <stop stop-color="#696868" offset="14.0983737%"></stop>
            <stop stop-color="#B5B5B5" offset="57.3321907%"></stop>
            <stop stop-color="#818080" offset="79.9306441%"></stop>
            <stop stop-color="#000000" offset="100%"></stop>
        </linearGradient>
        <linearGradient x1="103.07241%" y1="-2.00664864%" x2="6.20320231%" y2="126.527378%" id="linearGradient-4">
            <stop stop-color="#2B2B2B" offset="0%"></stop>
            <stop stop-color="#969696" offset="49.574556%"></stop>
            <stop stop-color="#000000" offset="100%"></stop>
        </linearGradient>
        <linearGradient x1="60.2658055%" y1="-3.43113156%" x2="10.2378046%" y2="92.8508801%" id="linearGradient-5">
            <stop stop-color="#4E4E4E" offset="0%"></stop>
            <stop stop-color="#4F4F4F" offset="24.7287725%"></stop>
            <stop stop-color="#888888" offset="46.7019285%"></stop>
            <stop stop-color="#505050" offset="69.5761397%"></stop>
            <stop stop-color="#515151" offset="100%"></stop>
        </linearGradient>
        <linearGradient x1="50%" y1="18.3831228%" x2="61.1939071%" y2="73.9842529%" id="linearGradient-6">
            <stop stop-color="#BFBFBF" offset="0%"></stop>
            <stop stop-color="#EBEBEB" offset="43.7778594%"></stop>
            <stop stop-color="#717171" offset="100%"></stop>
        </linearGradient>
        <linearGradient x1="27.9128528%" y1="-6.50828955%" x2="69.6081176%" y2="102.711176%" id="linearGradient-7">
            <stop stop-color="#FFFFFF" offset="0%"></stop>
            <stop stop-color="#AAAAAA" offset="25.3388877%"></stop>
            <stop stop-color="#B8B8B8" offset="50.9713911%"></stop>
            <stop stop-color="#858383" offset="100%"></stop>
        </linearGradient>
        <linearGradient x1="20.6073901%" y1="0%" x2="85.2280947%" y2="104.50566%" id="linearGradient-8">
            <stop stop-color="#D4D4D4" offset="0%"></stop>
            <stop stop-color="#A4A4A4" offset="22.8100812%"></stop>
            <stop stop-color="#CACACA" offset="56.4423258%"></stop>
            <stop stop-color="#525252" offset="100%"></stop>
        </linearGradient>
        <linearGradient x1="50%" y1="0%" x2="50%" y2="100%" id="linearGradient-9">
            <stop stop-color="#A9A9A9" offset="0%"></stop>
            <stop stop-color="#000000" offset="100%"></stop>
        </linearGradient>
        <linearGradient x1="-6.32040523%" y1="0%" x2="100%" y2="106.447522%" id="linearGradient-10">
            <stop stop-color="#3A3A3A" offset="0%"></stop>
            <stop stop-color="#7B7B7B" offset="49.6259055%"></stop>
            <stop stop-color="#000000" offset="100%"></stop>
        </linearGradient>
        <linearGradient x1="-16.0481357%" y1="6.9833389%" x2="112.30232%" y2="115.945595%" id="linearGradient-11">
            <stop stop-color="#444444" offset="0%"></stop>
            <stop stop-color="#8E8E8E" offset="44.2305963%"></stop>
            <stop stop-color="#000000" offset="100%"></stop>
        </linearGradient>
        <linearGradient x1="50%" y1="0%" x2="62.6943517%" y2="100%" id="linearGradient-12">
            <stop stop-color="#000000" offset="0%"></stop>
            <stop stop-color="#424141" offset="49.0051122%"></stop>
            <stop stop-color="#000000" offset="100%"></stop>
        </linearGradient>
        <linearGradient x1="20.5867959%" y1="-6.7352835%" x2="80.3773308%" y2="100%" id="linearGradient-13">
            <stop stop-color="#595959" offset="0%"></stop>
            <stop stop-color="#000000" offset="100%"></stop>
        </linearGradient>
        <linearGradient x1="27.0280271%" y1="-3.7407497%" x2="70.2844518%" y2="98.6544135%" id="linearGradient-14">
            <stop stop-color="#515151" offset="0%"></stop>
            <stop stop-color="#505050" offset="50.1856383%"></stop>
            <stop stop-color="#232323" offset="100%"></stop>
        </linearGradient>
        <linearGradient x1="50%" y1="0%" x2="50%" y2="100%" id="linearGradient-15">
            <stop stop-color="#4C4C4C" offset="0%"></stop>
            <stop stop-color="#3D3C3C" offset="55.3307935%"></stop>
            <stop stop-color="#4C4C4C" offset="100%"></stop>
        </linearGradient>
        <linearGradient x1="50%" y1="0%" x2="50%" y2="100%" id="linearGradient-16">
            <stop stop-color="#818181" offset="0%"></stop>
            <stop stop-color="#AAAAAA" offset="51.9725905%"></stop>
            <stop stop-color="#373737" offset="100%"></stop>
        </linearGradient>
        <linearGradient x1="43.041345%" y1="0.486596563%" x2="56.958655%" y2="99.5134034%" id="linearGradient-17">
            <stop stop-color="#4C4C4C" offset="0%"></stop>
            <stop stop-color="#3D3C3C" offset="55.3307935%"></stop>
            <stop stop-color="#4C4C4C" offset="100%"></stop>
        </linearGradient>
        <linearGradient x1="43.041345%" y1="0.486596563%" x2="56.958655%" y2="99.5134034%" id="linearGradient-18">
            <stop stop-color="#818181" offset="0%"></stop>
            <stop stop-color="#AAAAAA" offset="51.9725905%"></stop>
            <stop stop-color="#373737" offset="100%"></stop>
        </linearGradient>
        <linearGradient x1="50%" y1="100%" x2="50%" y2="0%" id="linearGradient-19">
            <stop stop-color="#FF0014" offset="0%"></stop>
            <stop stop-color="#660109" offset="100%"></stop>
        </linearGradient>
    </defs>
    <g id="Page-1" stroke="none" stroke-width="1" fill="none" fill-rule="evenodd" sketch:type="MSPage">
        <g id="tb_actlock" sketch:type="MSArtboardGroup" transform="translate(0.000000, 0.000000)">
            <g id="Group" sketch:type="MSLayerGroup" transform="translate(3.000000, 3.000000)">
                <g id="camera" transform="translate(0.468750, 0.562500)" sketch:type="MSShapeGroup">
                    <path d="M14.0093648,16.6875 L13.6795094,16.5415154 L13.431592,16.2217067 L13.2884134,15.7438784 L13.265625,15.1389632 L13.3688488,14.4519575 L13.5918743,13.7378262 L13.9169592,13.0552787 L14.3164319,12.4598061 L14.7567232,11.9968431 L15.2023486,11.6979484 L15.6199267,11.578125 L15.9812601,11.6373855 L16.2646122,11.8625928 L16.4556339,12.2314179 L16.546875,12.714769 L16.5364074,13.2801479 L16.427787,13.8929278 L16.2286392,14.5182435 L15.950333,15.1211675 L15.6078564,15.6677865 L15.2194774,16.1254898 L14.80677,16.4643089 L14.3944006,16.6581828 L14.0093648,16.6875 M16.4528417,12.8021443 L16.3661206,12.3495256 L16.1857169,12.0054091 L15.9189677,11.7967075 L15.579997,11.7439341 L15.1890011,11.8585603 L14.7727753,12.1399724 L14.7559219,12.1577305 L14.6072591,12.3146981 L14.3621338,12.5733929 L13.9899947,13.1295672 L13.6872474,13.7660788 L13.4790969,14.4317698 L13.3822714,15.0726771 L13.3828098,15.0888197 L13.3828975,15.0922511 L13.3986866,15.5357028 L13.4023677,15.6379434 L13.5346279,16.0857407 L13.7648781,16.3868645 L14.0723959,16.5260114 L14.4322769,16.5011902 L14.8185649,16.3216805 L15.2059672,16.0053909 L15.5710694,15.5764538 L15.8932745,15.0632345 L16.1550778,14.496503 L16.3422304,13.9086196 L16.4439141,13.3327084 L16.4528417,12.8021443" id="Fill-8855" fill="#2C2C2C"></path>
                    <path id="Fill-8867" fill="#ECECEC" d="M5.19336444,10.4356499 L5.21291542,10.4716129 L5.19336444,10.4845546 L4.875,10.59375 L4.88058275,10.4416507 L4.91677817,10.2830194 L4.97042084,10.2094631 L5.08701897,10.3043003 L5.18268585,10.4187756"></path>
                    <path id="Fill-8903" fill="#ECECEC" d="M5.2283895,11.4766892 L5.11895286,11.3406787 L5.109375,11.3234645 L5.4375,11.203125 L5.42914248,11.3842595 L5.38947509,11.5441224 L5.36976467,11.578125 L5.34474142,11.5690257 L5.2283895,11.4766892"></path>
                    <path d="M4.99423599,10.2247581 C4.99423599,10.2247581 4.88291931,10.1672745 4.84513092,10.1672745 C4.80734253,10.1672745 4.71936035,10.1677322 4.67768097,10.1909637 C4.63600159,10.2141953 4.595438,10.2752495 4.56753159,10.3446808 C4.53962517,10.4141121 4.53282166,10.4581604 4.53282166,10.5040741 C4.53282166,10.5499878 4.54705811,10.6104012 4.54705811,10.670208 C4.54705811,10.7300148 4.6027565,10.9948769 4.62892914,11.087059 C4.65510178,11.1792412 4.74989319,11.4258957 4.8042984,11.4819031 C4.85870361,11.5379105 4.95859909,11.6198845 5.02386475,11.6547432 C5.0891304,11.6896019 5.22454834,11.6931839 5.26667404,11.6619186 C5.30879974,11.6306534 5.37773895,11.5326118 5.37773895,11.5326118 C5.37773895,11.5326118 5.28065872,11.4761353 5.25156784,11.4499741 C5.22247696,11.4238129 5.11206436,11.2952042 5.07958603,11.222477 C5.0471077,11.1497498 4.89300156,10.6585464 4.89300156,10.5552979 C4.89300156,10.4520493 4.90538406,10.3903427 4.92709351,10.338707 C4.94880295,10.2870712 4.99423599,10.2247581 4.99423599,10.2247581 Z" id="Path-3639" fill="url(#linearGradient-1)"></path>
                    <path d="M4.27390573,10.2771066 C4.28899118,10.1522506 4.30127698,10.1165764 4.32874842,10.036055 C4.35621985,9.9555337 4.36415689,9.91987121 4.42759264,9.85178148 C4.55249978,9.71771049 4.58686302,9.75480149 4.66440037,9.74170344 C4.68949631,9.73746409 4.71078463,9.73600364 4.72471045,9.73762036 C4.78166197,9.74423218 5.01448057,9.79726422 5.11255788,9.88506692 C5.2106352,9.97286963 5.20960005,9.97183459 5.29860584,10.092518 C5.38761164,10.2132015 5.39004152,10.2172807 5.46353356,10.3609567 C5.53702561,10.5046327 5.54143894,10.5156206 5.59456399,10.6711125 C5.64768903,10.8266044 5.65225516,10.8445162 5.68189262,11.0000725 C5.71153008,11.1556288 5.71875,11.3229198 5.71875,11.3229198 L5.70302535,11.6157586 L5.63646724,11.857516 L5.52487094,12.0317321 L5.3772166,12.1276436 L5.20447027,12.140625 L5.01894688,12.0720124 L4.83307378,11.9281956 L4.65870377,11.7200009 L4.47050858,11.380806 L4.69250107,11.2927666 L4.7727231,11.4298088 C4.7727231,11.4298088 4.82769956,11.5068069 4.88333271,11.5603417 C4.93896585,11.6138764 4.94462565,11.6181182 5.00077423,11.6492583 C5.05692282,11.6803984 5.06397829,11.6828844 5.11724156,11.6900679 C5.17050482,11.6972514 5.18141324,11.6948417 5.2248661,11.6794811 C5.26831896,11.6641206 5.30823547,11.6225518 5.30823547,11.6225518 C5.30823547,11.6225518 5.35604644,11.5721409 5.38458558,11.5066766 C5.41312472,11.4412123 5.41352445,11.422411 5.42477774,11.3552222 C5.43603102,11.2880334 5.43457507,11.2919519 5.43349457,11.2146606 C5.43241406,11.1373694 5.43343749,11.1506851 5.4206561,11.0603921 C5.40787471,10.9700991 5.40567973,10.9637191 5.38655897,10.8830882 C5.36743821,10.8024573 5.38173281,10.828785 5.34146118,10.7264328 C5.30118955,10.6240806 5.28430747,10.600212 5.24924618,10.5341015 C5.21418489,10.467991 5.22786273,10.4822684 5.17370791,10.4101224 C5.11955309,10.3379764 5.11584257,10.3344775 5.05711555,10.2874775 C4.99838854,10.2404775 4.91912846,10.181296 4.85664368,10.1720409 C4.79415889,10.1627859 4.76153485,10.1601992 4.71561976,10.181296 C4.66970468,10.2023928 4.66532372,10.2056805 4.62839105,10.2508035 C4.59145837,10.2959264 4.59035337,10.297438 4.56509277,10.365204 C4.53983218,10.4329701 4.54416847,10.5185852 4.54416847,10.585865 C4.54416847,10.6531448 4.56509276,10.8155479 4.56509276,10.8155479 L4.47050858,10.8550987 L4.31403351,10.921875 C4.31403351,10.921875 4.27426738,10.6973663 4.265625,10.5585016 C4.25698262,10.4196368 4.25882029,10.4019627 4.27390573,10.2771066 Z" id="Fill-8863" fill="#ECECEC"></path>
                    <path d="M10.9016189,9.79349487 L10.8998996,9.82469356 L11.6344299,9.91593933 L12.5200081,9.85832089 L13.3125,9.5625 L13.0036469,14.1169281 L11.7820163,14.9008142 L10.218338,15.6734619 L10.3547058,9.97927965 L10.9016189,9.79349487 Z" id="Fill-8890" fill="#2C2C2C"></path>
                    <path d="M7.21641541,7.01261902 L8.23637714,7.3125 L8.36190567,7.35318705 L8.5820392,7.83892555 L9.17289307,8.6882662 L9.93731689,9.30857849 L10.4480438,9.58882141 L10.7151489,9.70701599 L10.9769897,9.78822327 L10.3922882,9.99975586 L4.265625,7.60272261" id="Fill-8889" fill="#3F3F3F"></path>
                    <path id="Fill-8914-Copy" fill="#B6B6B6" d="M4.56089281,11.3071338 L4.50783289,11.2289019 L4.46325161,11.1413173 L4.43023798,11.0499818 L4.41077087,10.961021 L4.40625,10.88039 L4.41714192,10.8133741 L4.44262613,10.7647349 L4.48120639,10.7377361 L4.53043725,10.734375 L4.58684358,10.7551021 L4.64661242,10.7987483 L4.70568945,10.8622203 L4.76002036,10.9414021 L4.80564739,11.0306552 L4.83936892,11.1239513 L4.85883602,11.2144222 L4.86277771,11.2959787 L4.85095265,11.3629702 L4.82419745,11.4106839 L4.78445882,11.4360143 L4.73476139,11.4375 L4.67824244,11.4151411 L4.61905279,11.3706911 L4.56089281,11.3071338 Z"></path>
                    <path id="Fill-8886" fill="#2C2C2C" d="M9.91209844,15.4343062 L9.890625,15.4428141 L9.89103281,15.421875 L9.91209844,15.4343062"></path>
                    <path id="Fill-9146" fill="#ECECEC" d="M4.734375,11.107302 L4.73304099,11.1404198 L4.7253775,11.1682734 L4.71189544,11.1887396 L4.6936166,11.2007002 L4.67164793,11.203125 L4.64762148,11.1959386 L4.62321185,11.1797817 L4.59990917,11.1557349 L4.57937386,11.1253057 L4.56302509,11.0906803 L4.55198399,11.0541452 L4.546875,11.0181377 L4.54809548,10.985133 L4.55556029,10.9573422 L4.56884366,10.9367001 L4.58703735,10.9245762 L4.60889248,10.921875 L4.63290475,10.9287473 L4.65754144,10.944766 L4.68094346,10.9688379 L4.70167745,10.9993928 L4.71812557,11.0342066 L4.72937954,11.0710433 L4.734375,11.107302"></path>
                    <g id="Fill-9168-+-Fill-9169-+-Fill-9170" transform="translate(7.031250, 9.187500)">
                        <path id="Fill-9168" fill="#898989" d="M2.765625,1.125 L2.73582833,3.04516329 L2.625,3.09375 L2.65230467,1.16773244 L2.765625,1.125"></path>
                        <path d="M2.859375,1.12919681 L2.74076219,1.171875 L0,0.0348575772 L0.116278995,0 L2.859375,1.12919681" id="Fill-9169" fill="#C6C6C6"></path>
                        <path d="M0.0335491355,1.92459757 L0,0.140625 L2.765625,1.2899616 L2.73678584,3.234375 L0.0335491355,1.92459757" id="Fill-9170" fill="#ECECEC"></path>
                    </g>
                    <g id="Group" transform="translate(0.046875, 6.984375)">
                        <path d="M16.086657,4.74999671 L14.7461242,4.24209595 C14.7461242,4.24209595 14.2737579,4.13266753 13.7573547,4.48665618 C13.2409515,4.84064483 12.9450531,5.24814601 12.6507797,5.77526089 C12.3565063,6.30237577 12.2420425,6.72008528 12.1753693,7.21002957 C12.108696,7.69997385 12.1287003,7.92141755 12.1753693,8.23043075 C12.2220383,8.53944394 12.3228555,8.64773994 12.3228555,8.64773994 L12.7880578,9.08673513 L13.8540749,9.66486776 C13.8540749,9.66486776 13.5401864,9.38009298 13.4053292,8.881657 C13.270472,8.38322103 13.424624,7.50806862 13.6327233,6.94884163 C13.8408227,6.38961464 14.1931405,5.74885994 14.5729241,5.38356453 C14.9527078,5.01826912 15.3442101,4.80797248 15.5822017,4.74999672 C15.8201932,4.69202096 16.086657,4.74999671 16.086657,4.74999671 Z" id="Path-3807" stroke="#5B5B5B" stroke-width="0.5" fill="url(#linearGradient-2)"></path>
                        <path d="M14.7676621,5.15286253 C15.1488191,4.86660002 15.3004302,4.80883026 15.4747924,4.75456238 C15.6491546,4.70029449 15.8776702,4.65596008 16.0633392,4.75456238 C16.2490081,4.85316467 16.4187927,5.22168731 16.4522324,5.60739899 C16.485672,5.99311066 16.3806611,6.84477997 16.2403336,7.26390839 C16.1000062,7.68303681 15.8118211,8.28126508 15.5326538,8.668396 C15.2534866,9.05552691 14.9341508,9.37541181 14.6255493,9.54997999 C14.3169478,9.72454816 14.1007461,9.81713132 13.9860992,9.74459849 C13.8714523,9.67206566 13.6147385,9.47273277 13.503067,9.25740061 C13.3913956,9.04206846 13.2894516,8.61199964 13.3183365,8.17630017 C13.3472214,7.74060071 13.4462356,7.38402552 13.5574493,7.06670374 C13.668663,6.74938196 13.8406219,6.38564295 13.9860992,6.13176731 C14.1315765,5.87789167 14.3865051,5.43912504 14.7676621,5.15286253 Z" id="Path-3808" fill="url(#linearGradient-3)"></path>
                        <path d="M12.2568054,4.427742 L12.0048523,4.37695312 C12.0048523,4.37695312 11.7796783,4.427742 11.5435524,4.66028595 C11.3074265,4.8928299 11.2338867,4.97021484 11.122673,5.16286469 C11.0114594,5.35551453 10.8302994,5.92151642 10.8302994,6.0724411 L10.8302994,6.52613068 L11.122673,6.82363129 C11.122673,6.82363129 11.0488358,6.62260437 11.122673,6.29509735 C11.1965103,5.96759033 11.355011,5.54230499 11.4840088,5.31319427 C11.6130066,5.08408356 11.7818069,4.84638977 11.9444504,4.70677185 C12.1070938,4.56715393 12.2568054,4.427742 12.2568054,4.427742 Z" id="Path-3811" fill="url(#linearGradient-4)"></path>
                        <path d="M14.6819687,4.21327972 L12.3789368,4.3291626 C12.3789368,4.3291626 11.9105301,4.59203339 11.7207184,4.86003113 C11.5309067,5.12802887 11.3581238,5.35782623 11.300148,5.56240082 C11.2421722,5.7669754 11.0815659,6.10004425 11.0815659,6.35126495 C11.0815659,6.60248566 11.076622,6.71019745 11.1057129,6.82978821 C11.1348038,6.94937897 11.1947937,7.15255737 11.1947937,7.15255737 L12.2836532,8.56803131 C12.2836532,8.56803131 12.1471939,8.10257721 12.2297287,7.45381165 C12.3122635,6.80504608 12.4080047,6.34261322 12.7368393,5.76102448 C13.0656739,5.17943573 13.2724456,4.91750336 13.5434875,4.71162415 C13.8145295,4.50574493 14.0167464,4.37281036 14.1214142,4.3291626 C14.2260819,4.28551483 14.6819687,4.21327972 14.6819687,4.21327972 Z" id="Path-3810" stroke-opacity="0.304517663" stroke="#000000" stroke-width="0.5" fill="url(#linearGradient-5)"></path>
                        <path d="M14.5534973,5.3513031 C14.5534973,5.3513031 14.6879654,5.35695648 14.7839355,5.42383575 C14.8799057,5.49071503 14.9401932,5.62282562 14.9804077,5.95852661 C15.0206223,6.2942276 14.9804077,6.63301849 14.9244461,6.85677338 C14.8684845,7.08052826 14.8179703,7.3971405 14.4978333,7.72938538 C14.2758141,7.95980152 14.1025543,8.13123322 13.6458435,8.15689087 C13.548147,8.16237938 13.3298492,8.041008 13.3298492,8.041008 C13.3298492,8.041008 13.4059982,7.44007874 13.5623932,7.04116058 C13.7187881,6.64224243 13.8238449,6.36142731 14.073761,5.95852661 C14.3236771,5.55562592 14.5534973,5.3513031 14.5534973,5.3513031 Z" id="Path-3809" stroke="#939393" stroke-width="0.5" fill="#F2F2F2"></path>
                        <path d="M2.60273116,4.51167384 L4.50083524,3.85149688 C4.50083524,3.85149688 4.57843115,3.91500741 4.62038726,3.96831709 C4.66234337,4.02162678 4.69427233,4.12728291 4.69427233,4.17475001 C4.69427233,4.2222171 4.67928688,4.33518437 4.67928688,4.33518437 L2.72306289,5.0381308 L2.60273116,4.51167384 Z" id="Path-3812-Copy" fill="url(#linearGradient-6)" transform="translate(3.648502, 4.444814) rotate(-1.000000) translate(-3.648502, -4.444814) "></path>
                        <path d="M0.0745697021,5.34269714 L2.57702637,4.45010376 C2.57702637,4.45010376 2.6894989,4.54216003 2.75031281,4.61943054 C2.81112671,4.69670105 2.85740662,4.84984589 2.85740662,4.91864777 C2.85740662,4.98744965 2.83568573,5.15119171 2.83568573,5.15119171 L0.305854797,6.04602814 L0.0745697021,5.34269714 Z" id="Path-3812" fill="url(#linearGradient-6)"></path>
                        <path id="Fill-8914" fill="#A3A9AF" d="M0.223419439,6.02451607 L0.174800007,5.98006613 L0.12702636,5.9165088 L0.0834419932,5.83827691 L0.0468221384,5.75069226 L0.0197041514,5.65935676 L0.00371352551,5.57039599 L0,5.48976501 L0.00894682126,5.42274911 L0.0298800042,5.37410992 L0.0615705173,5.34711115 L0.102009621,5.34375 L0.14834279,5.36447707 L0.197437976,5.40812326 L0.2459649,5.47159534 L0.290593283,5.55077712 L0.328072138,5.64003017 L0.355771603,5.73332633 L0.371762229,5.82379719 L0.375,5.90535369 L0.365286686,5.97234524 L0.343309487,6.0200589 L0.310667465,6.04538928 L0.269845116,6.046875 L0.223419439,6.02451607"></path>
                        <path d="M4.51696014,2.76411439 L5.08686447,2.33418274 C5.08686447,2.33418274 5.43218994,2.37358475 5.57574463,2.44742203 C5.71929932,2.52125931 6.09831619,2.95913313 6.21853638,3.29502871 C6.33875656,3.6309243 6.39526749,4.15142441 6.35919571,4.41680148 C6.32312393,4.68217855 6.30262756,4.80102539 6.19903564,4.94089508 C6.09544373,5.08076477 5.86747742,5.17412567 5.86747742,5.17412567 L5.25631714,5.08875275 C5.25631714,5.08875275 5.46213913,5.01715851 5.5592308,4.89816281 C5.65632248,4.7791671 5.67393494,4.57110211 5.66176987,4.25627514 C5.6496048,3.94144818 5.52959061,3.61121746 5.45159912,3.45039364 C5.37360764,3.28956982 5.18280029,3.00065232 5.06241989,2.910244 C4.94203949,2.81983567 4.81981659,2.7764969 4.72642136,2.76411439 C4.63302612,2.75173188 4.51696014,2.76411439 4.51696014,2.76411439 Z" id="Path-3814" fill="url(#linearGradient-7)"></path>
                        <path d="M4.44095993,3.74857521 L5.15748596,3.48204803 C5.15748596,3.48204803 5.20131683,3.54983139 5.24693298,3.6339798 C5.29254913,3.7181282 5.31891632,3.8043055 5.34139252,3.8847084 C5.36386871,3.96511131 5.37843132,4.07183647 5.38460827,4.11961841 C5.39078522,4.16740036 5.39078522,4.22372818 5.39078522,4.22372818 L4.7406292,4.44677353 C4.7406292,4.44677353 4.78912354,4.38709259 4.80177498,4.32438469 C4.81442642,4.26167679 4.78523254,4.11984444 4.75879097,4.05860138 C4.7323494,3.99735832 4.6564579,3.87481499 4.61129951,3.82832909 C4.56614113,3.78184319 4.44095993,3.74857521 4.44095993,3.74857521 Z" id="Path-3815" fill="url(#linearGradient-8)"></path>
                        <path d="M4.76623535,0.318603516 C4.76623535,0.318603516 4.31744385,0.42288208 4.19544983,0.559249878 C4.07345581,0.695617676 3.89968872,1.02301025 3.89968872,1.23806763 C3.89968872,1.453125 3.86187744,1.66030884 3.95219421,1.77973938 C4.04251099,1.89916992 4.39347839,2.2149353 4.39347839,2.2149353 L3.92088318,2.00340271 C3.92088318,2.00340271 3.71237183,1.8230896 3.63116455,1.6381073 C3.54995727,1.453125 3.43093872,1.12252808 3.43093872,0.930587769 C3.43093872,0.738647461 3.53219604,0.229064941 3.66897583,0.132705688 C3.80575562,0.0363464355 3.96153259,0.0246276855 4.07849121,0.0246276855 C4.19544983,0.0246276855 4.35813904,0.0623931885 4.35813904,0.0623931885 L4.76623535,0.318603516 Z" id="Path-3816" fill="url(#linearGradient-9)"></path>
                        <path d="M4.39247131,2.18728638 C4.39247131,2.18728638 3.97846985,1.97351074 3.92028809,1.87147522 C3.86210632,1.7694397 3.73439026,1.28411865 3.78694153,1.1174469 C3.8394928,0.950775146 3.89579773,0.633544922 4.11341858,0.447280884 C4.33103944,0.261016846 4.67555237,0.27456665 4.67555237,0.27456665 L4.93052673,0.524276733 L4.30114746,0.605484009 L4.39247131,2.18728638 Z" id="Path-3817" stroke="#414141" stroke-width="0.5" fill="#3F3F3F"></path>
                        <path d="M5.63809204,6.70184326 L5.68821716,7.32591248 C5.68821716,7.32591248 5.90034485,7.85847473 6.42201233,8.09042358 C6.94367981,8.32237244 7.71295166,8.47792053 8.16421509,8.47792053 C8.61547852,8.47792053 9.0552063,8.38764954 9.24714661,8.38764954 C9.43908691,8.38764954 9.85345459,8.23388672 9.85345459,8.23388672 L9.14634705,7.8455658 C9.14634705,7.8455658 8.52987671,7.97932434 7.94700623,7.88900757 C7.36413574,7.7986908 6.76203918,7.64794922 6.42201233,7.46772766 C6.08198547,7.2875061 5.85649109,7.13035583 5.79528809,7.02832031 C5.73408508,6.92628479 5.63809204,6.70184326 5.63809204,6.70184326 Z" id="Path-3819" fill="url(#linearGradient-10)"></path>
                        <path d="M5.85964966,6.09594727 L6.63327026,6.5307312 C6.63327026,6.5307312 6.63894653,6.82269287 6.74359131,6.94207764 C6.84823608,7.0614624 7.30787659,7.30993652 7.62528992,7.38290405 C7.94270325,7.45587158 8.24716187,7.45587158 8.24716187,7.45587158 L9.17756653,8.00056458 C9.17756653,8.00056458 8.61140442,8.02400208 8.39524841,8.02400208 C8.17909241,8.02400208 7.53048706,7.97447205 7.24301147,7.89326477 C6.95553589,7.8120575 6.51631165,7.6322937 6.29182434,7.50759888 C6.06733704,7.38290405 5.89961243,7.28961182 5.80064392,7.11584473 C5.70167542,6.94207764 5.59959412,6.69236755 5.65214539,6.51173401 C5.70469666,6.33110046 5.85964966,6.09594727 5.85964966,6.09594727 Z" id="Path-3818" fill="#3A3A3A"></path>
                        <path d="M6.60891724,6.52281189 C6.60891724,6.52281189 6.62324524,6.86805725 6.82608032,7.03353882 C7.02891541,7.19902039 7.37260437,7.37841797 7.67747498,7.44529724 C7.98234558,7.51217651 8.32461548,7.50270081 8.32461548,7.50270081 L6.60891724,6.52281189 Z" id="Path-3820" fill="url(#linearGradient-11)"></path>
                    </g>
                    <g id="Group" transform="translate(2.906250, 0.000000)">
                        <path d="M4.91496277,5.44702148 L6.54844666,5.3478241 C6.54844666,5.3478241 6.49356079,5.83081055 6.39578247,6.198349 C6.29800415,6.56588745 6.28701782,6.93347168 5.73554993,7.23902893 C5.18408203,7.54458618 2.84468079,7.75653076 2.84468079,7.75653076 C2.84468079,7.75653076 3.48783875,7.60491943 3.64764404,7.53305054 C3.80744934,7.46118164 4.25660706,7.02850342 4.36125183,6.86672974 C4.46589661,6.70495605 4.75259399,6.1138916 4.81645203,5.90762329 C4.88031006,5.70135498 4.91496277,5.44702148 4.91496277,5.44702148 Z" id="Path-3663" fill="url(#linearGradient-12)"></path>
                        <path d="M2.43795776,0.0443115234 L4.58175659,0.0443115234 C4.58175659,0.0443115234 5.18902588,0.264953613 5.54507446,0.538513184 C5.90112305,0.812072754 6.23890686,1.33666992 6.23890686,1.33666992 C6.23890686,1.33666992 5.85772705,1.94622803 5.625,2.33010864 C5.39227295,2.71398926 4.97937012,4.10046387 4.97937012,4.10046387 C4.97937012,4.10046387 4.80899048,3.16983032 4.69537354,2.77386475 C4.58175659,2.37789917 4.09936523,1.4647522 3.91790771,1.20245361 C3.7364502,0.940155029 3.28024292,0.585662842 3.05355835,0.42855835 C2.82687378,0.271453857 2.43795776,0.0443115234 2.43795776,0.0443115234 Z" id="Path-3930" fill="url(#linearGradient-13)"></path>
                        <path d="M8.2868042,0.490814209 L10.4490051,0.363189697 C10.4490051,0.363189697 11.8334656,0.606445312 12.5688171,1.39434814 C13.3041687,2.18225098 13.7349243,3.02893066 13.9075012,4.25930786 C14.0800781,5.48968506 13.9075012,6.03881836 13.7164307,6.87854004 C13.5253601,7.71826172 13.2807312,7.81430054 12.98703,8.27536011 C12.6933289,8.73641968 12.2936096,8.89370728 12.2936096,8.89370728 L9.64929199,9.82745361 C9.64929199,9.82745361 10.5353206,9.34790039 10.7766724,9.05612183 C11.0180241,8.76434326 11.2893677,8.38330078 11.5811462,7.63092041 C11.8729248,6.87854004 11.9425049,5.88967896 11.804718,4.89367676 C11.6669312,3.89767456 11.5307007,2.88180542 10.3306274,1.62789917 C9.1305542,0.37399292 8.2868042,0.490814209 8.2868042,0.490814209 Z" id="Path-3929" fill="url(#linearGradient-14)"></path>
                        <ellipse id="Oval-1" stroke="#000000" stroke-width="0.5" fill="url(#linearGradient-15)" transform="translate(8.578125, 5.203125) rotate(-8.000000) translate(-8.578125, -5.203125) " cx="8.578125" cy="5.203125" rx="3.5625" ry="4.6875"></ellipse>
                        <ellipse id="Oval-1-Copy" stroke="#000000" stroke-width="0.5" fill="url(#linearGradient-16)" transform="translate(8.296875, 5.273438) rotate(-8.000000) translate(-8.296875, -5.273438) " cx="8.296875" cy="5.2734375" rx="1.6875" ry="2.2265625"></ellipse>
                        <ellipse id="Oval-1-Copy-2" stroke="#000000" stroke-width="0.5" fill="#ECECEC" transform="translate(8.554688, 5.273438) rotate(-8.000000) translate(-8.554688, -5.273438) " cx="8.5546875" cy="5.2734375" rx="1.2421875" ry="1.7578125"></ellipse>
                        <ellipse id="Oval-1-Copy-5" stroke="#000000" stroke-width="0.5" fill="url(#linearGradient-17)" cx="2.4818573" cy="3.84375" rx="2.4457589" ry="3.85925084"></ellipse>
                        <ellipse id="Oval-1-Copy-3" stroke="#000000" stroke-width="0.5" fill="url(#linearGradient-18)" cx="2.53396721" cy="4.02571106" rx="1.16334915" ry="1.85908804"></ellipse>
                        <ellipse id="Oval-1-Copy-4" stroke="#000000" stroke-width="0.5" fill="#ECECEC" cx="2.71170111" cy="4.02571106" rx="0.856354235" ry="1.46770109"></ellipse>
                        <path d="M8.15808105,0.53237915 L10.5158844,0.396011353 C10.5158844,0.396011353 11.3573456,0.4737854 12.2594604,1.08956909 C13.1615753,1.70535278 13.6660767,2.64788818 13.8628235,4.24662781 C14.0595703,5.84536743 13.8628235,6.48504639 13.5157471,7.34371948 C13.1686707,8.20239258 12.6243439,8.77111816 12.5691833,8.77111816 C12.5140228,8.77111816 9.90206909,9.65180969 9.90206909,9.65180969" id="Path-3662" stroke="#000000" stroke-width="0.5"></path>
                    </g>
                    <path d="M4.37864685,9.91688418 L4.34673551,9.16597681 L4.33888287,9.00761542 L4.33047828,8.84027606 L4.32162211,8.66491888 L4.31231435,8.47808985 L4.30211595,8.27446453 L4.2907384,8.04668599 L4.27755449,7.78369386 L4.265625,7.546875 L10.359375,9.91688412 L10.2265198,15.65625 L9.87997501,15.451889 L9.86118387,15.440866 L9.17377669,15.0354858 L8.23564949,14.4821936 L7.86769178,14.2652884 L7.41691755,13.9994532 L7.04941143,13.7827101 L6.79226879,13.6310697 L6.66094402,13.5536846 L5.88096098,13.0937507 L4.50280989,12.2810451 L4.46143927,11.4540994 L4.51228073,11.4346097 L4.63611663,11.6416267 L4.81124558,11.8476087 L4.99792771,11.989897 L5.18425859,12.0577805 L5.75632225,12.1271602 L5.97119109,12.1124588 L6.15643064,11.9987877 L6.29796634,11.7912221 L6.38429522,11.5021938 L6.40760226,11.1513797 L6.36506503,10.7642298 L6.25921745,10.3702092 L6.09817558,9.99929439 L5.87344551,9.69002724 L5.66239357,9.46290779 L5.47484779,9.38901329 L5.29056358,9.34883308 L5.13700104,9.33096313 L4.81124559,9.56421661 L4.43380737,9.84141541 L4.37864685,9.91688418 Z M9.76308857,12.2607698 L9.79443642,10.3344345 L7.03730632,9.2001679 L6.92043242,9.23518198 L6.95385005,11.0079567 L9.64649065,12.3095127 L9.76308857,12.2607698 Z" id="Fill-8873" fill="#4B4B4B"></path>
                    <path d="M4.93450928,0.00984191895 L7.49688721,0.00984191895 C7.49688721,0.00984191895 8.13450623,0.194412231 8.56590271,0.607086182 C8.99729919,1.01976013 9.15486145,1.32371521 9.15486145,1.32371521" id="Path-3661" stroke="#000000" stroke-width="0.5"></path>
                    <path d="M4.19741821,6.97810364 C4.19741821,6.97810364 4.0471344,6.96295166 3.90426636,7.02154541 C3.76139832,7.08013916 3.5933075,7.35067749 3.5933075,7.35067749 C3.5933075,7.35067749 3.50907898,7.75634767 3.50907898,7.93395996 C3.50907898,8.11157225 3.54606628,8.45562737 3.64201355,8.61584473 C3.73796082,8.77606209 3.87922668,8.94071953 3.9960022,9.01629639 C4.11277771,9.09187324 4.34207153,9.17875671 4.34207153,9.17875671 L4.37461853,9.89515686 C4.37461853,9.89515686 4.26578522,10.2458497 4.26578522,10.3592148 C4.26578522,10.4725799 4.28162384,10.6338044 4.28162384,10.7097702 C4.28162384,10.785736 4.31506348,10.8843384 4.31506348,10.8843384 L2.70027924,11.4850845 L2.61733246,11.4195328 L0.103248596,12.3226318 C0.103248596,12.3226318 0.0424346924,12.4629594 0.0424346924,12.5487213 C0.0424346924,12.6344832 0.107803345,12.7804872 0.152549744,12.8592682 C0.197296143,12.9380492 0.270950317,13.0277715 0.300247192,13.027771 C0.329544067,13.0277705 0.410751343,13.0147247 0.410751343,13.0147247 L2.89562988,12.1270752 L2.92321014,11.991806 L4.4715271,11.4034653 L4.49629211,12.2793961 L5.88954163,13.1003952 C5.88954163,13.1003952 5.73513794,13.3778913 5.70471954,13.501236 C5.67430115,13.6245806 5.68693542,13.7123566 5.68693542,13.7123566 L5.72753906,14.3042221 C5.72753906,14.3042221 5.84177399,14.5648496 6.04898071,14.7650757 C6.25618744,14.9653018 6.7889328,15.2272565 7.09625244,15.2997894 C7.40357208,15.3723223 8.06977844,15.4491803 8.47851562,15.4491806 C8.88725281,15.4491809 9.13270569,15.4018018 9.28990173,15.3770599 C9.44709778,15.3523181 9.62104797,15.2928085 9.62104797,15.2928085 L10.2454605,15.657692 L11.8256836,14.8956985 L12.3093796,15.5629349 L12.8293304,16.0868225 L14.0820694,16.7674942 C14.0820694,16.7674942 14.6741638,16.6844556 15.182579,16.1710739 C15.6909943,15.6576922 15.8404999,15.3294751 16.0876007,14.8340836 C16.3347015,14.338692 16.4925842,13.4952623 16.5303726,13.1337204 C16.568161,12.7721785 16.489769,12.3445588 16.4172363,12.1681824 C16.3447037,11.9918059 16.0940781,11.7227783 16.0940781,11.7227783 L14.7097092,11.1898041 L13.2108765,11.2636414 L13.3355255,9.55888367" id="Path-3619" stroke="#000000" stroke-width="0.5"></path>
                    <path d="M4.31121826,7.63769531 L10.4848022,10.1033936 L10.2850342,15.6425171" id="Path-3620" stroke="#000000" stroke-width="0.5"></path>
                    <path id="Path-3621" stroke="#000000" stroke-width="0.5" d="M4.3625,7.64172363 L4.3625,9.21917725"></path>
                    <path id="Path-3622" stroke="#000000" stroke-width="0.5" d="M10.4694214,10.0913086 L11.4488525,9.8237915"></path>
                    <path d="M15.9274292,11.67453 C15.9274292,11.67453 15.1628723,11.7424622 14.7677307,12.0455017 C14.3725891,12.3485413 13.9418335,13.0896606 13.7151489,13.7062683 C13.4884644,14.322876 13.3215637,15.0102539 13.3215637,15.4410095 C13.3215637,15.8717651 13.4249268,16.2923584 13.5700378,16.4443359" id="Path-3623" stroke="#000000" stroke-width="0.5"></path>
                    <path d="M13.2028198,11.3056641 L11.9804077,11.3464966 C11.9804077,11.3464966 11.592041,11.5966187 11.4001465,11.8459167 C11.208252,12.0952148 11.0692749,12.3966064 10.9649963,12.7215271 C10.8607178,13.0464478 10.8781128,13.3002319 10.8781128,13.4642944 C10.8781128,13.6283569 11.1134949,13.7671509 11.1134949,13.7671509 C11.1134949,13.7671509 11.1483307,14.09729 11.2742386,14.2338638 C11.4001465,14.3704376 11.8191376,14.8399887 11.8191376,14.8399887" id="Path-3624" stroke="#000000" stroke-width="0.5"></path>
                </g>
                <g id="Lock" transform="translate(1.875000, 8.437500)" sketch:type="MSShapeGroup">
                    <path d="M0.726560329,3.96431287 C0.726560329,3.96431287 0.757407145,1.88996333 0.762083214,1.82541133 C0.783858853,1.52480394 1.03595586,1.15393457 1.1957676,0.969898801 C1.35557934,0.785863029 1.54941552,0.629716856 1.91234283,0.481850183 C2.27527014,0.333983511 2.57245812,0.336604094 2.57245812,0.336604094" id="Path-2071" stroke="#FF0014" stroke-width="0.5625"></path>
                    <path d="M4.37433722,3.96431287 C4.37433722,3.96431287 4.3434904,1.88996333 4.33881433,1.82541133 C4.3170387,1.52480394 4.06494169,1.15393457 3.90512995,0.969898801 C3.74531821,0.785863029 3.55148203,0.629716856 3.18855472,0.481850183 C2.82562741,0.333983511 2.52843943,0.336604094 2.52843943,0.336604094" id="Path-2071-Copy" stroke="#FF0014" stroke-width="0.5625"></path>
                    <path d="M0.0319669485,4.09521539 L5.1043985,4.07837783 L5.109375,8.90625 L0.0314995422,8.87275212 L0.0319669485,4.09521539 Z" id="Path-2073" stroke="#000000" stroke-width="0.5" fill="#FF0014"></path>
                    <path d="M0.3901927,4.00988822 C0.3901927,4.03303036 0.40481977,1.78738124 0.40481977,1.78738124 C0.40481977,1.78738124 0.59849098,0.896788373 1.2354834,0.490914613 C1.87247582,0.0850408533 2.10760872,0.0212860107 2.59041202,0.0212860107 C3.07321532,0.0212860107 3.3279243,0.117779142 3.86813611,0.490914613 C4.40834791,0.864050084 4.68472255,1.78738124 4.68472255,1.78738124 L4.70974254,4.00988822" id="Path-1436" stroke="#000000" stroke-width="0.5"></path>
                    <path d="M1.12741259,4.00960458 L1.13704684,1.87048509 C1.13704684,1.87048509 1.26461011,1.30421211 1.68417085,1.04614206 C2.10373159,0.788072008 2.25860398,0.747534242 2.57660669,0.747534242 C2.89460939,0.747534242 3.06237574,0.808888264 3.41819106,1.04614206 C3.77400639,1.28339585 3.95604302,1.87048509 3.95604302,1.87048509 L3.97252266,4.00960458" id="Path-1436-Copy" stroke="#000000" stroke-width="0.5"></path>
                    <path d="M2.12803713,5.03259894 L2.99339881,5.04186593 L3.00161966,7.09726331 L2.12712981,7.09275642 L2.12803713,5.03259894 Z" id="Path-2074" stroke="#000000" stroke-width="0.5" fill="#FFFFFF"></path>
                    <path id="Path-2074-Copy" stroke="#000000" stroke-width="0.5" fill="url(#linearGradient-19)" d="M2.12803713,6.79069316 L2.99339881,6.79206916 L3.00161966,7.09726331 L2.12712981,7.09659411 L2.12803713,6.79069316 Z"></path>
                </g>
                <path d="M7.18121338,17.5080872 L1.74188232,17.4967346 L1.76531982,12.3903809 L2.12658691,12.3903809 L2.16659546,10.2342224 C2.16659546,10.2342224 2.39163208,9.3767395 2.87896729,8.98764038 C3.36630249,8.59854126 3.86251831,8.34310913 4.43994141,8.34310913 C5.0173645,8.34310913 5.80535889,8.76452637 6.12414551,9.1605835 C6.44293213,9.55664062 6.6696167,10.2236938 6.6696167,10.2236938 L6.7164917,12.2914124 L7.1803894,12.3079834 L7.18121338,17.5080872 Z" id="Path-4072" stroke="#FFFFFF" stroke-width="0.5" sketch:type="MSShapeGroup"></path>
            </g>
        </g>
    </g>
</svg>