<?xml version="1.0" encoding="UTF-8" standalone="no"?>
<svg width="25px" height="24px" viewBox="0 0 25 24" version="1.1" xmlns="http://www.w3.org/2000/svg" xmlns:xlink="http://www.w3.org/1999/xlink" xmlns:sketch="http://www.bohemiancoding.com/sketch/ns">
    <!-- Generator: Sketch 3.3.2 (12043) - http://www.bohemiancoding.com/sketch -->
    <title>tb_actreset</title>
    <desc>Created with Sketch.</desc>
    <defs></defs>
    <g id="Page-1" stroke="none" stroke-width="1" fill="none" fill-rule="evenodd" sketch:type="MSPage">
        <g id="tb_actreset" sketch:type="MSArtboardGroup" transform="translate(0.000000, 0.000000)">
            <g id="Group" sketch:type="MSLayerGroup" transform="translate(3.000000, 3.000000)">
                <path d="M0,0 L18,0 L18,4.5 L0,4.5 L0,0 L0,0 Z" id="Fill-8793" fill="#3E3E3E" sketch:type="MSShapeGroup"></path>
                <path d="M0,13.5 L18,13.5 L18,18 L0,18 L0,13.5 L0,13.5 Z" id="Fill-8794" fill="#3E3E3E" sketch:type="MSShapeGroup"></path>
                <path d="M1.5,6 L1.5,12 L16.5,12 L16.5,6 L1.5,6 L1.5,6 Z" id="Stroke-8795" stroke="#3E3E3E" stroke-width="0.5" sketch:type="MSShapeGroup"></path>
                <path d="M3,6 L1.5,6 L1.5,7.5" id="Stroke-8796" stroke="#000000" stroke-width="0.5" sketch:type="MSShapeGroup"></path>
                <path d="M1.5,10.5 L1.5,12 L3,12" id="Stroke-8797" stroke="#000000" stroke-width="0.5" sketch:type="MSShapeGroup"></path>
                <path d="M15,6 L16.5,6 L16.5,7.5" id="Stroke-8798" stroke="#000000" stroke-width="0.5" sketch:type="MSShapeGroup"></path>
                <path d="M16.5,10.5 L16.5,12 L15,12" id="Stroke-8799" stroke="#000000" stroke-width="0.5" sketch:type="MSShapeGroup"></path>
                <path id="Fill-8800" fill="#000000" sketch:type="MSShapeGroup" d="M9,7.5 L9,10.5"></path>
                <path id="Stroke-8801" stroke="#000000" stroke-width="0.5" sketch:type="MSShapeGroup" d="M9,7.5 L9,10.5"></path>
                <path id="Fill-8802" fill="#000000" sketch:type="MSShapeGroup" d="M7.5,9 L10.5,9"></path>
                <path id="Stroke-8803" stroke="#000000" stroke-width="0.5" sketch:type="MSShapeGroup" d="M7.5,9 L10.5,9"></path>
                <path d="M5.28667,12.7132499 C3.23777667,10.6642499 3.23777667,7.33565636 5.28667,5.28665628 C7.33568838,3.23778124 10.6643116,3.23778124 12.71333,5.28665628 C14.7622233,7.33565636 14.7622233,10.6642499 12.71333,12.7132499 C10.6643116,14.76225 7.33568838,14.76225 5.28667,12.7132499 L5.28667,12.7132499 Z" id="Stroke-22879" stroke="#FFFFFF" stroke-width="2.625" stroke-linecap="round" stroke-linejoin="round" sketch:type="MSShapeGroup"></path>
                <path d="M5.25,5.25 L12.65625,12.65625" id="Stroke-22880" stroke="#FFFFFF" stroke-width="2.625" stroke-linecap="round" stroke-linejoin="round" sketch:type="MSShapeGroup"></path>
                <path d="M5.25,12.65625 L12.65625,5.25" id="Stroke-22881" stroke="#FFFFFF" stroke-width="2.625" stroke-linecap="round" stroke-linejoin="round" sketch:type="MSShapeGroup"></path>
                <path d="M5.28667,12.7132499 C3.23777667,10.6642499 3.23777667,7.33565636 5.28667,5.28665628 C7.33568838,3.23778124 10.6643116,3.23778124 12.71333,5.28665628 C14.7622233,7.33565636 14.7622233,10.6642499 12.71333,12.7132499 C10.6643116,14.76225 7.33568838,14.76225 5.28667,12.7132499 L5.28667,12.7132499 Z" id="Stroke-23788" stroke="#FF0000" stroke-width="1.5" stroke-linecap="round" stroke-linejoin="round" sketch:type="MSShapeGroup"></path>
                <path d="M5.25,5.25 L12.65625,12.65625" id="Stroke-23789" stroke="#FF0000" stroke-width="1.5" stroke-linecap="round" stroke-linejoin="round" sketch:type="MSShapeGroup"></path>
                <path d="M5.25,12.65625 L12.65625,5.25" id="Stroke-23790" stroke="#FF0000" stroke-width="1.5" stroke-linecap="round" stroke-linejoin="round" sketch:type="MSShapeGroup"></path>
            </g>
        </g>
    </g>
</svg>